<?xml version="1.0" encoding="UTF-8"?><svg id="Layer_4" xmlns="http://www.w3.org/2000/svg" xmlns:xlink="http://www.w3.org/1999/xlink" viewBox="0 0 1560.89 1785.32"><defs><style>.cls-1{fill:url(#linear-gradient-75);}.cls-2{fill:#380909;opacity:.38;}.cls-3{fill:#2f0e0e;opacity:.58;}.cls-4{fill:url(#linear-gradient-2);}.cls-5{fill:#231313;opacity:.81;}.cls-6{fill:url(#linear-gradient-51);}.cls-7{fill:#440404;opacity:.15;}.cls-8{fill:#fff;}.cls-9{fill:url(#linear-gradient-53);}.cls-9,.cls-10,.cls-11,.cls-12,.cls-13,.cls-14,.cls-15,.cls-16,.cls-17,.cls-18,.cls-19,.cls-20,.cls-21,.cls-22,.cls-23,.cls-24,.cls-25,.cls-26,.cls-27,.cls-28,.cls-29,.cls-30,.cls-31,.cls-32,.cls-33,.cls-34,.cls-35,.cls-36,.cls-37,.cls-38,.cls-39,.cls-40,.cls-41,.cls-42,.cls-43,.cls-44,.cls-45,.cls-46,.cls-47,.cls-48,.cls-49,.cls-50{opacity:.57;}.cls-10{fill:url(#linear-gradient-15);}.cls-11{fill:url(#linear-gradient-33);}.cls-51{fill:#4a0101;opacity:.04;}.cls-52{fill:url(#linear-gradient-43);}.cls-12{fill:url(#linear-gradient-9);}.cls-53{fill:#400606;opacity:.23;}.cls-13{fill:url(#linear-gradient-31);}.cls-14{fill:url(#linear-gradient-54);}.cls-15{fill:url(#linear-gradient-38);}.cls-16{fill:url(#linear-gradient-36);}.cls-54{fill:url(#linear-gradient-69);}.cls-55{fill:url(#linear-gradient-18);}.cls-56{fill:#1b1717;opacity:.96;}.cls-57{fill:#1f1515;opacity:.88;}.cls-58{fill:url(#linear-gradient-20);}.cls-17{fill:url(#linear-gradient-14);}.cls-18{fill:url(#linear-gradient-37);}.cls-59{opacity:.17;}.cls-59,.cls-60{fill:none;}.cls-19{fill:url(#linear-gradient-65);}.cls-20{fill:url(#linear-gradient-64);}.cls-21{fill:url(#linear-gradient-56);}.cls-22{fill:url(#linear-gradient-10);}.cls-23{fill:url(#linear-gradient-60);}.cls-24{fill:url(#linear-gradient-62);}.cls-25{fill:url(#linear-gradient-5);}.cls-61{fill:url(#linear-gradient-48);}.cls-62{fill:#fefeff;}.cls-63{fill:#251212;opacity:.77;}.cls-64{fill:url(#linear-gradient-50);}.cls-65{fill:url(#linear-gradient-67);}.cls-26{fill:url(#linear-gradient-8);}.cls-66{fill:#420505;opacity:.19;}.cls-27{fill:url(#linear-gradient-32);}.cls-28{fill:url(#linear-gradient-63);}.cls-67{fill:#271212;opacity:.73;}.cls-68{fill:#460303;opacity:.12;}.cls-69{fill:url(#linear-gradient-49);}.cls-29{fill:url(#linear-gradient-12);}.cls-70{fill:#360a0a;opacity:.42;}.cls-30{fill:url(#linear-gradient-29);}.cls-71{fill:url(#linear-gradient-68);}.cls-31{fill:url(#linear-gradient-4);}.cls-60{opacity:.24;}.cls-72{fill:#340b0b;opacity:.46;}.cls-73{fill:url(#linear-gradient-21);}.cls-74{fill:url(#linear-gradient-72);}.cls-75{fill:url(#linear-gradient-25);}.cls-32{fill:url(#linear-gradient-52);}.cls-33{fill:url(#linear-gradient-13);}.cls-76{fill:#310d0d;opacity:.54;}.cls-77{fill:url(#linear-gradient-45);}.cls-34{fill:url(#linear-gradient-30);}.cls-78{fill:url(#linear-gradient-70);}.cls-35{fill:url(#linear-gradient-39);}.cls-79{fill:#3e0606;opacity:.27;}.cls-36{fill:url(#linear-gradient-55);}.cls-80{fill:url(#linear-gradient-66);}.cls-37{fill:url(#linear-gradient-7);}.cls-38{fill:url(#linear-gradient-6);}.cls-81{fill:url(#linear-gradient-24);}.cls-82{fill:url(#linear-gradient-73);}.cls-83{fill:#2b1010;opacity:.65;}.cls-39{fill:url(#linear-gradient-34);}.cls-84{fill:#330c0c;opacity:.5;}.cls-40{fill:url(#linear-gradient-17);}.cls-85{fill:url(#linear-gradient-22);}.cls-41{fill:url(#linear-gradient-58);}.cls-86{fill:url(#linear-gradient-74);}.cls-87{fill:url(#linear-gradient-42);}.cls-88{fill:url(#linear-gradient-3);}.cls-89{fill:#4c0000;opacity:0;}.cls-42{fill:url(#linear-gradient-57);}.cls-43{fill:url(#linear-gradient-40);}.cls-90{fill:#291111;opacity:.69;}.cls-91{fill:#191818;}.cls-92{fill:url(#linear-gradient);}.cls-44{fill:url(#linear-gradient-28);}.cls-45{fill:url(#linear-gradient-11);}.cls-93{fill:#211414;opacity:.85;}.cls-94{fill:#3c0707;opacity:.31;}.cls-95{fill:url(#linear-gradient-27);}.cls-96{fill:#480202;opacity:.08;}.cls-97{fill:#1d1616;opacity:.92;}.cls-46{fill:url(#linear-gradient-35);}.cls-98{fill:#3a0808;opacity:.35;}.cls-99{fill:#2d0f0f;opacity:.62;}.cls-47{fill:url(#linear-gradient-59);}.cls-100{fill:url(#linear-gradient-23);}.cls-101{fill:url(#linear-gradient-19);}.cls-102{fill:url(#linear-gradient-71);}.cls-48{fill:url(#linear-gradient-16);}.cls-103{fill:url(#linear-gradient-44);}.cls-49{fill:url(#linear-gradient-41);}.cls-104{fill:url(#linear-gradient-47);}.cls-105{fill:url(#linear-gradient-46);}.cls-50{fill:url(#linear-gradient-61);}.cls-106{fill:url(#linear-gradient-26);}</style><linearGradient id="linear-gradient" x1="1487.99" y1="1352.25" x2="784.58" y2="1352.25" gradientUnits="userSpaceOnUse"><stop offset="0" stop-color="#161616"/><stop offset="1" stop-color="#444"/></linearGradient><linearGradient id="linear-gradient-2" x1="1487.99" y1="1350.09" x2="784.58" y2="1350.09" gradientUnits="userSpaceOnUse"><stop offset="0" stop-color="#fbfbfb"/><stop offset="1" stop-color="#e5e5e5"/></linearGradient><linearGradient id="linear-gradient-3" x1="565.47" y1="1048.66" x2="1560.89" y2="1048.66" xlink:href="#linear-gradient-2"/><linearGradient id="linear-gradient-4" x1="662.17" y1="1362.15" x2="651.72" y2="1362.15" xlink:href="#linear-gradient"/><linearGradient id="linear-gradient-5" x1="690.42" y1="1383.68" x2="680.76" y2="1383.68" xlink:href="#linear-gradient"/><linearGradient id="linear-gradient-6" x1="718.59" y1="1401.27" x2="708.93" y2="1401.27" xlink:href="#linear-gradient"/><linearGradient id="linear-gradient-7" x1="774.92" y1="1429.1" x2="765.26" y2="1429.1" xlink:href="#linear-gradient"/><linearGradient id="linear-gradient-8" x1="859.42" y1="1458.42" x2="849.76" y2="1458.42" xlink:href="#linear-gradient"/><linearGradient id="linear-gradient-9" x1="887.59" y1="1465.46" x2="877.93" y2="1465.46" xlink:href="#linear-gradient"/><linearGradient id="linear-gradient-10" x1="831.25" y1="1450.11" x2="821.59" y2="1450.11" xlink:href="#linear-gradient"/><linearGradient id="linear-gradient-11" x1="803.09" y1="1440.45" x2="793.43" y2="1440.45" xlink:href="#linear-gradient"/><linearGradient id="linear-gradient-12" x1="746.75" y1="1416.35" x2="737.1" y2="1416.35" xlink:href="#linear-gradient"/><linearGradient id="linear-gradient-13" x1="1028.42" y1="1484.55" x2="1018.76" y2="1484.55" xlink:href="#linear-gradient"/><linearGradient id="linear-gradient-14" x1="915.75" y1="1471.34" x2="906.09" y2="1471.34" xlink:href="#linear-gradient"/><linearGradient id="linear-gradient-15" x1="943.92" y1="1476.15" x2="934.26" y2="1476.15" xlink:href="#linear-gradient"/><linearGradient id="linear-gradient-16" x1="1000.25" y1="1482.7" x2="990.59" y2="1482.7" xlink:href="#linear-gradient"/><linearGradient id="linear-gradient-17" x1="972.09" y1="1479.91" x2="962.43" y2="1479.91" xlink:href="#linear-gradient"/><linearGradient id="linear-gradient-18" x1="1512.15" y1="1308.55" x2="1721.38" y2="242.7" gradientUnits="userSpaceOnUse"><stop offset="0" stop-color="#1b315b"/><stop offset="1" stop-color="#267ebd"/></linearGradient><linearGradient id="linear-gradient-19" x1="1364.67" y1="1476.86" x2="1506.41" y2="1353.18" gradientUnits="userSpaceOnUse"><stop offset="0" stop-color="#3abaf9"/><stop offset="1" stop-color="#267ebd"/></linearGradient><linearGradient id="linear-gradient-20" x1="1360.02" y1="1359.67" x2="1449.29" y2="1424.93" xlink:href="#linear-gradient-19"/><linearGradient id="linear-gradient-21" x1="1366.16" y1="1417.21" x2="1387.18" y2="1432.58" gradientUnits="userSpaceOnUse"><stop offset="0" stop-color="#fe7f0a"/><stop offset="1" stop-color="#ffb538"/></linearGradient><linearGradient id="linear-gradient-22" x1="1316.18" y1="1436.56" x2="1339.56" y2="1453.66" gradientUnits="userSpaceOnUse"><stop offset="0" stop-color="#dd2f2f"/><stop offset="1" stop-color="#ff6757"/></linearGradient><linearGradient id="linear-gradient-23" x1="1414.17" y1="1392.43" x2="1433.68" y2="1406.69" gradientUnits="userSpaceOnUse"><stop offset="0" stop-color="#82fb7c"/><stop offset="1" stop-color="#0ba2b3"/></linearGradient><linearGradient id="linear-gradient-24" x1="1461.06" y1="1361.54" x2="1477.58" y2="1373.62" xlink:href="#linear-gradient-2"/><linearGradient id="linear-gradient-25" y1="972.07" y2="972.07" xlink:href="#linear-gradient"/><linearGradient id="linear-gradient-26" y1="969.91" y2="969.91" xlink:href="#linear-gradient-2"/><linearGradient id="linear-gradient-27" x1="565.47" y1="668.48" x2="1560.89" y2="668.48" xlink:href="#linear-gradient-2"/><linearGradient id="linear-gradient-28" x1="662.17" y1="981.96" x2="651.72" y2="981.96" xlink:href="#linear-gradient"/><linearGradient id="linear-gradient-29" x1="690.42" y1="1003.5" x2="680.76" y2="1003.5" xlink:href="#linear-gradient"/><linearGradient id="linear-gradient-30" x1="718.59" y1="1021.08" x2="708.93" y2="1021.08" xlink:href="#linear-gradient"/><linearGradient id="linear-gradient-31" x1="774.92" y1="1048.92" x2="765.26" y2="1048.92" xlink:href="#linear-gradient"/><linearGradient id="linear-gradient-32" x1="859.42" y1="1078.24" x2="849.76" y2="1078.24" xlink:href="#linear-gradient"/><linearGradient id="linear-gradient-33" x1="887.59" y1="1085.27" x2="877.93" y2="1085.27" xlink:href="#linear-gradient"/><linearGradient id="linear-gradient-34" x1="831.25" y1="1069.93" x2="821.59" y2="1069.93" xlink:href="#linear-gradient"/><linearGradient id="linear-gradient-35" x1="803.09" y1="1060.26" x2="793.43" y2="1060.26" xlink:href="#linear-gradient"/><linearGradient id="linear-gradient-36" x1="746.75" y1="1036.17" x2="737.1" y2="1036.17" xlink:href="#linear-gradient"/><linearGradient id="linear-gradient-37" x1="1028.42" y1="1104.36" x2="1018.76" y2="1104.36" xlink:href="#linear-gradient"/><linearGradient id="linear-gradient-38" x1="915.75" y1="1091.15" x2="906.09" y2="1091.15" xlink:href="#linear-gradient"/><linearGradient id="linear-gradient-39" x1="943.92" y1="1095.96" x2="934.26" y2="1095.96" xlink:href="#linear-gradient"/><linearGradient id="linear-gradient-40" x1="1000.25" y1="1102.51" x2="990.59" y2="1102.51" xlink:href="#linear-gradient"/><linearGradient id="linear-gradient-41" x1="972.09" y1="1099.72" x2="962.43" y2="1099.72" xlink:href="#linear-gradient"/><linearGradient id="linear-gradient-42" x1="1440.29" y1="1294.44" x2="1649.52" y2="228.6" xlink:href="#linear-gradient-18"/><linearGradient id="linear-gradient-43" x1="1364.67" y1="1096.67" x2="1506.41" y2="973" xlink:href="#linear-gradient-19"/><linearGradient id="linear-gradient-44" x1="1360.02" y1="979.48" x2="1449.29" y2="1044.74" xlink:href="#linear-gradient-19"/><linearGradient id="linear-gradient-45" x1="1366.16" y1="1037.03" x2="1387.18" y2="1052.39" xlink:href="#linear-gradient-21"/><linearGradient id="linear-gradient-46" y1="1056.38" x2="1339.56" y2="1073.47" xlink:href="#linear-gradient-22"/><linearGradient id="linear-gradient-47" x1="1414.17" y1="1012.24" x2="1433.68" y2="1026.51" xlink:href="#linear-gradient-23"/><linearGradient id="linear-gradient-48" x1="1461.06" y1="981.36" x2="1477.58" y2="993.44" xlink:href="#linear-gradient-2"/><linearGradient id="linear-gradient-49" y1="591.88" y2="591.88" xlink:href="#linear-gradient"/><linearGradient id="linear-gradient-50" y1="589.72" y2="589.72" xlink:href="#linear-gradient-2"/><linearGradient id="linear-gradient-51" x1="565.47" y1="288.29" x2="1560.89" y2="288.29" xlink:href="#linear-gradient-2"/><linearGradient id="linear-gradient-52" x1="662.17" y1="601.78" x2="651.72" y2="601.78" xlink:href="#linear-gradient"/><linearGradient id="linear-gradient-53" x1="690.42" y1="623.31" x2="680.76" y2="623.31" xlink:href="#linear-gradient"/><linearGradient id="linear-gradient-54" x1="718.59" y1="640.9" x2="708.93" y2="640.9" xlink:href="#linear-gradient"/><linearGradient id="linear-gradient-55" x1="774.92" y1="668.73" x2="765.26" y2="668.73" xlink:href="#linear-gradient"/><linearGradient id="linear-gradient-56" x1="859.42" y1="698.05" x2="849.76" y2="698.05" xlink:href="#linear-gradient"/><linearGradient id="linear-gradient-57" x1="887.59" y1="705.09" x2="877.93" y2="705.09" xlink:href="#linear-gradient"/><linearGradient id="linear-gradient-58" x1="831.25" y1="689.74" x2="821.59" y2="689.74" xlink:href="#linear-gradient"/><linearGradient id="linear-gradient-59" x1="803.09" y1="680.08" x2="793.43" y2="680.08" xlink:href="#linear-gradient"/><linearGradient id="linear-gradient-60" x1="746.75" y1="655.98" x2="737.1" y2="655.98" xlink:href="#linear-gradient"/><linearGradient id="linear-gradient-61" x1="1028.42" y1="724.18" x2="1018.76" y2="724.18" xlink:href="#linear-gradient"/><linearGradient id="linear-gradient-62" x1="915.75" y1="710.97" x2="906.09" y2="710.97" xlink:href="#linear-gradient"/><linearGradient id="linear-gradient-63" x1="943.92" y1="715.77" x2="934.26" y2="715.77" xlink:href="#linear-gradient"/><linearGradient id="linear-gradient-64" x1="1000.25" y1="722.33" x2="990.59" y2="722.33" xlink:href="#linear-gradient"/><linearGradient id="linear-gradient-65" x1="972.09" y1="719.54" x2="962.43" y2="719.54" xlink:href="#linear-gradient"/><linearGradient id="linear-gradient-66" x1="1368.42" y1="1280.33" x2="1577.65" y2="214.49" xlink:href="#linear-gradient-18"/><linearGradient id="linear-gradient-67" y1="716.49" x2="1506.41" y2="592.81" xlink:href="#linear-gradient-19"/><linearGradient id="linear-gradient-68" x1="1360.02" y1="599.3" x2="1449.29" y2="664.56" xlink:href="#linear-gradient-19"/><linearGradient id="linear-gradient-69" x1="1366.16" y1="656.84" x2="1387.18" y2="672.21" xlink:href="#linear-gradient-21"/><linearGradient id="linear-gradient-70" y1="676.19" y2="693.29" xlink:href="#linear-gradient-22"/><linearGradient id="linear-gradient-71" x1="1414.17" y1="632.06" x2="1433.68" y2="646.32" xlink:href="#linear-gradient-23"/><linearGradient id="linear-gradient-72" x1="1461.06" y1="601.17" x2="1477.58" y2="613.25" xlink:href="#linear-gradient-2"/><linearGradient id="linear-gradient-73" x1="667.65" y1="1727.24" x2="283.29" y2="947.6" xlink:href="#linear-gradient-2"/><linearGradient id="linear-gradient-74" x1="736.67" y1="1183.48" x2="319.56" y2="1476.11" xlink:href="#linear-gradient-2"/><linearGradient id="linear-gradient-75" x1="135.09" y1="-757.87" x2="816.04" y2="-757.87" gradientTransform="translate(0 1655.34) rotate(27.97) scale(1.13 .88) skewX(22.5)" xlink:href="#linear-gradient-22"/></defs><g class="cls-59"><ellipse class="cls-89" cx="766.56" cy="1653.17" rx="766.56" ry="132.16"/><ellipse class="cls-51" cx="777.5" cy="1653.17" rx="748.01" ry="128.96"/><ellipse class="cls-96" cx="788.43" cy="1653.17" rx="729.46" ry="125.76"/><ellipse class="cls-68" cx="799.36" cy="1653.17" rx="710.91" ry="122.56"/><ellipse class="cls-7" cx="810.29" cy="1653.17" rx="692.36" ry="119.36"/><ellipse class="cls-66" cx="821.22" cy="1653.17" rx="673.8" ry="116.16"/><ellipse class="cls-53" cx="832.15" cy="1653.17" rx="655.25" ry="112.97"/><ellipse class="cls-79" cx="843.08" cy="1653.17" rx="636.7" ry="109.77"/><ellipse class="cls-94" cx="854.01" cy="1653.17" rx="618.15" ry="106.57"/><ellipse class="cls-98" cx="864.94" cy="1653.17" rx="599.59" ry="103.37"/><ellipse class="cls-2" cx="875.87" cy="1653.17" rx="581.04" ry="100.17"/><ellipse class="cls-70" cx="886.81" cy="1653.17" rx="562.49" ry="96.97"/><ellipse class="cls-72" cx="897.74" cy="1653.17" rx="543.94" ry="93.78"/><ellipse class="cls-84" cx="908.67" cy="1653.17" rx="525.38" ry="90.58"/><ellipse class="cls-76" cx="919.6" cy="1653.17" rx="506.83" ry="87.38"/><ellipse class="cls-3" cx="930.53" cy="1653.17" rx="488.28" ry="84.18"/><ellipse class="cls-99" cx="941.46" cy="1653.17" rx="469.73" ry="80.98"/><ellipse class="cls-83" cx="952.39" cy="1653.17" rx="451.18" ry="77.78"/><ellipse class="cls-90" cx="963.32" cy="1653.17" rx="432.62" ry="74.58"/><ellipse class="cls-67" cx="974.25" cy="1653.17" rx="414.07" ry="71.39"/><ellipse class="cls-63" cx="985.18" cy="1653.17" rx="395.52" ry="68.19"/><ellipse class="cls-5" cx="996.11" cy="1653.17" rx="376.97" ry="64.99"/><ellipse class="cls-93" cx="1007.05" cy="1653.17" rx="358.41" ry="61.79"/><ellipse class="cls-57" cx="1017.98" cy="1653.17" rx="339.86" ry="58.59"/><ellipse class="cls-97" cx="1028.91" cy="1653.17" rx="321.31" ry="55.39"/><ellipse class="cls-56" cx="1039.84" cy="1653.17" rx="302.76" ry="52.2"/><ellipse class="cls-91" cx="1050.77" cy="1653.17" rx="284.2" ry="49"/></g><path class="cls-92" d="m1560.51,1061.01c-.14,2.5-.29,4.99-.54,7.49-.22,2.19-.52,4.38-.83,6.57-.35,2.48-.72,4.96-1.17,7.44-.4,2.2-.88,4.4-1.37,6.59-.54,2.42-1.12,4.84-1.77,7.26-.59,2.2-1.25,4.4-1.92,6.58-.75,2.41-1.53,4.81-2.38,7.2-.76,2.15-1.58,4.29-2.43,6.42-1,2.52-2.06,5.04-3.18,7.55-.94,2.1-1.91,4.2-2.93,6.29-1.22,2.5-2.52,4.98-3.86,7.47-1.09,2.02-2.19,4.03-3.36,6.04-1.72,2.95-3.56,5.89-5.45,8.82-1.15,1.78-2.26,3.56-3.47,5.33-2.22,3.24-4.61,6.45-7.04,9.65-1.05,1.39-2.03,2.79-3.13,4.17-4.02,5.08-8.35,10.09-12.91,15.06-1.18,1.28-2.45,2.53-3.66,3.81-3.6,3.77-7.35,7.51-11.26,11.21-1.78,1.68-3.58,3.37-5.43,5.04-2.33,2.1-4.73,4.18-7.17,6.26-2.25,1.92-4.53,3.83-6.87,5.73-2.53,2.05-5.14,4.06-7.77,6.08-2.44,1.87-4.89,3.73-7.42,5.56-2.73,1.99-5.55,3.94-8.39,5.9-2.62,1.81-5.25,3.61-7.96,5.39-2.94,1.92-5.97,3.82-9.01,5.7-3.81,2.37-7.57,4.75-11.54,7.05-7.44,4.33-15.11,8.43-22.9,12.42-2.24,1.15-4.52,2.26-6.79,3.39-6.06,2.99-12.2,5.89-18.45,8.69-2.11.95-4.18,1.92-6.31,2.84-8.14,3.53-16.4,6.92-24.82,10.12-1.49.57-3.02,1.08-4.51,1.64-7.11,2.64-14.31,5.16-21.59,7.57-3,.99-6.01,1.97-9.04,2.92-4,1.26-8.03,2.49-12.08,3.68-3.44,1.01-6.88,2.01-10.35,2.97-4.11,1.14-8.24,2.23-12.39,3.3-3.48.9-6.95,1.79-10.46,2.63-4.21,1.02-8.45,1.99-12.69,2.93-3.51.78-7.02,1.57-10.56,2.31-4.31.9-8.65,1.74-12.99,2.56-3.35.64-6.69,1.29-10.06,1.88-9.32,1.65-18.7,3.16-28.14,4.49-1.36.19-2.74.34-4.11.52-8.21,1.11-16.46,2.09-24.73,2.95-3.16.33-6.32.63-9.48.93-5.34.49-10.69.94-16.05,1.34-3.34.24-6.69.49-10.04.69-5.59.35-11.2.62-16.81.85-3.13.13-6.26.29-9.39.39-4.85.15-9.71.21-14.57.28-3.39.05-6.77.13-10.16.14-5.18.02-10.35-.07-15.53-.16-3.08-.05-6.15-.04-9.22-.13-4.78-.13-9.56-.36-14.34-.56-3.28-.14-6.57-.23-9.84-.4-5.2-.28-10.38-.68-15.57-1.06-2.85-.21-5.71-.36-8.56-.59-6.25-.52-12.48-1.16-18.7-1.81-1.75-.18-3.52-.32-5.27-.52-7.96-.89-15.89-1.9-23.78-3.01-1.31-.18-2.59-.42-3.9-.61-6.75-.99-13.49-2.02-20.17-3.18-2.78-.48-5.53-1.04-8.3-1.55-5.17-.95-10.33-1.9-15.45-2.94-2.69-.55-5.34-1.17-8.02-1.75-5.58-1.2-11.16-2.44-16.68-3.76-3.11-.75-6.2-1.55-9.29-2.33-5.04-1.28-10.06-2.6-15.04-3.98-2.85-.79-5.69-1.61-8.52-2.43-7.93-2.31-15.78-4.74-23.53-7.31-1.37-.46-2.77-.87-4.14-1.34-8.9-3.02-17.65-6.24-26.29-9.61-1.84-.72-3.65-1.47-5.47-2.21-11.23-4.5-22.26-9.25-32.96-14.35-1.08-.52-2.12-1.07-3.2-1.59-11.2-5.43-22.15-11.11-32.69-17.2-73.59-42.48-119.55-94.93-137.84-149.82-6.1-18.3-9.12-36.86-9.07-55.43v.02-.02l-.9,315.97c-.21,74.24,48.79,148.59,146.91,205.25,10.54,6.08,21.48,11.77,32.68,17.19,1.08.53,2.13,1.08,3.21,1.59,10.7,5.1,21.73,9.85,32.96,14.35.99.39,1.92.87,2.92,1.27.84.33,1.72.61,2.56.94,8.64,3.36,17.38,6.59,26.29,9.61,1.37.47,2.77.88,4.14,1.34,7.75,2.57,15.6,5,23.53,7.31,1.32.38,2.59.84,3.91,1.21,1.52.43,3.09.79,4.61,1.22,4.98,1.38,10,2.7,15.04,3.98,3.09.79,6.17,1.59,9.29,2.33,5.52,1.32,11.09,2.56,16.68,3.76,2.11.46,4.18.99,6.29,1.42.57.12,1.15.21,1.73.33,5.07,1.04,10.19,1.98,15.31,2.92,2.83.52,5.63,1.09,8.47,1.58,6.66,1.15,13.36,2.18,20.07,3.16,1.26.18,2.51.42,3.77.59.07.01.13.02.2.03,7.89,1.12,15.82,2.12,23.78,3.01,1.82.21,3.65.34,5.48.54,6.15.65,12.29,1.28,18.47,1.79.16.01.31.03.47.04,2.85.24,5.71.38,8.57.58,5.03.36,10.05.75,15.1,1.03,3.35.18,6.7.27,10.06.42,4.72.2,9.43.43,14.15.55.39.01.77.04,1.16.05,2.68.07,5.36.04,8.04.08,5.18.08,10.36.17,15.55.16,3.41-.01,6.81-.09,10.22-.14,4.83-.07,9.66-.13,14.48-.28.9-.03,1.8-.02,2.7-.05,2.27-.07,4.53-.25,6.8-.34,5.57-.24,11.14-.5,16.7-.84,3.38-.21,6.74-.45,10.11-.7,5.35-.39,10.68-.84,16.01-1.33,1.86-.17,3.74-.28,5.6-.47,1.3-.13,2.59-.33,3.89-.46,8.28-.86,16.52-1.84,24.73-2.95,1.36-.18,2.74-.33,4.11-.52,9.44-1.32,18.82-2.84,28.15-4.49.87-.15,1.76-.26,2.63-.42,2.48-.45,4.92-.98,7.39-1.46,4.36-.83,8.71-1.66,13.03-2.57,3.53-.74,7.03-1.52,10.53-2.3,4.25-.95,8.49-1.91,12.71-2.93,3.5-.85,6.97-1.74,10.44-2.63,4.16-1.07,8.31-2.17,12.42-3.31,3.45-.96,6.87-1.95,10.29-2.95,4.07-1.2,8.12-2.43,12.14-3.7,1.75-.55,3.55-1.05,5.29-1.61,1.26-.41,2.47-.89,3.72-1.3,7.3-2.42,14.51-4.94,21.63-7.59,1.48-.55,2.99-1.06,4.46-1.61,8.42-3.21,16.7-6.6,24.85-10.14,2.11-.91,4.18-1.88,6.27-2.82,6.25-2.8,12.41-5.7,18.47-8.7,2.27-1.13,4.54-2.23,6.79-3.39,7.78-3.99,15.46-8.09,22.9-12.41,2.05-1.19,4.07-2.39,6.07-3.59,1.88-1.13,3.62-2.31,5.46-3.45,3.05-1.89,6.09-3.79,9.03-5.72,2.7-1.77,5.33-3.58,7.94-5.37,2.84-1.96,5.66-3.92,8.4-5.91,2.52-1.83,4.97-3.69,7.4-5.55,2.64-2.02,5.26-4.05,7.8-6.1,2.34-1.89,4.61-3.8,6.86-5.71,2.44-2.08,4.84-4.16,7.18-6.26.95-.86,2-1.7,2.94-2.57.88-.81,1.62-1.66,2.48-2.48,3.92-3.7,7.67-7.44,11.28-11.22,1.21-1.27,2.47-2.52,3.64-3.79,4.57-4.96,8.89-9.98,12.91-15.06.17-.22.38-.42.54-.64.92-1.17,1.69-2.37,2.58-3.54,2.43-3.2,4.82-6.4,7.03-9.64,1.21-1.78,2.33-3.56,3.48-5.35,1.89-2.92,3.73-5.86,5.44-8.81.47-.81,1.03-1.6,1.49-2.41.68-1.21,1.23-2.43,1.88-3.65,1.33-2.47,2.62-4.95,3.84-7.44,1.03-2.1,2-4.21,2.94-6.32,1.12-2.5,2.17-5.01,3.17-7.52.45-1.13,1-2.24,1.42-3.37.38-1.02.65-2.05,1.01-3.06.85-2.4,1.64-4.8,2.38-7.21.68-2.19,1.33-4.38,1.93-6.58.65-2.41,1.22-4.83,1.76-7.24.29-1.31.69-2.62.96-3.93.18-.89.25-1.78.42-2.67.46-2.48.83-4.96,1.17-7.44.3-2.19.61-4.37.83-6.57.25-2.49.4-4.99.53-7.48.08-1.47.27-2.94.32-4.42.04-1.46.07-2.91.07-4.37l.9-315.97c0,2.93-.22,5.86-.38,8.79Z"/><path class="cls-4" d="m1560.51,1058.86c-.14,2.5-.29,4.99-.54,7.49-.22,2.19-.52,4.38-.83,6.57-.35,2.48-.72,4.96-1.17,7.44-.4,2.2-.88,4.4-1.37,6.59-.54,2.42-1.12,4.84-1.77,7.26-.59,2.2-1.25,4.4-1.92,6.58-.75,2.41-1.53,4.81-2.38,7.2-.76,2.14-1.58,4.29-2.43,6.42-1,2.52-2.06,5.04-3.18,7.55-.94,2.1-1.91,4.2-2.93,6.29-1.22,2.5-2.52,4.98-3.86,7.47-1.09,2.02-2.19,4.03-3.36,6.04-1.72,2.95-3.56,5.89-5.45,8.82-1.15,1.78-2.26,3.56-3.47,5.33-2.22,3.24-4.61,6.45-7.04,9.65-1.05,1.39-2.03,2.79-3.13,4.17-4.02,5.08-8.35,10.09-12.91,15.06-1.18,1.28-2.45,2.53-3.66,3.81-3.6,3.77-7.35,7.51-11.26,11.21-1.78,1.68-3.58,3.37-5.43,5.04-2.33,2.1-4.73,4.18-7.17,6.26-2.25,1.92-4.53,3.83-6.87,5.73-2.53,2.05-5.14,4.06-7.77,6.08-2.44,1.87-4.89,3.73-7.42,5.56-2.73,1.99-5.55,3.94-8.39,5.9-2.62,1.81-5.25,3.61-7.96,5.39-2.94,1.92-5.97,3.82-9.01,5.7-3.81,2.37-7.57,4.75-11.54,7.05-7.44,4.33-15.11,8.43-22.9,12.42-2.24,1.15-4.52,2.26-6.79,3.39-6.06,2.99-12.2,5.89-18.45,8.69-2.11.95-4.18,1.92-6.31,2.84-8.14,3.53-16.4,6.92-24.82,10.12-1.49.57-3.02,1.08-4.51,1.64-7.11,2.64-14.31,5.16-21.59,7.57-3,.99-6.01,1.97-9.04,2.92-4,1.26-8.03,2.49-12.08,3.68-3.44,1.01-6.88,2.01-10.35,2.97-4.11,1.14-8.24,2.23-12.39,3.3-3.48.9-6.95,1.79-10.46,2.63-4.21,1.02-8.45,1.99-12.69,2.93-3.51.78-7.02,1.57-10.56,2.31-4.31.9-8.65,1.73-12.99,2.56-3.35.64-6.69,1.29-10.06,1.88-9.32,1.65-18.7,3.16-28.14,4.49-1.36.19-2.74.34-4.11.52-8.21,1.11-16.46,2.09-24.73,2.95-3.16.33-6.32.63-9.48.93-5.34.49-10.69.94-16.05,1.34-3.34.24-6.69.49-10.04.69-5.59.35-11.2.62-16.81.85-3.13.13-6.26.29-9.39.39-4.85.15-9.71.21-14.57.28-3.39.05-6.77.13-10.16.14-5.18.02-10.35-.07-15.53-.16-3.08-.05-6.15-.04-9.22-.13-4.78-.13-9.56-.36-14.34-.56-3.28-.14-6.57-.23-9.84-.4-5.2-.28-10.38-.68-15.57-1.06-2.85-.21-5.71-.36-8.56-.59-6.25-.52-12.48-1.16-18.7-1.81-1.75-.18-3.52-.32-5.27-.52-7.96-.89-15.89-1.9-23.78-3.01-1.31-.18-2.59-.42-3.9-.61-6.75-.99-13.49-2.02-20.17-3.18-2.78-.48-5.53-1.04-8.3-1.55-5.17-.95-10.33-1.9-15.45-2.94-2.69-.55-5.34-1.17-8.02-1.75-5.58-1.2-11.16-2.44-16.68-3.76-3.11-.75-6.2-1.55-9.29-2.33-5.04-1.28-10.06-2.6-15.04-3.98-2.85-.79-5.69-1.61-8.52-2.43-7.93-2.31-15.78-4.74-23.53-7.31-1.37-.46-2.77-.87-4.14-1.34-8.9-3.02-17.65-6.24-26.29-9.61-1.84-.72-3.65-1.47-5.47-2.21-11.23-4.5-22.26-9.25-32.96-14.35-1.08-.52-2.12-1.07-3.2-1.59-11.2-5.43-22.15-11.11-32.69-17.2-73.59-42.48-119.55-94.93-137.84-149.82-6.1-18.3-9.12-36.86-9.07-55.43v.02-.02l-.9,315.97c-.21,74.24,48.79,148.59,146.91,205.25,10.54,6.08,21.48,11.77,32.68,17.19,1.08.53,2.13,1.08,3.21,1.59,10.7,5.1,21.73,9.85,32.96,14.35.99.39,1.92.87,2.92,1.27.84.33,1.72.61,2.56.94,8.64,3.36,17.38,6.59,26.29,9.61,1.37.47,2.77.88,4.14,1.34,7.75,2.57,15.6,5,23.53,7.31,1.32.38,2.59.84,3.91,1.21,1.52.43,3.09.79,4.61,1.22,4.98,1.38,10,2.7,15.04,3.98,3.09.79,6.17,1.59,9.29,2.33,5.52,1.32,11.09,2.56,16.68,3.76,2.11.46,4.18.99,6.29,1.42.57.12,1.15.21,1.73.33,5.07,1.04,10.19,1.98,15.31,2.92,2.83.52,5.63,1.09,8.47,1.58,6.66,1.15,13.36,2.18,20.07,3.16,1.26.18,2.51.42,3.77.59.07.01.13.02.2.03,7.89,1.12,15.82,2.12,23.78,3.01,1.82.2,3.65.34,5.48.54,6.15.65,12.29,1.28,18.47,1.79.16.01.31.03.47.04,2.85.24,5.71.38,8.57.58,5.03.36,10.05.75,15.1,1.03,3.35.18,6.7.27,10.06.42,4.72.2,9.43.43,14.15.55.39.01.77.04,1.16.05,2.68.07,5.36.04,8.04.08,5.18.08,10.36.17,15.55.16,3.41-.01,6.81-.09,10.22-.14,4.83-.07,9.66-.13,14.48-.28.9-.03,1.8-.02,2.7-.05,2.27-.07,4.53-.25,6.8-.34,5.57-.24,11.14-.5,16.7-.84,3.38-.2,6.74-.45,10.11-.7,5.35-.39,10.68-.84,16.01-1.33,1.86-.17,3.74-.28,5.6-.47,1.3-.13,2.59-.33,3.89-.46,8.28-.86,16.52-1.84,24.73-2.95,1.36-.18,2.74-.33,4.11-.52,9.44-1.32,18.82-2.84,28.15-4.49.87-.15,1.76-.26,2.63-.42,2.48-.45,4.92-.98,7.39-1.46,4.36-.83,8.71-1.66,13.03-2.57,3.53-.74,7.03-1.52,10.53-2.3,4.25-.95,8.49-1.91,12.71-2.93,3.5-.85,6.97-1.74,10.44-2.63,4.16-1.07,8.31-2.17,12.42-3.31,3.45-.96,6.87-1.95,10.29-2.95,4.07-1.2,8.12-2.43,12.14-3.7,1.75-.55,3.55-1.05,5.29-1.61,1.26-.41,2.47-.89,3.72-1.3,7.3-2.42,14.51-4.94,21.63-7.59,1.48-.55,2.99-1.06,4.46-1.61,8.42-3.21,16.7-6.6,24.85-10.14,2.11-.91,4.18-1.88,6.27-2.82,6.25-2.8,12.41-5.7,18.47-8.7,2.27-1.13,4.54-2.23,6.79-3.39,7.78-3.99,15.46-8.09,22.9-12.41,2.05-1.19,4.07-2.39,6.07-3.59,1.88-1.13,3.62-2.31,5.46-3.45,3.05-1.89,6.09-3.79,9.03-5.72,2.7-1.77,5.33-3.58,7.94-5.37,2.84-1.96,5.66-3.92,8.4-5.91,2.52-1.83,4.97-3.69,7.4-5.55,2.64-2.02,5.26-4.05,7.8-6.1,2.34-1.89,4.61-3.8,6.86-5.71,2.44-2.08,4.84-4.16,7.18-6.26.95-.86,2-1.7,2.94-2.57.88-.81,1.62-1.66,2.48-2.48,3.92-3.7,7.67-7.44,11.28-11.22,1.21-1.27,2.47-2.52,3.64-3.79,4.57-4.96,8.89-9.98,12.91-15.06.17-.22.38-.42.54-.64.92-1.17,1.69-2.37,2.58-3.54,2.43-3.2,4.82-6.4,7.03-9.64,1.21-1.78,2.33-3.56,3.48-5.35,1.89-2.92,3.73-5.86,5.44-8.81.47-.81,1.03-1.6,1.49-2.41.68-1.21,1.23-2.43,1.88-3.65,1.33-2.47,2.62-4.95,3.84-7.44,1.03-2.1,2-4.21,2.94-6.32,1.12-2.5,2.17-5.01,3.17-7.52.45-1.12,1-2.24,1.42-3.37.38-1.02.65-2.05,1.01-3.06.85-2.4,1.64-4.8,2.38-7.21.68-2.19,1.33-4.38,1.93-6.58.65-2.41,1.22-4.83,1.76-7.24.29-1.31.69-2.62.96-3.93.18-.89.25-1.78.42-2.67.46-2.48.83-4.96,1.17-7.44.3-2.19.61-4.37.83-6.57.25-2.49.4-4.99.53-7.48.08-1.47.27-2.94.32-4.42.04-1.46.07-2.91.07-4.37l.9-315.97c0,2.93-.22,5.86-.38,8.79Z"/><path class="cls-88" d="m1414,844.8c194.96,112.56,195.99,295.13,2.29,407.7-193.76,112.6-508.95,112.6-703.92.04-195.03-112.6-195.98-295.13-2.23-407.73,193.69-112.56,508.82-112.6,703.85,0Z"/><path class="cls-62" d="m1416.29,1244.97c-193.76,112.6-508.96,112.6-703.92.04-96.07-55.47-144.95-127.91-146.75-200.6-1.5,75.2,47.37,150.74,146.75,208.12,194.96,112.56,510.16,112.56,703.92-.04,98.27-57.11,146.32-132.23,144.45-207.09-1.44,72.35-49.47,144.38-144.45,199.57Z"/><path class="cls-31" d="m663.26,1334.62c-5.13-4.02-10.08-8.09-14.81-12.21v67.28c4.73,4.13,9.68,8.2,14.81,12.21v-67.28Z"/><path class="cls-25" d="m677.74,1412.7c4.41,3.13,9.02,6.19,13.68,9.24v-67.28c-4.67-3.04-9.28-6.11-13.68-9.24v67.28Z"/><path class="cls-38" d="m719.59,1371.58c-2.4-1.32-4.85-2.6-7.21-3.96-2.23-1.29-4.3-2.63-6.47-3.93v67.28c2.18,1.3,4.25,2.64,6.47,3.93,2.36,1.36,4.81,2.64,7.21,3.96v-67.28Z"/><path class="cls-37" d="m775.92,1398.44c-4.63-1.9-9.13-3.95-13.68-5.96v67.28c4.55,2,9.05,4.05,13.68,5.96v-67.28Z"/><path class="cls-26" d="m860.42,1426.62c-3.76-.97-7.52-1.94-11.24-2.98-.82-.23-1.62-.47-2.44-.7v67.28c.81.23,1.62.47,2.44.7,3.72,1.04,7.48,2,11.24,2.98v-67.28Z"/><path class="cls-12" d="m888.59,1433.36c-4.58-.99-9.15-2.01-13.68-3.09v67.28c4.53,1.08,9.1,2.1,13.68,3.09v-67.28Z"/><path class="cls-22" d="m832.25,1418.6c-4.58-1.39-9.17-2.77-13.68-4.25v67.28c4.52,1.49,9.11,2.86,13.68,4.25v-67.28Z"/><path class="cls-45" d="m804.09,1409.31c-4.58-1.64-9.17-3.26-13.68-5v67.28c4.51,1.72,9.1,3.36,13.68,4.99v-67.28Z"/><path class="cls-29" d="m747.76,1386.15c-.9-.44-1.78-.9-2.68-1.34-3.71-1.8-7.35-3.67-11-5.54v67.28c3.65,1.86,7.28,3.74,11,5.54.9.44,1.78.89,2.68,1.34v-67.28Z"/><path class="cls-33" d="m1029.42,1451.21c-.55-.02-1.11-.04-1.67-.06-3.28-.14-6.57-.23-9.84-.4-.73-.04-1.45-.11-2.17-.15v67.28c.72.04,1.44.11,2.17.15,3.28.18,6.56.27,9.84.4.56.03,1.11.04,1.67.07v-67.28Z"/><path class="cls-17" d="m916.75,1439c-1.03-.2-2.07-.39-3.1-.58-3.54-.65-7.06-1.34-10.58-2.01v67.28c3.52.68,7.04,1.36,10.58,2.01,1.03.19,2.07.38,3.1.58v-67.28Z"/><path class="cls-10" d="m944.92,1443.58c-.93-.15-1.86-.29-2.8-.44-3.64-.53-7.26-1.14-10.88-1.71v67.28c3.63.57,7.24,1.18,10.88,1.71.94.14,1.87.29,2.8.44v-67.28Z"/><path class="cls-48" d="m1001.25,1449.62c-2.49-.17-4.99-.32-7.48-.52-2.07-.17-4.13-.4-6.2-.6v67.28c2.07.19,4.13.43,6.2.6,2.49.2,4.98.35,7.48.52v-67.28Z"/><path class="cls-40" d="m973.09,1447.09c-1.09-.1-2.19-.2-3.28-.32-3.48-.39-6.93-.88-10.4-1.31v67.27c3.47.44,6.92.93,10.4,1.32,1.09.12,2.19.22,3.28.32v-67.28Z"/><path class="cls-55" d="m1517.9,1253.01v126.09l-18.73-14.65v-89.58c1.19-1.29,2.48-2.48,3.66-3.77,4.52-4.95,8.83-10.02,12.81-15.07.86-.97,1.51-1.94,2.26-3.02Z"/><path class="cls-101" d="m1517.9,1379.1c-.75.97-1.4,1.93-2.26,2.9-3.99,5.17-8.29,10.13-12.81,15.08-1.19,1.29-2.48,2.58-3.66,3.87-3.66,3.77-7.43,7.43-11.31,11.2-1.83,1.61-3.55,3.34-5.38,4.95-2.37,2.15-4.74,4.2-7.21,6.35-2.26,1.83-4.52,3.77-6.89,5.71-2.48,2.05-5.17,4.09-7.75,6.03-2.48,1.93-4.95,3.76-7.43,5.59-2.69,1.94-5.6,3.98-8.4,5.92-2.58,1.83-5.27,3.55-7.96,5.38-2.91,1.94-5.92,3.77-9.05,5.7-3.77,2.37-7.54,4.74-11.52,7-7.43,4.31-15.07,8.4-22.83,12.49-2.26,1.08-4.52,2.26-6.78,3.34-6.14,3.02-12.28,5.92-18.52,8.72-2.05.86-4.2,1.83-6.25,2.8-8.18,3.55-16.47,6.89-24.87,10.12-1.51.54-3.02,1.08-4.52,1.62-7.11,2.69-14.32,5.17-21.53,7.64-3.02.97-6.03,1.93-9.05,2.91-3.12.97-6.35,1.94-9.47,2.91v-20.57c7.11-2.26,14.32-4.85,21.32-7.43,1.51-.54,3.02-1.08,4.52-1.61,8.4-3.23,16.69-6.68,24.76-10.12,2.15-.97,4.31-1.94,6.35-2.91,6.25-2.8,12.38-5.71,18.41-8.72,2.26-1.08,4.63-2.16,6.78-3.34,7.86-3.99,15.51-8.08,22.94-12.38,3.98-2.37,7.75-4.74,11.52-7.11,3.12-1.83,6.14-3.77,9.04-5.7,2.69-1.72,5.38-3.55,7.97-5.38,2.8-1.94,5.6-3.88,8.4-5.93,2.48-1.83,4.95-3.66,7.43-5.49,2.59-2.05,5.17-4.1,7.75-6.14,2.37-1.83,4.63-3.77,6.89-5.7,2.37-2.05,4.84-4.09,7.11-6.25,1.83-1.61,3.66-3.34,5.49-5.06,3.87-3.66,7.64-7.43,11.2-11.2,1.29-1.29,2.48-2.48,3.66-3.77,4.63-4.95,8.94-10.02,12.92-15.07.75-.97,1.51-2.05,2.26-3.02l18.73,14.65Z"/><path class="cls-58" d="m1499.16,1274.87v89.58c-.75.97-1.51,2.05-2.26,3.02-3.98,5.06-8.29,10.12-12.92,15.07-1.19,1.29-2.37,2.48-3.66,3.77-3.55,3.76-7.32,7.53-11.2,11.2-1.83,1.72-3.66,3.44-5.49,5.06-2.26,2.16-4.74,4.2-7.11,6.25-2.26,1.93-4.52,3.87-6.89,5.7-2.59,2.05-5.17,4.1-7.75,6.14-2.48,1.83-4.95,3.66-7.43,5.49-2.8,2.05-5.6,3.99-8.4,5.93-2.59,1.83-5.28,3.66-7.97,5.38-2.91,1.93-5.92,3.87-9.04,5.7-3.77,2.37-7.54,4.74-11.52,7.11-7.43,4.31-15.08,8.4-22.94,12.38-2.15,1.18-4.52,2.26-6.78,3.34-6.03,3.01-12.17,5.92-18.41,8.72-2.05.97-4.2,1.93-6.35,2.91-8.08,3.44-16.37,6.89-24.76,10.12-1.51.54-3.01,1.07-4.52,1.61-7,2.58-14.21,5.17-21.32,7.43v-105.52c3.12-.97,6.35-1.83,9.47-2.91,3.02-.97,6.03-1.94,9.05-2.91,7.22-2.37,14.43-4.95,21.53-7.54,1.51-.54,3.02-1.08,4.52-1.61,8.4-3.23,16.69-6.68,24.87-10.12,2.05-.97,4.2-1.94,6.25-2.91,6.24-2.8,12.38-5.7,18.52-8.62,2.26-1.18,4.52-2.26,6.78-3.44,7.75-3.99,15.4-8.08,22.83-12.38,3.99-2.37,7.75-4.74,11.52-7.11,3.12-1.83,6.14-3.76,9.05-5.7,2.69-1.72,5.38-3.55,7.96-5.38,2.8-1.94,5.71-3.87,8.4-5.81,2.48-1.94,4.96-3.77,7.43-5.6,2.58-2.05,5.27-4.09,7.75-6.14,2.37-1.83,4.63-3.76,6.89-5.7,2.48-2.05,4.84-4.09,7.21-6.25,1.83-1.61,3.55-3.34,5.38-5.06,3.88-3.66,7.64-7.43,11.31-11.2Z"/><path class="cls-73" d="m1389.84,1399.75c-1.06.54-2.13,1.07-3.19,1.62-6.14,2.91-12.28,5.81-18.52,8.61-2.05.97-4.2,1.95-6.25,2.91-1.43.6-2.9,1.17-4.34,1.77v31.02c1.44-.6,2.91-1.17,4.34-1.77,2.05-.97,4.2-1.95,6.25-2.91,6.24-2.8,12.38-5.7,18.52-8.61,1.06-.56,2.13-1.09,3.19-1.62v-31.02Z"/><path class="cls-85" d="m1342.36,1420.84c-1.8.71-3.54,1.48-5.35,2.18-1.51.54-3.02,1.08-4.52,1.62-7.11,2.59-14.32,5.16-21.53,7.54-1.4.45-2.8.9-4.2,1.35v31.02c1.4-.45,2.8-.9,4.2-1.35,7.22-2.38,14.43-4.95,21.53-7.54,1.51-.54,3.02-1.08,4.52-1.62,1.81-.69,3.56-1.47,5.35-2.18v-31.02Z"/><path class="cls-100" d="m1437.31,1372.41c-.16.11-.32.22-.48.33-2.91,1.95-5.92,3.88-9.05,5.71-3.77,2.37-7.54,4.73-11.52,7.11-3.66,2.12-7.49,4.07-11.25,6.1v31.02c3.75-2.03,7.59-3.98,11.25-6.1,3.99-2.38,7.75-4.74,11.52-7.11,3.12-1.83,6.14-3.76,9.05-5.71.16-.11.32-.22.48-.33v-31.02Z"/><path class="cls-81" d="m1475.26,1344.09c-2.26,1.95-4.52,3.88-6.89,5.71-2.48,2.05-5.17,4.09-7.75,6.14-2.48,1.83-4.95,3.66-7.43,5.59-.23.16-.48.33-.7.49v31.02c.23-.16.48-.33.7-.49,2.48-1.93,4.96-3.76,7.43-5.59,2.58-2.05,5.27-4.09,7.75-6.14,2.37-1.83,4.63-3.76,6.89-5.71,2.14-1.76,4.18-3.55,6.22-5.39v-31.02c-2.05,1.83-4.08,3.63-6.22,5.39Z"/><path class="cls-75" d="m1560.51,680.83c-.14,2.5-.29,4.99-.54,7.49-.22,2.19-.52,4.38-.83,6.57-.35,2.48-.72,4.96-1.17,7.44-.4,2.2-.88,4.4-1.37,6.59-.54,2.42-1.12,4.84-1.77,7.26-.59,2.2-1.25,4.4-1.92,6.58-.75,2.41-1.53,4.81-2.38,7.2-.76,2.15-1.58,4.29-2.43,6.42-1,2.52-2.06,5.04-3.18,7.55-.94,2.1-1.91,4.2-2.93,6.29-1.22,2.5-2.52,4.98-3.86,7.47-1.09,2.02-2.19,4.03-3.36,6.04-1.72,2.95-3.56,5.89-5.45,8.82-1.15,1.78-2.26,3.56-3.47,5.33-2.22,3.24-4.61,6.45-7.04,9.65-1.05,1.39-2.03,2.79-3.13,4.17-4.02,5.08-8.35,10.09-12.91,15.06-1.18,1.28-2.45,2.53-3.66,3.81-3.6,3.77-7.35,7.51-11.26,11.21-1.78,1.68-3.58,3.37-5.43,5.04-2.33,2.1-4.73,4.18-7.17,6.26-2.25,1.92-4.53,3.83-6.87,5.73-2.53,2.05-5.14,4.06-7.77,6.08-2.44,1.87-4.89,3.73-7.42,5.56-2.73,1.99-5.55,3.94-8.39,5.9-2.62,1.81-5.25,3.61-7.96,5.39-2.94,1.92-5.97,3.82-9.01,5.7-3.81,2.37-7.57,4.75-11.54,7.05-7.44,4.33-15.11,8.43-22.9,12.42-2.24,1.15-4.52,2.26-6.79,3.39-6.06,2.99-12.2,5.89-18.45,8.69-2.11.95-4.18,1.92-6.31,2.84-8.14,3.53-16.4,6.92-24.82,10.12-1.49.57-3.02,1.08-4.51,1.64-7.11,2.64-14.31,5.16-21.59,7.57-3,.99-6.01,1.97-9.04,2.92-4,1.26-8.03,2.49-12.08,3.68-3.44,1.01-6.88,2.01-10.35,2.97-4.11,1.14-8.24,2.23-12.39,3.3-3.48.9-6.95,1.79-10.46,2.63-4.21,1.02-8.45,1.99-12.69,2.93-3.51.78-7.02,1.57-10.56,2.31-4.31.9-8.65,1.73-12.99,2.56-3.35.64-6.69,1.29-10.06,1.88-9.32,1.65-18.7,3.16-28.14,4.49-1.36.19-2.74.34-4.11.52-8.21,1.11-16.46,2.09-24.73,2.95-3.16.33-6.32.63-9.48.93-5.34.49-10.69.94-16.05,1.34-3.34.24-6.69.49-10.04.69-5.59.35-11.2.62-16.81.85-3.13.13-6.26.29-9.39.39-4.85.15-9.71.21-14.57.28-3.39.05-6.77.13-10.16.14-5.18.02-10.35-.07-15.53-.16-3.08-.05-6.15-.04-9.22-.13-4.78-.13-9.56-.36-14.34-.56-3.28-.14-6.57-.23-9.84-.4-5.2-.28-10.38-.68-15.57-1.06-2.85-.21-5.71-.36-8.56-.59-6.25-.52-12.48-1.16-18.7-1.81-1.75-.18-3.52-.32-5.27-.52-7.96-.89-15.89-1.9-23.78-3.01-1.31-.18-2.59-.42-3.9-.61-6.75-.99-13.49-2.02-20.17-3.18-2.78-.48-5.53-1.04-8.3-1.55-5.17-.95-10.33-1.9-15.45-2.94-2.69-.55-5.34-1.17-8.02-1.75-5.58-1.2-11.16-2.44-16.68-3.76-3.11-.75-6.2-1.55-9.29-2.33-5.04-1.28-10.06-2.6-15.04-3.98-2.85-.79-5.69-1.61-8.52-2.43-7.93-2.31-15.78-4.74-23.53-7.31-1.37-.46-2.77-.87-4.14-1.34-8.9-3.02-17.65-6.24-26.29-9.61-1.84-.72-3.65-1.47-5.47-2.21-11.23-4.5-22.26-9.25-32.96-14.35-1.08-.52-2.12-1.07-3.2-1.59-11.2-5.43-22.15-11.11-32.69-17.2-73.59-42.48-119.55-94.93-137.84-149.82-6.1-18.3-9.12-36.86-9.07-55.43v.02-.02l-.9,315.97c-.21,74.24,48.79,148.59,146.91,205.25,10.54,6.08,21.48,11.77,32.68,17.19,1.08.53,2.13,1.08,3.21,1.59,10.7,5.1,21.73,9.85,32.96,14.35.99.39,1.92.87,2.92,1.27.84.33,1.72.61,2.56.94,8.64,3.36,17.38,6.59,26.29,9.61,1.37.47,2.77.88,4.14,1.34,7.75,2.57,15.6,5,23.53,7.31,1.32.38,2.59.84,3.91,1.21,1.52.43,3.09.79,4.61,1.22,4.98,1.38,10,2.7,15.04,3.98,3.09.79,6.17,1.59,9.29,2.33,5.52,1.32,11.09,2.56,16.68,3.76,2.11.46,4.18.99,6.29,1.42.57.12,1.15.21,1.73.33,5.07,1.04,10.19,1.98,15.31,2.92,2.83.52,5.63,1.09,8.47,1.58,6.66,1.15,13.36,2.18,20.07,3.16,1.26.18,2.51.42,3.77.59.07.01.13.02.2.03,7.89,1.12,15.82,2.12,23.78,3.01,1.82.2,3.65.34,5.48.54,6.15.65,12.29,1.28,18.47,1.79.16.01.31.03.47.04,2.85.24,5.71.38,8.57.58,5.03.36,10.05.75,15.1,1.03,3.35.18,6.7.27,10.06.42,4.72.2,9.43.43,14.15.55.39.01.77.04,1.16.05,2.68.07,5.36.04,8.04.08,5.18.08,10.36.17,15.55.16,3.41-.01,6.81-.09,10.22-.14,4.83-.07,9.66-.13,14.48-.28.9-.03,1.8-.02,2.7-.05,2.27-.07,4.53-.25,6.8-.34,5.57-.24,11.14-.5,16.7-.84,3.38-.2,6.74-.45,10.11-.7,5.35-.39,10.68-.84,16.01-1.33,1.86-.17,3.74-.28,5.6-.47,1.3-.13,2.59-.33,3.89-.46,8.28-.86,16.52-1.84,24.73-2.95,1.36-.18,2.74-.33,4.11-.52,9.44-1.32,18.82-2.84,28.15-4.49.87-.15,1.76-.26,2.63-.42,2.48-.45,4.92-.98,7.39-1.46,4.36-.83,8.71-1.66,13.03-2.57,3.53-.74,7.03-1.52,10.53-2.3,4.25-.95,8.49-1.91,12.71-2.93,3.5-.85,6.97-1.74,10.44-2.63,4.16-1.07,8.31-2.17,12.42-3.31,3.45-.96,6.87-1.95,10.29-2.95,4.07-1.2,8.12-2.43,12.14-3.7,1.75-.55,3.55-1.05,5.29-1.61,1.26-.41,2.47-.89,3.72-1.3,7.3-2.42,14.51-4.94,21.63-7.59,1.48-.55,2.99-1.06,4.46-1.61,8.42-3.21,16.7-6.6,24.85-10.14,2.11-.91,4.18-1.88,6.27-2.82,6.25-2.8,12.41-5.7,18.47-8.7,2.27-1.12,4.54-2.23,6.79-3.39,7.78-3.99,15.46-8.09,22.9-12.41,2.05-1.19,4.07-2.39,6.07-3.59,1.88-1.13,3.62-2.31,5.46-3.45,3.05-1.89,6.09-3.79,9.03-5.72,2.7-1.77,5.33-3.58,7.94-5.37,2.84-1.96,5.66-3.92,8.4-5.91,2.52-1.83,4.97-3.69,7.4-5.55,2.64-2.02,5.26-4.05,7.8-6.1,2.34-1.89,4.61-3.8,6.86-5.71,2.44-2.08,4.84-4.16,7.18-6.26.95-.86,2-1.7,2.94-2.57.88-.81,1.62-1.66,2.48-2.48,3.92-3.7,7.67-7.44,11.28-11.22,1.21-1.27,2.47-2.52,3.64-3.79,4.57-4.96,8.89-9.98,12.91-15.06.17-.22.38-.42.54-.64.92-1.17,1.69-2.37,2.58-3.54,2.43-3.2,4.82-6.4,7.03-9.64,1.21-1.78,2.33-3.56,3.48-5.35,1.89-2.92,3.73-5.86,5.44-8.81.47-.81,1.03-1.6,1.49-2.41.68-1.21,1.23-2.43,1.88-3.65,1.33-2.47,2.62-4.95,3.84-7.44,1.03-2.1,2-4.21,2.94-6.32,1.12-2.5,2.17-5.01,3.17-7.52.45-1.13,1-2.24,1.42-3.37.38-1.02.65-2.05,1.01-3.06.85-2.4,1.64-4.8,2.38-7.21.68-2.19,1.33-4.38,1.93-6.58.65-2.41,1.22-4.83,1.76-7.24.29-1.31.69-2.62.96-3.93.18-.89.25-1.78.42-2.67.46-2.48.83-4.96,1.17-7.44.3-2.19.61-4.37.83-6.57.25-2.49.4-4.99.53-7.48.08-1.47.27-2.94.32-4.42.04-1.46.07-2.91.07-4.37l.9-315.97c0,2.93-.22,5.86-.38,8.79Z"/><path class="cls-106" d="m1560.51,678.67c-.14,2.5-.29,4.99-.54,7.49-.22,2.19-.52,4.38-.83,6.57-.35,2.48-.72,4.96-1.17,7.44-.4,2.2-.88,4.4-1.37,6.59-.54,2.42-1.12,4.84-1.77,7.26-.59,2.2-1.25,4.4-1.92,6.58-.75,2.41-1.53,4.81-2.38,7.2-.76,2.15-1.58,4.29-2.43,6.42-1,2.52-2.06,5.04-3.18,7.55-.94,2.1-1.91,4.2-2.93,6.29-1.22,2.5-2.52,4.98-3.86,7.47-1.09,2.02-2.19,4.03-3.36,6.04-1.72,2.95-3.56,5.89-5.45,8.82-1.15,1.78-2.26,3.56-3.47,5.33-2.22,3.24-4.61,6.45-7.04,9.65-1.05,1.39-2.03,2.79-3.13,4.17-4.02,5.08-8.35,10.09-12.91,15.06-1.18,1.28-2.45,2.53-3.66,3.81-3.6,3.77-7.35,7.51-11.26,11.21-1.78,1.68-3.58,3.37-5.43,5.04-2.33,2.1-4.73,4.18-7.17,6.26-2.25,1.92-4.53,3.83-6.87,5.73-2.53,2.05-5.14,4.06-7.77,6.08-2.44,1.87-4.89,3.73-7.42,5.56-2.73,1.99-5.55,3.94-8.39,5.9-2.62,1.81-5.25,3.61-7.96,5.39-2.94,1.92-5.97,3.82-9.01,5.7-3.81,2.37-7.57,4.75-11.54,7.05-7.44,4.33-15.11,8.43-22.9,12.42-2.24,1.15-4.52,2.26-6.79,3.39-6.06,2.99-12.2,5.89-18.45,8.69-2.11.95-4.18,1.92-6.31,2.84-8.14,3.53-16.4,6.92-24.82,10.12-1.49.57-3.02,1.08-4.51,1.64-7.11,2.64-14.31,5.16-21.59,7.57-3,.99-6.01,1.97-9.04,2.92-4,1.26-8.03,2.49-12.08,3.68-3.44,1.01-6.88,2.01-10.35,2.97-4.11,1.14-8.24,2.23-12.39,3.3-3.48.9-6.95,1.79-10.46,2.63-4.21,1.02-8.45,1.99-12.69,2.93-3.51.78-7.02,1.57-10.56,2.31-4.31.9-8.65,1.74-12.99,2.56-3.35.64-6.69,1.29-10.06,1.88-9.32,1.65-18.7,3.16-28.14,4.49-1.36.19-2.74.34-4.11.52-8.21,1.11-16.46,2.09-24.73,2.95-3.16.33-6.32.63-9.48.93-5.34.49-10.69.94-16.05,1.34-3.34.24-6.69.49-10.04.69-5.59.35-11.2.62-16.81.85-3.13.13-6.26.29-9.39.39-4.85.15-9.71.21-14.57.28-3.39.05-6.77.13-10.16.14-5.18.02-10.35-.07-15.53-.16-3.08-.05-6.15-.04-9.22-.13-4.78-.13-9.56-.36-14.34-.56-3.28-.14-6.57-.23-9.84-.4-5.2-.28-10.38-.68-15.57-1.06-2.85-.21-5.71-.36-8.56-.59-6.25-.52-12.48-1.16-18.7-1.81-1.75-.18-3.52-.32-5.27-.52-7.96-.89-15.89-1.9-23.78-3.01-1.31-.18-2.59-.42-3.9-.61-6.75-.99-13.49-2.02-20.17-3.18-2.78-.48-5.53-1.04-8.3-1.55-5.17-.95-10.33-1.9-15.45-2.94-2.69-.55-5.34-1.17-8.02-1.75-5.58-1.2-11.16-2.44-16.68-3.76-3.11-.75-6.2-1.55-9.29-2.33-5.04-1.28-10.06-2.6-15.04-3.98-2.85-.79-5.69-1.61-8.52-2.43-7.93-2.31-15.78-4.74-23.53-7.31-1.37-.46-2.77-.87-4.14-1.34-8.9-3.02-17.65-6.24-26.29-9.61-1.84-.72-3.65-1.47-5.47-2.21-11.23-4.5-22.26-9.25-32.96-14.35-1.08-.52-2.12-1.07-3.2-1.59-11.2-5.43-22.15-11.11-32.69-17.2-73.59-42.48-119.55-94.93-137.84-149.82-6.1-18.3-9.12-36.86-9.07-55.43v.02-.02l-.9,315.97c-.21,74.24,48.79,148.59,146.91,205.25,10.54,6.08,21.48,11.77,32.68,17.19,1.08.53,2.13,1.08,3.21,1.59,10.7,5.1,21.73,9.85,32.96,14.35.99.39,1.92.87,2.92,1.27.84.33,1.72.61,2.56.94,8.64,3.36,17.38,6.59,26.29,9.61,1.37.47,2.77.88,4.14,1.34,7.75,2.57,15.6,5,23.53,7.31,1.32.38,2.59.84,3.91,1.21,1.52.43,3.09.79,4.61,1.22,4.98,1.38,10,2.7,15.04,3.98,3.09.79,6.17,1.59,9.29,2.33,5.52,1.32,11.09,2.56,16.68,3.76,2.11.46,4.18.99,6.29,1.42.57.12,1.15.21,1.73.33,5.07,1.04,10.19,1.98,15.31,2.92,2.83.52,5.63,1.09,8.47,1.58,6.66,1.15,13.36,2.18,20.07,3.17,1.26.18,2.51.42,3.77.59.07.01.13.02.2.03,7.89,1.12,15.82,2.12,23.78,3.01,1.82.21,3.65.34,5.48.54,6.15.65,12.29,1.28,18.47,1.79.16.01.31.03.47.04,2.85.24,5.71.38,8.57.58,5.03.36,10.05.75,15.1,1.03,3.35.18,6.7.27,10.06.42,4.72.2,9.43.43,14.15.55.39.01.77.04,1.16.05,2.68.07,5.36.04,8.04.08,5.18.08,10.36.17,15.55.16,3.41-.01,6.81-.09,10.22-.14,4.83-.07,9.66-.13,14.48-.28.9-.03,1.8-.02,2.7-.05,2.27-.07,4.53-.25,6.8-.34,5.57-.24,11.14-.5,16.7-.84,3.38-.2,6.74-.45,10.11-.7,5.35-.39,10.68-.84,16.01-1.33,1.86-.17,3.74-.28,5.6-.47,1.3-.13,2.59-.33,3.89-.46,8.28-.86,16.52-1.84,24.73-2.95,1.36-.18,2.74-.33,4.11-.52,9.44-1.32,18.82-2.84,28.15-4.49.87-.15,1.76-.26,2.63-.42,2.48-.45,4.92-.98,7.39-1.46,4.36-.83,8.71-1.66,13.03-2.57,3.53-.74,7.03-1.52,10.53-2.3,4.25-.95,8.49-1.91,12.71-2.93,3.5-.85,6.97-1.74,10.44-2.63,4.16-1.07,8.31-2.17,12.42-3.31,3.45-.96,6.87-1.95,10.29-2.95,4.07-1.2,8.12-2.43,12.14-3.7,1.75-.55,3.55-1.05,5.29-1.61,1.26-.41,2.47-.89,3.72-1.3,7.3-2.42,14.51-4.94,21.63-7.59,1.48-.55,2.99-1.06,4.46-1.61,8.42-3.21,16.7-6.6,24.85-10.14,2.11-.91,4.18-1.88,6.27-2.82,6.25-2.8,12.41-5.7,18.47-8.7,2.27-1.13,4.54-2.23,6.79-3.39,7.78-3.99,15.46-8.09,22.9-12.41,2.05-1.19,4.07-2.39,6.07-3.59,1.88-1.13,3.62-2.31,5.46-3.45,3.05-1.89,6.09-3.79,9.03-5.72,2.7-1.77,5.33-3.57,7.94-5.37,2.84-1.96,5.66-3.92,8.4-5.91,2.52-1.83,4.97-3.69,7.4-5.55,2.64-2.02,5.26-4.05,7.8-6.1,2.34-1.89,4.61-3.8,6.86-5.71,2.44-2.08,4.84-4.16,7.18-6.26.95-.86,2-1.7,2.94-2.57.88-.81,1.62-1.66,2.48-2.48,3.92-3.7,7.67-7.44,11.28-11.22,1.21-1.27,2.47-2.52,3.64-3.79,4.57-4.96,8.89-9.98,12.91-15.06.17-.22.38-.42.54-.64.92-1.17,1.69-2.37,2.58-3.54,2.43-3.2,4.82-6.4,7.03-9.64,1.21-1.78,2.33-3.56,3.48-5.35,1.89-2.92,3.73-5.86,5.44-8.81.47-.81,1.03-1.6,1.49-2.41.68-1.21,1.23-2.43,1.88-3.65,1.33-2.47,2.62-4.95,3.84-7.44,1.03-2.1,2-4.21,2.94-6.32,1.12-2.5,2.17-5.01,3.17-7.52.45-1.13,1-2.24,1.42-3.37.38-1.02.65-2.05,1.01-3.06.85-2.4,1.64-4.8,2.38-7.21.68-2.19,1.33-4.38,1.93-6.58.65-2.41,1.22-4.83,1.76-7.24.29-1.31.69-2.62.96-3.93.18-.89.25-1.78.42-2.67.46-2.48.83-4.96,1.17-7.44.3-2.19.61-4.37.83-6.57.25-2.49.4-4.99.53-7.48.08-1.47.27-2.94.32-4.42.04-1.46.07-2.91.07-4.37l.9-315.97c0,2.93-.22,5.86-.38,8.78Z"/><path class="cls-95" d="m1414,464.62c194.96,112.56,195.99,295.13,2.29,407.7-193.76,112.6-508.95,112.6-703.92.04-195.03-112.6-195.98-295.13-2.23-407.73,193.69-112.56,508.82-112.6,703.85,0Z"/><path class="cls-62" d="m1416.29,864.79c-193.76,112.6-508.96,112.6-703.92.04-96.07-55.47-144.95-127.91-146.75-200.6-1.5,75.2,47.37,150.74,146.75,208.12,194.96,112.56,510.16,112.56,703.92-.04,98.27-57.11,146.32-132.23,144.45-207.09-1.44,72.35-49.47,144.38-144.45,199.57Z"/><path class="cls-44" d="m663.26,954.43c-5.13-4.02-10.08-8.09-14.81-12.21v67.28c4.73,4.13,9.68,8.2,14.81,12.21v-67.28Z"/><path class="cls-30" d="m677.74,1032.52c4.41,3.13,9.02,6.19,13.68,9.24v-67.28c-4.67-3.04-9.28-6.11-13.68-9.24v67.28Z"/><path class="cls-34" d="m719.59,991.39c-2.4-1.32-4.85-2.6-7.21-3.96-2.23-1.29-4.3-2.63-6.47-3.93v67.28c2.18,1.3,4.25,2.64,6.47,3.93,2.36,1.36,4.81,2.64,7.21,3.96v-67.28Z"/><path class="cls-13" d="m775.92,1018.26c-4.63-1.9-9.13-3.95-13.68-5.96v67.28c4.55,2,9.05,4.05,13.68,5.96v-67.28Z"/><path class="cls-27" d="m860.42,1046.44c-3.76-.97-7.52-1.94-11.24-2.98-.82-.23-1.62-.47-2.44-.7v67.28c.81.23,1.62.47,2.44.7,3.72,1.04,7.48,2,11.24,2.98v-67.28Z"/><path class="cls-11" d="m888.59,1053.18c-4.58-.99-9.15-2.01-13.68-3.09v67.28c4.53,1.08,9.1,2.1,13.68,3.09v-67.28Z"/><path class="cls-39" d="m832.25,1038.41c-4.58-1.39-9.17-2.77-13.68-4.25v67.28c4.52,1.49,9.11,2.86,13.68,4.25v-67.28Z"/><path class="cls-46" d="m804.09,1029.12c-4.58-1.64-9.17-3.26-13.68-5v67.28c4.51,1.72,9.1,3.36,13.68,4.99v-67.28Z"/><path class="cls-16" d="m747.76,1005.96c-.9-.44-1.78-.9-2.68-1.34-3.71-1.8-7.35-3.67-11-5.54v67.28c3.65,1.86,7.28,3.74,11,5.54.9.44,1.78.89,2.68,1.34v-67.28Z"/><path class="cls-18" d="m1029.42,1071.03c-.55-.02-1.11-.04-1.67-.06-3.28-.14-6.57-.23-9.84-.4-.73-.04-1.45-.11-2.17-.15v67.28c.72.04,1.44.11,2.17.15,3.28.18,6.56.27,9.84.4.56.03,1.11.04,1.67.07v-67.28Z"/><path class="cls-15" d="m916.75,1058.81c-1.03-.2-2.07-.39-3.1-.58-3.54-.65-7.06-1.34-10.58-2.01v67.28c3.52.68,7.04,1.36,10.58,2.01,1.03.19,2.07.38,3.1.58v-67.28Z"/><path class="cls-35" d="m944.92,1063.4c-.93-.15-1.86-.29-2.8-.44-3.64-.53-7.26-1.14-10.88-1.71v67.28c3.63.57,7.24,1.18,10.88,1.71.94.14,1.87.29,2.8.44v-67.28Z"/><path class="cls-43" d="m1001.25,1069.43c-2.49-.17-4.99-.32-7.48-.52-2.07-.17-4.13-.4-6.2-.6v67.28c2.07.19,4.13.43,6.2.6,2.49.2,4.98.35,7.48.52v-67.28Z"/><path class="cls-49" d="m973.09,1066.9c-1.09-.1-2.19-.2-3.28-.32-3.48-.39-6.93-.88-10.4-1.31v67.27c3.47.44,6.92.93,10.4,1.32,1.09.12,2.19.22,3.28.32v-67.28Z"/><path class="cls-87" d="m1517.9,872.83v126.09l-18.73-14.65v-89.58c1.19-1.29,2.48-2.48,3.66-3.77,4.52-4.95,8.83-10.02,12.81-15.07.86-.97,1.51-1.94,2.26-3.02Z"/><path class="cls-52" d="m1517.9,998.91c-.75.97-1.4,1.93-2.26,2.9-3.99,5.17-8.29,10.13-12.81,15.08-1.19,1.29-2.48,2.58-3.66,3.87-3.66,3.77-7.43,7.43-11.31,11.2-1.83,1.61-3.55,3.34-5.38,4.95-2.37,2.15-4.74,4.2-7.21,6.35-2.26,1.83-4.52,3.77-6.89,5.71-2.48,2.05-5.17,4.09-7.75,6.03-2.48,1.93-4.95,3.76-7.43,5.59-2.69,1.94-5.6,3.99-8.4,5.93-2.58,1.83-5.27,3.55-7.96,5.38-2.91,1.94-5.92,3.77-9.05,5.7-3.77,2.37-7.54,4.74-11.52,7-7.43,4.31-15.07,8.4-22.83,12.49-2.26,1.08-4.52,2.26-6.78,3.34-6.14,3.02-12.28,5.92-18.52,8.72-2.05.86-4.2,1.83-6.25,2.8-8.18,3.55-16.47,6.89-24.87,10.12-1.51.54-3.02,1.08-4.52,1.62-7.11,2.69-14.32,5.17-21.53,7.64-3.02.97-6.03,1.93-9.05,2.91-3.12.97-6.35,1.94-9.47,2.91v-20.57c7.11-2.26,14.32-4.85,21.32-7.43,1.51-.54,3.02-1.08,4.52-1.61,8.4-3.23,16.69-6.68,24.76-10.12,2.15-.97,4.31-1.94,6.35-2.91,6.25-2.8,12.38-5.71,18.41-8.72,2.26-1.08,4.63-2.16,6.78-3.34,7.86-3.99,15.51-8.08,22.94-12.38,3.98-2.37,7.75-4.74,11.52-7.11,3.12-1.83,6.14-3.77,9.04-5.7,2.69-1.72,5.38-3.55,7.97-5.38,2.8-1.94,5.6-3.88,8.4-5.93,2.48-1.83,4.95-3.66,7.43-5.49,2.59-2.05,5.17-4.1,7.75-6.14,2.37-1.83,4.63-3.77,6.89-5.7,2.37-2.05,4.84-4.09,7.11-6.25,1.83-1.61,3.66-3.34,5.49-5.06,3.87-3.66,7.64-7.43,11.2-11.2,1.29-1.29,2.48-2.48,3.66-3.77,4.63-4.95,8.94-10.02,12.92-15.07.75-.97,1.51-2.05,2.26-3.02l18.73,14.65Z"/><path class="cls-103" d="m1499.16,894.69v89.58c-.75.97-1.51,2.05-2.26,3.02-3.98,5.06-8.29,10.12-12.92,15.07-1.19,1.29-2.37,2.48-3.66,3.77-3.55,3.76-7.32,7.53-11.2,11.2-1.83,1.72-3.66,3.44-5.49,5.06-2.26,2.16-4.74,4.2-7.11,6.25-2.26,1.93-4.52,3.87-6.89,5.7-2.59,2.05-5.17,4.1-7.75,6.14-2.48,1.83-4.95,3.66-7.43,5.49-2.8,2.05-5.6,3.99-8.4,5.93-2.59,1.83-5.28,3.66-7.97,5.38-2.91,1.93-5.92,3.87-9.04,5.7-3.77,2.37-7.54,4.74-11.52,7.11-7.43,4.31-15.08,8.4-22.94,12.38-2.15,1.18-4.52,2.26-6.78,3.34-6.03,3.01-12.17,5.92-18.41,8.72-2.05.97-4.2,1.93-6.35,2.91-8.08,3.44-16.37,6.89-24.76,10.12-1.51.54-3.01,1.07-4.52,1.61-7,2.58-14.21,5.17-21.32,7.43v-105.52c3.12-.97,6.35-1.83,9.47-2.91,3.02-.97,6.03-1.94,9.05-2.91,7.22-2.37,14.43-4.95,21.53-7.54,1.51-.54,3.02-1.08,4.52-1.61,8.4-3.23,16.69-6.68,24.87-10.12,2.05-.97,4.2-1.94,6.25-2.91,6.24-2.8,12.38-5.7,18.52-8.62,2.26-1.18,4.52-2.26,6.78-3.44,7.75-3.99,15.4-8.08,22.83-12.38,3.99-2.37,7.75-4.74,11.52-7.11,3.12-1.83,6.14-3.76,9.05-5.7,2.69-1.72,5.38-3.55,7.96-5.38,2.8-1.94,5.71-3.87,8.4-5.81,2.48-1.94,4.96-3.77,7.43-5.6,2.58-2.05,5.27-4.09,7.75-6.14,2.37-1.83,4.63-3.76,6.89-5.7,2.48-2.05,4.84-4.09,7.21-6.25,1.83-1.61,3.55-3.34,5.38-5.06,3.88-3.66,7.64-7.43,11.31-11.2Z"/><path class="cls-77" d="m1389.84,1019.56c-1.06.54-2.13,1.07-3.19,1.62-6.14,2.91-12.28,5.81-18.52,8.61-2.05.97-4.2,1.95-6.25,2.91-1.43.6-2.9,1.17-4.34,1.77v31.02c1.44-.6,2.91-1.17,4.34-1.77,2.05-.97,4.2-1.95,6.25-2.91,6.24-2.8,12.38-5.7,18.52-8.61,1.06-.56,2.13-1.09,3.19-1.62v-31.02Z"/><path class="cls-105" d="m1342.36,1040.65c-1.8.71-3.54,1.48-5.35,2.18-1.51.54-3.02,1.08-4.52,1.62-7.11,2.59-14.32,5.16-21.53,7.54-1.4.45-2.8.9-4.2,1.35v31.02c1.4-.45,2.8-.9,4.2-1.35,7.22-2.38,14.43-4.95,21.53-7.54,1.51-.54,3.02-1.08,4.52-1.62,1.81-.69,3.56-1.47,5.35-2.18v-31.02Z"/><path class="cls-104" d="m1437.31,992.22c-.16.11-.32.22-.48.33-2.91,1.95-5.92,3.88-9.05,5.71-3.77,2.37-7.54,4.73-11.52,7.11-3.66,2.12-7.49,4.07-11.25,6.1v31.02c3.75-2.03,7.59-3.98,11.25-6.1,3.99-2.38,7.75-4.74,11.52-7.11,3.12-1.83,6.14-3.76,9.05-5.71.16-.11.32-.22.48-.33v-31.02Z"/><path class="cls-61" d="m1475.26,963.91c-2.26,1.95-4.52,3.88-6.89,5.71-2.48,2.05-5.17,4.09-7.75,6.14-2.48,1.83-4.95,3.66-7.43,5.59-.23.16-.48.33-.7.49v31.02c.23-.16.48-.33.7-.49,2.48-1.93,4.96-3.76,7.43-5.59,2.58-2.05,5.27-4.09,7.75-6.14,2.37-1.83,4.63-3.76,6.89-5.71,2.14-1.76,4.18-3.55,6.22-5.39v-31.02c-2.05,1.83-4.08,3.63-6.22,5.39Z"/><path class="cls-69" d="m1560.51,300.64c-.14,2.5-.29,4.99-.54,7.49-.22,2.19-.52,4.38-.83,6.57-.35,2.48-.72,4.96-1.17,7.44-.4,2.2-.88,4.4-1.37,6.59-.54,2.42-1.12,4.84-1.77,7.26-.59,2.2-1.25,4.4-1.92,6.58-.75,2.41-1.53,4.81-2.38,7.2-.76,2.14-1.58,4.29-2.43,6.42-1,2.52-2.06,5.04-3.18,7.55-.94,2.1-1.91,4.2-2.93,6.29-1.22,2.5-2.52,4.98-3.86,7.47-1.09,2.02-2.19,4.03-3.36,6.04-1.72,2.95-3.56,5.89-5.45,8.82-1.15,1.78-2.26,3.56-3.47,5.33-2.22,3.24-4.61,6.45-7.04,9.65-1.05,1.39-2.03,2.79-3.13,4.17-4.02,5.08-8.35,10.09-12.91,15.06-1.18,1.28-2.45,2.53-3.66,3.81-3.6,3.77-7.35,7.51-11.26,11.21-1.78,1.68-3.58,3.37-5.43,5.04-2.33,2.1-4.73,4.18-7.17,6.26-2.25,1.92-4.53,3.83-6.87,5.73-2.53,2.05-5.14,4.06-7.77,6.08-2.44,1.87-4.89,3.73-7.42,5.56-2.73,1.99-5.55,3.94-8.39,5.9-2.62,1.81-5.25,3.61-7.96,5.39-2.94,1.92-5.97,3.82-9.01,5.7-3.81,2.37-7.57,4.75-11.54,7.05-7.44,4.33-15.11,8.43-22.9,12.42-2.24,1.15-4.52,2.26-6.79,3.39-6.06,2.99-12.2,5.89-18.45,8.69-2.11.95-4.18,1.92-6.31,2.84-8.14,3.53-16.4,6.92-24.82,10.12-1.49.57-3.02,1.08-4.51,1.64-7.11,2.64-14.31,5.16-21.59,7.57-3,.99-6.01,1.97-9.04,2.92-4,1.26-8.03,2.49-12.08,3.68-3.44,1.01-6.88,2.01-10.35,2.97-4.11,1.14-8.24,2.23-12.39,3.3-3.48.9-6.95,1.79-10.46,2.63-4.21,1.02-8.45,1.99-12.69,2.93-3.51.78-7.02,1.57-10.56,2.31-4.31.9-8.65,1.73-12.99,2.56-3.35.64-6.69,1.29-10.06,1.88-9.32,1.65-18.7,3.16-28.14,4.49-1.36.19-2.74.34-4.11.52-8.21,1.11-16.46,2.09-24.73,2.95-3.16.33-6.32.63-9.48.93-5.34.49-10.69.94-16.05,1.34-3.34.24-6.69.49-10.04.69-5.59.35-11.2.62-16.81.85-3.13.13-6.26.29-9.39.39-4.85.15-9.71.21-14.57.28-3.39.05-6.77.13-10.16.14-5.18.02-10.35-.07-15.53-.16-3.08-.05-6.15-.04-9.22-.13-4.78-.13-9.56-.36-14.34-.56-3.28-.14-6.57-.23-9.84-.4-5.2-.28-10.38-.68-15.57-1.06-2.85-.21-5.71-.36-8.56-.59-6.25-.52-12.48-1.16-18.7-1.81-1.75-.18-3.52-.32-5.27-.52-7.96-.89-15.89-1.9-23.78-3.01-1.31-.18-2.59-.42-3.9-.61-6.75-.99-13.49-2.02-20.17-3.18-2.78-.48-5.53-1.04-8.3-1.55-5.17-.95-10.33-1.9-15.45-2.94-2.69-.55-5.34-1.17-8.02-1.75-5.58-1.2-11.16-2.44-16.68-3.76-3.11-.75-6.2-1.55-9.29-2.33-5.04-1.28-10.06-2.6-15.04-3.98-2.85-.79-5.69-1.61-8.52-2.43-7.93-2.31-15.78-4.74-23.53-7.31-1.37-.46-2.77-.87-4.14-1.34-8.9-3.02-17.65-6.24-26.29-9.61-1.84-.71-3.65-1.47-5.47-2.21-11.23-4.5-22.26-9.25-32.96-14.35-1.08-.52-2.12-1.07-3.2-1.59-11.2-5.43-22.15-11.11-32.69-17.2-73.59-42.48-119.55-94.93-137.84-149.82-6.1-18.3-9.12-36.86-9.07-55.43v.02-.02l-.9,315.97c-.21,74.24,48.79,148.59,146.91,205.25,10.54,6.08,21.48,11.77,32.68,17.19,1.08.53,2.13,1.08,3.21,1.59,10.7,5.1,21.73,9.85,32.96,14.35.99.39,1.92.87,2.92,1.27.84.33,1.72.61,2.56.94,8.64,3.36,17.38,6.59,26.29,9.61,1.37.47,2.77.88,4.14,1.34,7.75,2.57,15.6,5,23.53,7.31,1.32.38,2.59.84,3.91,1.21,1.52.43,3.09.79,4.61,1.22,4.98,1.38,10,2.7,15.04,3.98,3.09.79,6.17,1.59,9.29,2.33,5.52,1.32,11.09,2.56,16.68,3.76,2.11.46,4.18.99,6.29,1.42.57.12,1.15.21,1.73.33,5.07,1.04,10.19,1.98,15.31,2.92,2.83.52,5.63,1.09,8.47,1.58,6.66,1.15,13.36,2.18,20.07,3.16,1.26.18,2.51.42,3.77.59.07.01.13.02.2.03,7.89,1.12,15.82,2.12,23.78,3.01,1.82.21,3.65.34,5.48.54,6.15.65,12.29,1.28,18.47,1.79.16.01.31.03.47.04,2.85.24,5.71.38,8.57.58,5.03.36,10.05.75,15.1,1.03,3.35.18,6.7.27,10.06.42,4.72.2,9.43.43,14.15.55.39.01.77.04,1.16.05,2.68.07,5.36.04,8.04.08,5.18.08,10.36.17,15.55.16,3.41-.01,6.81-.09,10.22-.14,4.83-.07,9.66-.13,14.48-.28.9-.03,1.8-.02,2.7-.05,2.27-.07,4.53-.25,6.8-.34,5.57-.24,11.14-.5,16.7-.84,3.38-.21,6.74-.45,10.11-.7,5.35-.39,10.68-.84,16.01-1.33,1.86-.17,3.74-.28,5.6-.47,1.3-.13,2.59-.33,3.89-.46,8.28-.86,16.52-1.84,24.73-2.95,1.36-.18,2.74-.33,4.11-.52,9.44-1.32,18.82-2.84,28.15-4.49.87-.15,1.76-.26,2.63-.42,2.48-.45,4.92-.98,7.39-1.46,4.36-.83,8.71-1.66,13.03-2.57,3.53-.74,7.03-1.52,10.53-2.3,4.25-.95,8.49-1.91,12.71-2.93,3.5-.85,6.97-1.74,10.44-2.63,4.16-1.07,8.31-2.17,12.42-3.31,3.45-.96,6.87-1.95,10.29-2.95,4.07-1.2,8.12-2.43,12.14-3.7,1.75-.55,3.55-1.05,5.29-1.61,1.26-.41,2.47-.89,3.72-1.3,7.3-2.42,14.51-4.94,21.63-7.59,1.48-.55,2.99-1.06,4.46-1.61,8.42-3.21,16.7-6.6,24.85-10.14,2.11-.91,4.18-1.88,6.27-2.82,6.25-2.8,12.41-5.7,18.47-8.7,2.27-1.13,4.54-2.23,6.79-3.39,7.78-3.99,15.46-8.09,22.9-12.41,2.05-1.19,4.07-2.39,6.07-3.59,1.88-1.13,3.62-2.31,5.46-3.45,3.05-1.89,6.09-3.79,9.03-5.72,2.7-1.77,5.33-3.57,7.94-5.37,2.84-1.96,5.66-3.92,8.4-5.91,2.52-1.83,4.97-3.69,7.4-5.55,2.64-2.02,5.26-4.05,7.8-6.1,2.34-1.89,4.61-3.8,6.86-5.71,2.44-2.08,4.84-4.16,7.18-6.26.95-.86,2-1.7,2.94-2.57.88-.81,1.62-1.66,2.48-2.48,3.92-3.7,7.67-7.44,11.28-11.22,1.21-1.27,2.47-2.52,3.64-3.79,4.57-4.96,8.89-9.98,12.91-15.06.17-.22.38-.42.54-.64.92-1.17,1.69-2.37,2.58-3.54,2.43-3.2,4.82-6.4,7.03-9.64,1.21-1.78,2.33-3.56,3.48-5.35,1.89-2.92,3.73-5.86,5.44-8.81.47-.81,1.03-1.6,1.49-2.41.68-1.21,1.23-2.43,1.88-3.65,1.33-2.47,2.62-4.95,3.84-7.44,1.03-2.1,2-4.21,2.94-6.32,1.12-2.5,2.17-5.01,3.17-7.52.45-1.13,1-2.24,1.42-3.37.38-1.02.65-2.05,1.01-3.06.85-2.4,1.64-4.8,2.38-7.21.68-2.19,1.33-4.38,1.93-6.58.65-2.41,1.22-4.83,1.76-7.24.29-1.31.69-2.62.96-3.93.18-.89.25-1.78.42-2.67.46-2.48.83-4.96,1.17-7.44.3-2.19.61-4.37.83-6.57.25-2.49.4-4.99.53-7.48.08-1.47.27-2.94.32-4.42.04-1.46.07-2.91.07-4.37l.9-315.97c0,2.93-.22,5.86-.38,8.79Z"/><path class="cls-64" d="m1560.51,298.49c-.14,2.5-.29,4.99-.54,7.49-.22,2.19-.52,4.38-.83,6.57-.35,2.48-.72,4.96-1.17,7.44-.4,2.2-.88,4.4-1.37,6.59-.54,2.42-1.12,4.84-1.77,7.26-.59,2.2-1.25,4.4-1.92,6.58-.75,2.41-1.53,4.81-2.38,7.2-.76,2.14-1.58,4.29-2.43,6.42-1,2.52-2.06,5.04-3.18,7.55-.94,2.1-1.91,4.2-2.93,6.29-1.22,2.5-2.52,4.98-3.86,7.47-1.09,2.02-2.19,4.03-3.36,6.04-1.72,2.95-3.56,5.89-5.45,8.82-1.15,1.78-2.26,3.56-3.47,5.33-2.22,3.24-4.61,6.45-7.04,9.65-1.05,1.39-2.03,2.79-3.13,4.17-4.02,5.08-8.35,10.09-12.91,15.06-1.18,1.28-2.45,2.53-3.66,3.81-3.6,3.77-7.35,7.51-11.26,11.21-1.78,1.68-3.58,3.37-5.43,5.04-2.33,2.1-4.73,4.18-7.17,6.26-2.25,1.92-4.53,3.83-6.87,5.73-2.53,2.05-5.14,4.06-7.77,6.08-2.44,1.87-4.89,3.73-7.42,5.56-2.73,1.99-5.55,3.94-8.39,5.9-2.62,1.81-5.25,3.61-7.96,5.39-2.94,1.92-5.97,3.82-9.01,5.7-3.81,2.37-7.57,4.75-11.54,7.05-7.44,4.33-15.11,8.43-22.9,12.42-2.24,1.15-4.52,2.26-6.79,3.39-6.06,2.99-12.2,5.89-18.45,8.69-2.11.95-4.18,1.92-6.31,2.84-8.14,3.53-16.4,6.92-24.82,10.12-1.49.57-3.02,1.08-4.51,1.64-7.11,2.64-14.31,5.16-21.59,7.57-3,.99-6.01,1.97-9.04,2.92-4,1.26-8.03,2.49-12.08,3.68-3.44,1.01-6.88,2.01-10.35,2.97-4.11,1.14-8.24,2.23-12.39,3.3-3.48.9-6.95,1.79-10.46,2.63-4.21,1.02-8.45,1.99-12.69,2.93-3.51.78-7.02,1.57-10.56,2.31-4.31.9-8.65,1.73-12.99,2.56-3.35.64-6.69,1.29-10.06,1.88-9.32,1.65-18.7,3.16-28.14,4.49-1.36.19-2.74.34-4.11.52-8.21,1.11-16.46,2.09-24.73,2.95-3.16.33-6.32.63-9.48.93-5.34.49-10.69.94-16.05,1.34-3.34.24-6.69.49-10.04.69-5.59.35-11.2.62-16.81.85-3.13.13-6.26.29-9.39.39-4.85.15-9.71.21-14.57.28-3.39.05-6.77.13-10.16.14-5.18.02-10.35-.07-15.53-.16-3.08-.05-6.15-.04-9.22-.13-4.78-.13-9.56-.36-14.34-.56-3.28-.14-6.57-.23-9.84-.4-5.2-.28-10.38-.68-15.57-1.06-2.85-.21-5.71-.36-8.56-.59-6.25-.52-12.48-1.16-18.7-1.81-1.75-.18-3.52-.32-5.27-.52-7.96-.89-15.89-1.9-23.78-3.01-1.31-.18-2.59-.42-3.9-.61-6.75-.99-13.49-2.02-20.17-3.18-2.78-.48-5.53-1.04-8.3-1.55-5.17-.95-10.33-1.9-15.45-2.94-2.69-.55-5.34-1.17-8.02-1.75-5.58-1.2-11.16-2.44-16.68-3.76-3.11-.75-6.2-1.55-9.29-2.33-5.04-1.28-10.06-2.6-15.04-3.98-2.85-.79-5.69-1.61-8.52-2.43-7.93-2.31-15.78-4.74-23.53-7.31-1.37-.46-2.77-.87-4.14-1.34-8.9-3.02-17.65-6.24-26.29-9.61-1.84-.71-3.65-1.47-5.47-2.21-11.23-4.5-22.26-9.25-32.96-14.35-1.08-.52-2.12-1.07-3.2-1.59-11.2-5.43-22.15-11.11-32.69-17.2-73.59-42.48-119.55-94.93-137.84-149.82-6.1-18.3-9.12-36.86-9.07-55.43v.02-.02l-.9,315.97c-.21,74.24,48.79,148.59,146.91,205.25,10.54,6.08,21.48,11.77,32.68,17.19,1.08.53,2.13,1.08,3.21,1.59,10.7,5.1,21.73,9.85,32.96,14.35.99.39,1.92.87,2.92,1.27.84.33,1.72.61,2.56.94,8.64,3.36,17.38,6.59,26.29,9.61,1.37.47,2.77.88,4.14,1.34,7.75,2.57,15.6,5,23.53,7.31,1.32.38,2.59.84,3.91,1.21,1.52.43,3.09.79,4.61,1.22,4.98,1.38,10,2.7,15.04,3.98,3.09.79,6.17,1.59,9.29,2.33,5.52,1.32,11.09,2.56,16.68,3.76,2.11.46,4.18.99,6.29,1.42.57.12,1.15.21,1.73.33,5.07,1.04,10.19,1.98,15.31,2.92,2.83.52,5.63,1.09,8.47,1.58,6.66,1.15,13.36,2.18,20.07,3.16,1.26.18,2.51.42,3.77.59.07.01.13.02.2.03,7.89,1.12,15.82,2.12,23.78,3.01,1.82.2,3.65.34,5.48.54,6.15.65,12.29,1.28,18.47,1.79.16.01.31.03.47.04,2.85.24,5.71.38,8.57.58,5.03.36,10.05.75,15.1,1.03,3.35.18,6.7.27,10.06.42,4.72.2,9.43.43,14.15.55.39.01.77.04,1.16.05,2.68.07,5.36.04,8.04.08,5.18.08,10.36.17,15.55.16,3.41-.01,6.81-.09,10.22-.14,4.83-.07,9.66-.13,14.48-.28.9-.03,1.8-.02,2.7-.05,2.27-.07,4.53-.25,6.8-.34,5.57-.24,11.14-.5,16.7-.84,3.38-.2,6.74-.45,10.11-.7,5.35-.39,10.68-.84,16.01-1.33,1.86-.17,3.74-.28,5.6-.47,1.3-.13,2.59-.33,3.89-.46,8.28-.86,16.52-1.84,24.73-2.95,1.36-.18,2.74-.33,4.11-.52,9.44-1.32,18.82-2.84,28.15-4.49.87-.15,1.76-.26,2.63-.42,2.48-.45,4.92-.98,7.39-1.46,4.36-.83,8.71-1.66,13.03-2.57,3.53-.74,7.03-1.52,10.53-2.3,4.25-.95,8.49-1.91,12.71-2.93,3.5-.85,6.97-1.74,10.44-2.63,4.16-1.07,8.31-2.17,12.42-3.31,3.45-.96,6.87-1.95,10.29-2.95,4.07-1.2,8.12-2.43,12.14-3.7,1.75-.55,3.55-1.05,5.29-1.61,1.26-.41,2.47-.89,3.72-1.3,7.3-2.42,14.51-4.94,21.63-7.59,1.48-.55,2.99-1.06,4.46-1.61,8.42-3.21,16.7-6.6,24.85-10.14,2.11-.91,4.18-1.88,6.27-2.82,6.25-2.8,12.41-5.7,18.47-8.7,2.27-1.12,4.54-2.23,6.79-3.39,7.78-3.99,15.46-8.09,22.9-12.41,2.05-1.19,4.07-2.39,6.07-3.59,1.88-1.13,3.62-2.31,5.46-3.45,3.05-1.89,6.09-3.79,9.03-5.72,2.7-1.77,5.33-3.57,7.94-5.37,2.84-1.96,5.66-3.92,8.4-5.91,2.52-1.83,4.97-3.69,7.4-5.55,2.64-2.02,5.26-4.05,7.8-6.1,2.34-1.89,4.61-3.8,6.86-5.71,2.44-2.08,4.84-4.16,7.18-6.26.95-.86,2-1.7,2.94-2.57.88-.81,1.62-1.66,2.48-2.48,3.92-3.7,7.67-7.44,11.28-11.22,1.21-1.27,2.47-2.52,3.64-3.79,4.57-4.96,8.89-9.98,12.91-15.06.17-.22.38-.42.54-.64.92-1.17,1.69-2.37,2.58-3.54,2.43-3.2,4.82-6.4,7.03-9.64,1.21-1.78,2.33-3.56,3.48-5.35,1.89-2.92,3.73-5.86,5.44-8.81.47-.81,1.03-1.6,1.49-2.41.68-1.21,1.23-2.43,1.88-3.65,1.33-2.47,2.62-4.95,3.84-7.44,1.03-2.1,2-4.21,2.94-6.32,1.12-2.5,2.17-5.01,3.17-7.52.45-1.13,1-2.24,1.42-3.37.38-1.02.65-2.05,1.01-3.06.85-2.4,1.64-4.8,2.38-7.21.68-2.19,1.33-4.38,1.93-6.58.65-2.41,1.22-4.83,1.76-7.24.29-1.31.69-2.62.96-3.93.18-.89.25-1.78.42-2.67.46-2.48.83-4.96,1.17-7.44.3-2.19.61-4.37.83-6.57.25-2.49.4-4.99.53-7.48.08-1.47.27-2.94.32-4.42.04-1.46.07-2.91.07-4.37l.9-315.97c0,2.93-.22,5.86-.38,8.79Z"/><path class="cls-6" d="m1414,84.43c194.96,112.56,195.99,295.13,2.29,407.7-193.76,112.6-508.95,112.6-703.92.04-195.03-112.6-195.98-295.13-2.23-407.73,193.69-112.56,508.82-112.6,703.85,0Z"/><path class="cls-62" d="m1416.29,484.6c-193.76,112.6-508.96,112.6-703.92.04-96.07-55.47-144.95-127.91-146.75-200.6-1.5,75.2,47.37,150.74,146.75,208.12,194.96,112.56,510.16,112.56,703.92-.04,98.27-57.11,146.32-132.23,144.45-207.09-1.44,72.35-49.47,144.38-144.45,199.57Z"/><path class="cls-32" d="m663.26,574.25c-5.13-4.02-10.08-8.09-14.81-12.21v67.28c4.73,4.13,9.68,8.2,14.81,12.21v-67.28Z"/><path class="cls-9" d="m677.74,652.33c4.41,3.13,9.02,6.19,13.68,9.24v-67.28c-4.67-3.04-9.28-6.11-13.68-9.24v67.28Z"/><path class="cls-14" d="m719.59,611.21c-2.4-1.32-4.85-2.6-7.21-3.96-2.23-1.29-4.3-2.63-6.47-3.93v67.28c2.18,1.3,4.25,2.64,6.47,3.93,2.36,1.36,4.81,2.64,7.21,3.96v-67.28Z"/><path class="cls-36" d="m775.92,638.07c-4.63-1.9-9.13-3.95-13.68-5.96v67.28c4.55,2,9.05,4.05,13.68,5.96v-67.28Z"/><path class="cls-21" d="m860.42,666.25c-3.76-.97-7.52-1.94-11.24-2.98-.82-.23-1.62-.47-2.44-.7v67.28c.81.23,1.62.47,2.44.7,3.72,1.04,7.48,2,11.24,2.98v-67.28Z"/><path class="cls-42" d="m888.59,672.99c-4.58-.99-9.15-2.01-13.68-3.09v67.28c4.53,1.08,9.1,2.1,13.68,3.09v-67.28Z"/><path class="cls-41" d="m832.25,658.23c-4.58-1.39-9.17-2.77-13.68-4.25v67.28c4.52,1.49,9.11,2.86,13.68,4.25v-67.28Z"/><path class="cls-47" d="m804.09,648.94c-4.58-1.64-9.17-3.26-13.68-5v67.28c4.51,1.72,9.1,3.36,13.68,4.99v-67.28Z"/><path class="cls-23" d="m747.76,625.78c-.9-.44-1.78-.9-2.68-1.34-3.71-1.8-7.35-3.67-11-5.54v67.28c3.65,1.86,7.28,3.74,11,5.54.9.44,1.78.89,2.68,1.34v-67.28Z"/><path class="cls-50" d="m1029.42,690.84c-.55-.02-1.11-.04-1.67-.06-3.28-.14-6.57-.23-9.84-.4-.73-.04-1.45-.11-2.17-.15v67.28c.72.04,1.44.11,2.17.15,3.28.18,6.56.27,9.84.4.56.03,1.11.04,1.67.07v-67.28Z"/><path class="cls-24" d="m916.75,678.63c-1.03-.2-2.07-.39-3.1-.58-3.54-.65-7.06-1.34-10.58-2.01v67.28c3.52.68,7.04,1.36,10.58,2.01,1.03.19,2.07.38,3.1.58v-67.28Z"/><path class="cls-28" d="m944.92,683.21c-.93-.15-1.86-.29-2.8-.44-3.64-.53-7.26-1.14-10.88-1.71v67.28c3.63.57,7.24,1.18,10.88,1.71.94.14,1.87.29,2.8.44v-67.28Z"/><path class="cls-20" d="m1001.25,689.25c-2.49-.17-4.99-.32-7.48-.52-2.07-.17-4.13-.4-6.2-.6v67.28c2.07.19,4.13.43,6.2.6,2.49.2,4.98.35,7.48.52v-67.28Z"/><path class="cls-19" d="m973.09,686.72c-1.09-.1-2.19-.2-3.28-.32-3.48-.39-6.93-.88-10.4-1.31v67.27c3.47.44,6.92.93,10.4,1.32,1.09.12,2.19.22,3.28.32v-67.28Z"/><path class="cls-80" d="m1517.9,492.64v126.09l-18.73-14.65v-89.58c1.19-1.29,2.48-2.48,3.66-3.77,4.52-4.95,8.83-10.02,12.81-15.07.86-.97,1.51-1.94,2.26-3.02Z"/><path class="cls-65" d="m1517.9,618.73c-.75.97-1.4,1.93-2.26,2.9-3.99,5.17-8.29,10.13-12.81,15.08-1.19,1.29-2.48,2.58-3.66,3.87-3.66,3.77-7.43,7.43-11.31,11.2-1.83,1.61-3.55,3.34-5.38,4.95-2.37,2.15-4.74,4.2-7.21,6.35-2.26,1.83-4.52,3.77-6.89,5.71-2.48,2.05-5.17,4.09-7.75,6.03-2.48,1.93-4.95,3.76-7.43,5.59-2.69,1.94-5.6,3.99-8.4,5.93-2.58,1.83-5.27,3.55-7.96,5.38-2.91,1.94-5.92,3.77-9.05,5.7-3.77,2.37-7.54,4.74-11.52,7-7.43,4.31-15.07,8.4-22.83,12.49-2.26,1.08-4.52,2.26-6.78,3.34-6.14,3.02-12.28,5.92-18.52,8.72-2.05.86-4.2,1.83-6.25,2.8-8.18,3.55-16.47,6.89-24.87,10.12-1.51.54-3.02,1.08-4.52,1.62-7.11,2.69-14.32,5.17-21.53,7.64-3.02.97-6.03,1.93-9.05,2.91-3.12.97-6.35,1.94-9.47,2.91v-20.57c7.11-2.26,14.32-4.85,21.32-7.43,1.51-.54,3.02-1.08,4.52-1.61,8.4-3.23,16.69-6.68,24.76-10.12,2.15-.97,4.31-1.94,6.35-2.91,6.25-2.8,12.38-5.71,18.41-8.72,2.26-1.08,4.63-2.16,6.78-3.34,7.86-3.99,15.51-8.08,22.94-12.38,3.98-2.37,7.75-4.74,11.52-7.11,3.12-1.83,6.14-3.77,9.04-5.7,2.69-1.72,5.38-3.55,7.97-5.38,2.8-1.94,5.6-3.88,8.4-5.92,2.48-1.83,4.95-3.66,7.43-5.49,2.59-2.05,5.17-4.1,7.75-6.14,2.37-1.83,4.63-3.77,6.89-5.7,2.37-2.05,4.84-4.09,7.11-6.25,1.83-1.61,3.66-3.34,5.49-5.06,3.87-3.66,7.64-7.43,11.2-11.2,1.29-1.29,2.48-2.48,3.66-3.77,4.63-4.95,8.94-10.02,12.92-15.07.75-.97,1.51-2.05,2.26-3.02l18.73,14.65Z"/><path class="cls-71" d="m1499.16,514.5v89.58c-.75.97-1.51,2.05-2.26,3.02-3.98,5.06-8.29,10.12-12.92,15.07-1.19,1.29-2.37,2.48-3.66,3.77-3.55,3.76-7.32,7.53-11.2,11.2-1.83,1.72-3.66,3.44-5.49,5.06-2.26,2.16-4.74,4.2-7.11,6.25-2.26,1.93-4.52,3.87-6.89,5.7-2.59,2.05-5.17,4.1-7.75,6.14-2.48,1.83-4.95,3.66-7.43,5.49-2.8,2.05-5.6,3.99-8.4,5.92-2.59,1.83-5.28,3.66-7.97,5.38-2.91,1.93-5.92,3.87-9.04,5.7-3.77,2.37-7.54,4.74-11.52,7.11-7.43,4.31-15.08,8.4-22.94,12.38-2.15,1.18-4.52,2.26-6.78,3.34-6.03,3.01-12.17,5.92-18.41,8.72-2.05.97-4.2,1.93-6.35,2.91-8.08,3.44-16.37,6.89-24.76,10.12-1.51.54-3.01,1.07-4.52,1.61-7,2.58-14.21,5.17-21.32,7.43v-105.52c3.12-.97,6.35-1.83,9.47-2.91,3.02-.97,6.03-1.94,9.05-2.91,7.22-2.37,14.43-4.95,21.53-7.54,1.51-.54,3.02-1.08,4.52-1.61,8.4-3.23,16.69-6.68,24.87-10.12,2.05-.97,4.2-1.94,6.25-2.91,6.24-2.8,12.38-5.7,18.52-8.62,2.26-1.18,4.52-2.26,6.78-3.44,7.75-3.99,15.4-8.08,22.83-12.38,3.99-2.37,7.75-4.74,11.52-7.11,3.12-1.83,6.14-3.76,9.05-5.7,2.69-1.72,5.38-3.55,7.96-5.38,2.8-1.94,5.71-3.87,8.4-5.81,2.48-1.94,4.96-3.77,7.43-5.6,2.58-2.05,5.27-4.09,7.75-6.14,2.37-1.83,4.63-3.76,6.89-5.7,2.48-2.05,4.84-4.09,7.21-6.25,1.83-1.61,3.55-3.34,5.38-5.06,3.88-3.66,7.64-7.43,11.31-11.2Z"/><path class="cls-54" d="m1389.84,639.38c-1.06.54-2.13,1.07-3.19,1.62-6.14,2.91-12.28,5.81-18.52,8.61-2.05.97-4.2,1.95-6.25,2.91-1.43.6-2.9,1.17-4.34,1.77v31.02c1.44-.6,2.91-1.17,4.34-1.77,2.05-.97,4.2-1.95,6.25-2.91,6.24-2.8,12.38-5.7,18.52-8.61,1.06-.56,2.13-1.09,3.19-1.62v-31.02Z"/><path class="cls-78" d="m1342.36,660.47c-1.8.71-3.54,1.48-5.35,2.18-1.51.54-3.02,1.08-4.52,1.62-7.11,2.59-14.32,5.16-21.53,7.54-1.4.45-2.8.9-4.2,1.35v31.02c1.4-.45,2.8-.9,4.2-1.35,7.22-2.38,14.43-4.95,21.53-7.54,1.51-.54,3.02-1.08,4.52-1.62,1.81-.69,3.56-1.47,5.35-2.18v-31.02Z"/><path class="cls-102" d="m1437.31,612.04c-.16.11-.32.22-.48.33-2.91,1.95-5.92,3.88-9.05,5.71-3.77,2.37-7.54,4.73-11.52,7.11-3.66,2.12-7.49,4.07-11.25,6.1v31.02c3.75-2.03,7.59-3.98,11.25-6.1,3.99-2.38,7.75-4.74,11.52-7.11,3.12-1.83,6.14-3.76,9.05-5.71.16-.11.32-.22.48-.33v-31.02Z"/><path class="cls-74" d="m1475.26,583.72c-2.26,1.95-4.52,3.88-6.89,5.71-2.48,2.05-5.17,4.09-7.75,6.14-2.48,1.83-4.95,3.66-7.43,5.59-.23.16-.48.33-.7.49v31.02c.23-.16.48-.33.7-.49,2.48-1.93,4.96-3.76,7.43-5.59,2.58-2.05,5.27-4.09,7.75-6.14,2.37-1.83,4.63-3.76,6.89-5.71,2.14-1.76,4.18-3.55,6.22-5.39v-31.02c-2.05,1.83-4.08,3.63-6.22,5.39Z"/><g class="cls-60"><ellipse class="cls-89" cx="690.17" cy="1183.03" rx="233.8" ry="459.41" transform="translate(-281.42 217.67) rotate(-14.93)"/><ellipse class="cls-51" cx="691.38" cy="1189.42" rx="228.14" ry="448.29" transform="translate(-283.02 218.2) rotate(-14.93)"/><ellipse class="cls-96" cx="692.59" cy="1195.8" rx="222.48" ry="437.18" transform="translate(-284.63 218.73) rotate(-14.93)"/><ellipse class="cls-68" cx="693.8" cy="1202.19" rx="216.82" ry="426.06" transform="translate(-286.23 219.26) rotate(-14.93)"/><ellipse class="cls-7" cx="695.01" cy="1208.58" rx="211.16" ry="414.94" transform="translate(-287.83 219.78) rotate(-14.93)"/><ellipse class="cls-66" cx="696.23" cy="1214.97" rx="205.5" ry="403.82" transform="translate(-289.44 220.31) rotate(-14.93)"/><ellipse class="cls-53" cx="697.44" cy="1221.35" rx="199.85" ry="392.7" transform="translate(-291.04 220.84) rotate(-14.93)"/><ellipse class="cls-79" cx="698.65" cy="1227.74" rx="194.19" ry="381.58" transform="translate(-292.65 221.37) rotate(-14.93)"/><ellipse class="cls-94" cx="699.86" cy="1234.13" rx="188.53" ry="370.46" transform="translate(-294.25 221.89) rotate(-14.93)"/><ellipse class="cls-98" cx="701.07" cy="1240.52" rx="182.87" ry="359.35" transform="translate(-295.86 222.42) rotate(-14.93)"/><ellipse class="cls-2" cx="702.28" cy="1246.91" rx="177.21" ry="348.23" transform="translate(-297.46 222.95) rotate(-14.93)"/><ellipse class="cls-70" cx="703.49" cy="1253.29" rx="171.55" ry="337.11" transform="translate(-299.06 223.47) rotate(-14.93)"/><ellipse class="cls-72" cx="704.7" cy="1259.68" rx="165.9" ry="325.99" transform="translate(-300.67 224) rotate(-14.93)"/><ellipse class="cls-84" cx="705.91" cy="1266.07" rx="160.24" ry="314.87" transform="translate(-302.27 224.53) rotate(-14.93)"/><ellipse class="cls-76" cx="707.12" cy="1272.46" rx="154.58" ry="303.75" transform="translate(-303.88 225.06) rotate(-14.93)"/><ellipse class="cls-3" cx="708.33" cy="1278.84" rx="148.92" ry="292.63" transform="translate(-305.48 225.58) rotate(-14.93)"/><ellipse class="cls-99" cx="709.54" cy="1285.23" rx="143.26" ry="281.51" transform="translate(-307.09 226.11) rotate(-14.93)"/><ellipse class="cls-83" cx="710.75" cy="1291.62" rx="137.6" ry="270.4" transform="translate(-308.69 226.64) rotate(-14.93)"/><ellipse class="cls-90" cx="711.96" cy="1298.01" rx="131.95" ry="259.28" transform="translate(-310.3 227.17) rotate(-14.93)"/><ellipse class="cls-67" cx="713.17" cy="1304.4" rx="126.29" ry="248.16" transform="translate(-311.9 227.69) rotate(-14.93)"/><ellipse class="cls-63" cx="714.38" cy="1310.78" rx="120.63" ry="237.04" transform="translate(-313.5 228.22) rotate(-14.93)"/><ellipse class="cls-5" cx="715.59" cy="1317.17" rx="114.97" ry="225.92" transform="translate(-315.11 228.75) rotate(-14.93)"/><ellipse class="cls-93" cx="716.8" cy="1323.56" rx="109.31" ry="214.8" transform="translate(-316.71 229.27) rotate(-14.93)"/><ellipse class="cls-57" cx="718.01" cy="1329.95" rx="103.65" ry="203.68" transform="translate(-318.32 229.8) rotate(-14.93)"/><ellipse class="cls-97" cx="719.22" cy="1336.33" rx="98" ry="192.57" transform="translate(-319.92 230.33) rotate(-14.93)"/><ellipse class="cls-56" cx="720.43" cy="1342.72" rx="92.34" ry="181.45" transform="translate(-321.53 230.86) rotate(-14.93)"/><ellipse class="cls-91" cx="721.64" cy="1349.11" rx="86.68" ry="170.33" transform="translate(-323.13 231.38) rotate(-14.93)"/></g><path class="cls-82" d="m451.35,729.81L103.8,1242.33c-19.13,28.2,4.04,89.11,41.45,108.98l359.09,190.67,353.67,187.79c39.8,21.13,64.45-17.49,44.1-69.1l-344.78-874.59c-23.9-60.63-82.08-91.52-105.98-56.28Z"/><path class="cls-86" d="m423.73,748.43L76.18,1260.95c-19.13,28.2,4.04,89.11,41.45,108.98l359.09,190.67,353.67,187.79c39.8,21.13,64.45-17.49,44.1-69.1l-344.78-874.59c-23.9-60.63-82.08-91.52-105.98-56.28Z"/><path class="cls-1" d="m145.34,1311.97c-5.16-2.74-7.76-7.97-8.86-10.85-1.1-2.88-2.54-8.29.1-12.18l320.65-472.85c5.93-8.74,15.55-4.91,19.41-2.86,3.86,2.05,13.48,8.44,19.41,23.47l318.09,806.88c3.38,8.56,1.53,13.52.13,15.71-1.4,2.19-4.73,5.35-11.33,1.85l-657.59-349.17Z"/><path class="cls-8" d="m450.55,1324.15c2.05-17.46,15.06-22.72,31.43-10.75,10.08,7.37,19.52,24.99,20.86,37.79,2.03,19.23-5.29,30.7-18.33,28.12-18.59-3.67-36.48-33.67-33.96-55.16Zm10.92-65.93l-6.26-259.23c0-.25.16-.36.36-.25l42.3,22.46c.21.11.37.4.36.64l-6.26,252.59c0,.23-.17.33-.36.23l-29.78-15.81c-.2-.1-.36-.38-.36-.61Z"/></svg>