<?xml version="1.0" encoding="UTF-8"?><svg id="Layer_4" xmlns="http://www.w3.org/2000/svg" xmlns:xlink="http://www.w3.org/1999/xlink" viewBox="0 0 2918.64 2432.2"><defs><style>.cls-1{fill:#380909;opacity:.38;}.cls-2{fill:#2f0e0e;opacity:.58;}.cls-3{fill:url(#linear-gradient-2);}.cls-4{fill:#231313;opacity:.81;}.cls-5{fill:#440404;opacity:.15;}.cls-6,.cls-7,.cls-8{fill:none;}.cls-6,.cls-8{stroke:#d6cece;stroke-miterlimit:10;stroke-width:10.56px;}.cls-9{fill:#4a0101;opacity:.04;}.cls-10{fill:#400606;opacity:.23;}.cls-11{fill:#d6a86b;}.cls-12{fill:#1b1717;opacity:.96;}.cls-13{fill:#1f1515;opacity:.88;}.cls-14{fill:url(#linear-gradient-6);}.cls-7{opacity:.17;}.cls-15{fill:#ead5bb;}.cls-16{fill:url(#linear-gradient-11);}.cls-17{fill:#251212;opacity:.77;}.cls-18{fill:#420505;opacity:.19;}.cls-19{fill:url(#linear-gradient-10);}.cls-20{fill:#271212;opacity:.73;}.cls-21{fill:#460303;opacity:.12;}.cls-22{fill:#360a0a;opacity:.42;}.cls-23{fill:#340b0b;opacity:.46;}.cls-24{fill:#8cdb79;}.cls-25{fill:url(#linear-gradient-5);}.cls-26{fill:#310d0d;opacity:.54;}.cls-8{stroke-dasharray:0 0 36.59 36.59;}.cls-27{fill:#3e0606;opacity:.27;}.cls-28{fill:url(#linear-gradient-7);}.cls-29{fill:#efefef;}.cls-30{fill:#2b1010;opacity:.65;}.cls-31{fill:#330c0c;opacity:.5;}.cls-32{fill:url(#linear-gradient-9);}.cls-33{fill:url(#linear-gradient-3);}.cls-34{fill:#4c0000;opacity:0;}.cls-35{fill:#291111;opacity:.69;}.cls-36{fill:#191818;}.cls-37{fill:url(#linear-gradient);}.cls-38{fill:#211414;opacity:.85;}.cls-39{fill:#3c0707;opacity:.31;}.cls-40{fill:#480202;opacity:.08;}.cls-41{fill:#1d1616;opacity:.92;}.cls-42{fill:#3a0808;opacity:.35;}.cls-43{fill:#2d0f0f;opacity:.62;}.cls-44{fill:url(#linear-gradient-4);}.cls-45{fill:url(#linear-gradient-8);}.cls-46{fill:#85ba74;}</style><linearGradient id="linear-gradient" x1="-10738.75" y1="1397.08" x2="-11537" y2="922.03" gradientTransform="translate(-9752.16) rotate(-180) scale(1 -1)" gradientUnits="userSpaceOnUse"><stop offset="0" stop-color="#7f7f7f"/><stop offset="1" stop-color="#444"/></linearGradient><linearGradient id="linear-gradient-2" x1="-11244.24" y1="1276.98" x2="-10350.89" y2="1276.98" xlink:href="#linear-gradient"/><linearGradient id="linear-gradient-3" x1="-10658.78" y1="1285.54" x2="-10584.59" y2="1472.96" xlink:href="#linear-gradient"/><linearGradient id="linear-gradient-4" x1="-11750.72" y1="1456.87" x2="-10894.75" y2="1456.87" xlink:href="#linear-gradient"/><linearGradient id="linear-gradient-5" x1="-10894.75" y1="1533.84" x2="-10233.05" y2="1533.84" xlink:href="#linear-gradient"/><linearGradient id="linear-gradient-6" x1="-11703.75" y1="1077.26" x2="-10263.94" y2="1077.26" xlink:href="#linear-gradient"/><linearGradient id="linear-gradient-7" x1="2222.6" y1="1672.62" x2="1881.96" y2="971.67" gradientUnits="userSpaceOnUse"><stop offset="0" stop-color="#fbfbfb"/><stop offset="1" stop-color="#ececec"/></linearGradient><linearGradient id="linear-gradient-8" x1="2001.58" y1="1496.38" x2="1985.81" y2="1694.31" xlink:href="#linear-gradient-7"/><linearGradient id="linear-gradient-9" x1="2109.88" y1="1756.63" x2="2221.79" y2="1756.63" gradientUnits="userSpaceOnUse"><stop offset="0" stop-color="#b1b2b2"/><stop offset="1" stop-color="#ececec"/></linearGradient><linearGradient id="linear-gradient-10" x1="-10975.28" y1="715.63" x2="-10991.83" y2="165.05" gradientTransform="translate(-9792.7 8.7) rotate(-180) scale(1 -.99) skewX(-2.39)" gradientUnits="userSpaceOnUse"><stop offset="0" stop-color="#dd2f2f"/><stop offset="1" stop-color="#ff6757"/></linearGradient><linearGradient id="linear-gradient-11" x1="-10989.07" y1="152" x2="-10892.8" y2="728.16" xlink:href="#linear-gradient-10"/></defs><g class="cls-7"><ellipse class="cls-34" cx="1405.65" cy="1490.01" rx="404.56" ry="177.71"/><ellipse class="cls-9" cx="1405.65" cy="1490.01" rx="394.77" ry="173.41"/><ellipse class="cls-40" cx="1405.65" cy="1490.01" rx="384.98" ry="169.11"/><ellipse class="cls-21" cx="1405.65" cy="1490.01" rx="375.19" ry="164.81"/><ellipse class="cls-5" cx="1405.65" cy="1490.01" rx="365.4" ry="160.5"/><ellipse class="cls-18" cx="1405.65" cy="1490.01" rx="355.61" ry="156.2"/><ellipse class="cls-10" cx="1405.65" cy="1490.01" rx="345.82" ry="151.9"/><ellipse class="cls-27" cx="1405.65" cy="1490.01" rx="336.02" ry="147.6"/><ellipse class="cls-39" cx="1405.65" cy="1490.01" rx="326.23" ry="143.3"/><ellipse class="cls-42" cx="1405.65" cy="1490.01" rx="316.44" ry="139"/><ellipse class="cls-1" cx="1405.65" cy="1490.01" rx="306.65" ry="134.7"/><ellipse class="cls-22" cx="1405.65" cy="1490.01" rx="296.86" ry="130.4"/><ellipse class="cls-23" cx="1405.65" cy="1490.01" rx="287.07" ry="126.1"/><ellipse class="cls-31" cx="1405.65" cy="1490.01" rx="277.28" ry="121.8"/><ellipse class="cls-26" cx="1405.65" cy="1490.01" rx="267.49" ry="117.5"/><ellipse class="cls-2" cx="1405.65" cy="1490.01" rx="257.7" ry="113.19"/><ellipse class="cls-43" cx="1405.65" cy="1490.01" rx="247.9" ry="108.89"/><ellipse class="cls-30" cx="1405.65" cy="1490.01" rx="238.11" ry="104.59"/><ellipse class="cls-35" cx="1405.65" cy="1490.01" rx="228.32" ry="100.29"/><ellipse class="cls-20" cx="1405.65" cy="1490.01" rx="218.53" ry="95.99"/><ellipse class="cls-17" cx="1405.65" cy="1490.01" rx="208.74" ry="91.69"/><ellipse class="cls-4" cx="1405.65" cy="1490.01" rx="198.95" ry="87.39"/><ellipse class="cls-38" cx="1405.65" cy="1490.01" rx="189.16" ry="83.09"/><ellipse class="cls-13" cx="1405.65" cy="1490.01" rx="179.37" ry="78.79"/><ellipse class="cls-41" cx="1405.65" cy="1490.01" rx="169.57" ry="74.49"/><ellipse class="cls-12" cx="1405.65" cy="1490.01" rx="159.78" ry="70.19"/><ellipse class="cls-36" cx="1405.65" cy="1490.01" rx="149.99" ry="65.89"/></g><g class="cls-7"><ellipse class="cls-34" cx="738.03" cy="1456.87" rx="404.56" ry="177.71"/><ellipse class="cls-9" cx="738.03" cy="1456.87" rx="394.77" ry="173.41"/><ellipse class="cls-40" cx="738.03" cy="1456.87" rx="384.98" ry="169.11"/><ellipse class="cls-21" cx="738.03" cy="1456.87" rx="375.19" ry="164.81"/><ellipse class="cls-5" cx="738.03" cy="1456.87" rx="365.4" ry="160.5"/><ellipse class="cls-18" cx="738.03" cy="1456.87" rx="355.61" ry="156.2"/><ellipse class="cls-10" cx="738.03" cy="1456.87" rx="345.82" ry="151.9"/><ellipse class="cls-27" cx="738.03" cy="1456.87" rx="336.02" ry="147.6"/><ellipse class="cls-39" cx="738.03" cy="1456.87" rx="326.23" ry="143.3"/><ellipse class="cls-42" cx="738.03" cy="1456.87" rx="316.44" ry="139"/><ellipse class="cls-1" cx="738.03" cy="1456.87" rx="306.65" ry="134.7"/><ellipse class="cls-22" cx="738.03" cy="1456.87" rx="296.86" ry="130.4"/><ellipse class="cls-23" cx="738.03" cy="1456.87" rx="287.07" ry="126.1"/><ellipse class="cls-31" cx="738.03" cy="1456.87" rx="277.28" ry="121.8"/><ellipse class="cls-26" cx="738.03" cy="1456.87" rx="267.49" ry="117.5"/><ellipse class="cls-2" cx="738.03" cy="1456.87" rx="257.7" ry="113.19"/><ellipse class="cls-43" cx="738.03" cy="1456.87" rx="247.9" ry="108.89"/><ellipse class="cls-30" cx="738.03" cy="1456.87" rx="238.11" ry="104.59"/><ellipse class="cls-35" cx="738.03" cy="1456.87" rx="228.32" ry="100.29"/><ellipse class="cls-20" cx="738.03" cy="1456.87" rx="218.53" ry="95.99"/><ellipse class="cls-17" cx="738.03" cy="1456.87" rx="208.74" ry="91.69"/><ellipse class="cls-4" cx="738.03" cy="1456.87" rx="198.95" ry="87.39"/><ellipse class="cls-38" cx="738.03" cy="1456.87" rx="189.16" ry="83.09"/><ellipse class="cls-13" cx="738.03" cy="1456.87" rx="179.37" ry="78.79"/><ellipse class="cls-41" cx="738.03" cy="1456.87" rx="169.57" ry="74.49"/><ellipse class="cls-12" cx="738.03" cy="1456.87" rx="159.78" ry="70.19"/><ellipse class="cls-36" cx="738.03" cy="1456.87" rx="149.99" ry="65.89"/></g><g class="cls-7"><ellipse class="cls-34" cx="2109.88" cy="1697.39" rx="372.33" ry="163.55"/><ellipse class="cls-9" cx="2109.88" cy="1697.39" rx="363.32" ry="159.59"/><ellipse class="cls-40" cx="2109.88" cy="1697.39" rx="354.31" ry="155.63"/><ellipse class="cls-21" cx="2109.88" cy="1697.39" rx="345.3" ry="151.68"/><ellipse class="cls-5" cx="2109.88" cy="1697.39" rx="336.29" ry="147.72"/><ellipse class="cls-18" cx="2109.88" cy="1697.39" rx="327.28" ry="143.76"/><ellipse class="cls-10" cx="2109.88" cy="1697.39" rx="318.27" ry="139.8"/><ellipse class="cls-27" cx="2109.88" cy="1697.39" rx="309.25" ry="135.84"/><ellipse class="cls-39" cx="2109.88" cy="1697.39" rx="300.24" ry="131.88"/><ellipse class="cls-42" cx="2109.88" cy="1697.39" rx="291.23" ry="127.93"/><ellipse class="cls-1" cx="2109.88" cy="1697.39" rx="282.22" ry="123.97"/><ellipse class="cls-22" cx="2109.88" cy="1697.39" rx="273.21" ry="120.01"/><ellipse class="cls-23" cx="2109.88" cy="1697.39" rx="264.2" ry="116.05"/><ellipse class="cls-31" cx="2109.88" cy="1697.39" rx="255.19" ry="112.09"/><ellipse class="cls-26" cx="2109.88" cy="1697.39" rx="246.18" ry="108.13"/><ellipse class="cls-2" cx="2109.88" cy="1697.39" rx="237.17" ry="104.18"/><ellipse class="cls-43" cx="2109.88" cy="1697.39" rx="228.15" ry="100.22"/><ellipse class="cls-30" cx="2109.88" cy="1697.39" rx="219.14" ry="96.26"/><ellipse class="cls-35" cx="2109.88" cy="1697.39" rx="210.13" ry="92.3"/><ellipse class="cls-20" cx="2109.88" cy="1697.39" rx="201.12" ry="88.34"/><ellipse class="cls-17" cx="2109.88" cy="1697.39" rx="192.11" ry="84.39"/><ellipse class="cls-4" cx="2109.88" cy="1697.39" rx="183.1" ry="80.43"/><ellipse class="cls-38" cx="2109.88" cy="1697.39" rx="174.09" ry="76.47"/><ellipse class="cls-13" cx="2109.88" cy="1697.39" rx="165.08" ry="72.51"/><ellipse class="cls-41" cx="2109.88" cy="1697.39" rx="156.06" ry="68.55"/><ellipse class="cls-12" cx="2109.88" cy="1697.39" rx="147.05" ry="64.59"/><ellipse class="cls-36" cx="2109.88" cy="1697.39" rx="138.04" ry="60.64"/></g><polygon class="cls-37" points="1359.39 801.17 1998.56 1174.96 1492.08 1473.99 848.26 1099.28 1359.39 801.17"/><polygon class="cls-3" points="1492.08 1473.99 1247.25 1457.17 598.73 1079.98 848.26 1099.28 1492.08 1473.99"/><polygon class="cls-33" points="1247.25 1457.17 1142.59 1711.35 480.89 1328.89 598.73 1079.98 1247.25 1457.17"/><polygon class="cls-24" points="1951.59 1175.06 1359.26 828.67 867.31 1110.29 1469.17 1459.88 1951.59 1175.06"/><polygon class="cls-46" points="870.95 1112.72 619.37 1091.98 1227.75 1445.83 1469.17 1459.88 870.95 1112.72"/><polygon class="cls-24" points="1227.75 1445.83 619.37 1091.98 511.77 1319.26 1130.94 1677.13 1227.75 1445.83"/><path class="cls-11" d="m1951.59,1175.06l-277.02-44.92s-12.36,16.44-42.5,44.92c-30.14,28.49-64.14,55.53-64.14,55.53l153.77,82.68,229.89-138.21Z"/><polygon class="cls-11" points="1054.82 1002.95 1374.68 1144.27 1264.62 1225.81 1126.36 1099.38 999.93 1189.42 916.25 1192.15 867.31 1110.29 876.85 1104.83 1054.82 1002.95"/><polygon class="cls-15" points="1608.1 977.42 1383.29 1144.27 1203.2 1059.58 1456.87 888.53 1608.1 977.42"/><polygon class="cls-11" points="1227.75 1445.83 978.37 1302.9 864.07 1527.04 1130.94 1677.13 1227.75 1445.83"/><path class="cls-29" d="m691.74,1300.75l-51.61,92.93,20.8,11.55,51.53-92.79,47.82,26.99c27.74,15.66,62.87,7.22,80.47-19.34l72.43-109.32,56.43,93.2-116,213.21,20.9,11.37,107.11-196.85,132.73,335.83,16.58,9.59,6.58-15.72-136.96-346.52,189.03-7.59,2.99-2.28c16.75-12.8,34.41-26.29,52.6-40.17l258.72,174.95,22.62-13.77-261.38-176.41c38.05-29.02,77.86-59.35,116.44-88.69l326.33,157.76,24.84-14.42-150.18-72.6,67.4-48.28c14.41-10.32,25.13-24.43,31.3-40.42l254.25,41.54,16.06-9.43-28.19-16.66-236.58-38.65c.41-4.1.58-8.24.42-12.43-1.14-30.09-17.18-57.38-42.91-73.02l-52.74-32.04c12.87-9.53,26.21-19.86,28.36-21.13-1.88,1.11-22.02-12.89-22.02-12.89-3.63,2.49-8.3,5.93-14.51,10.5-11.8,8.68-28.51,21.16-48.5,36.18-9.88,7.43-20.94,15.77-32.94,24.83l-139.2-77.57,104.41-70.39-22.8-13.33-104.92,70.74-94.33-52.56-26.45,12.51,98.65,54.97-120.36,81.14-114.73-55.21-27.44,12.91,119.34,57.69-172.08,116.01h-81.73l-43.49-71.83-9.55,5.46-15.98-.45,48.23,78.43-76.42,115.34c-11.95,18.04-35.81,23.77-54.65,13.14l-200.89-113.38-8.16,22.72,132.31,74.68Zm789.5-245.33c-26.59,20.12-57.25,43.37-92.02,69.8-3.48,2.64-6.95,5.28-10.42,7.92l-157.02-75.91,118.88-80.15,140.58,78.33Zm-78.41,89.34c67.2-51.07,128.79-97.7,168.18-127.17l60.97,37.04c21.58,13.12,33.88,37.42,31.16,63.19-2.01,19.08-12.93,36.11-28.53,47.28l-76.44,54.75-155.34-75.1Zm-45.28,4.54c-32.02,24.36-62.99,47.96-89.96,68.52l-113.13-115.2,44.48-29.99,158.6,76.67Zm-176.44,134.51l-191.24,7.68-55.12-91.04h74.6l125.05-84.31,114.12,116.22c-34.02,25.95-59.09,45.1-67.41,51.45Z"/><polygon class="cls-44" points="1998.56 1174.96 1492.08 1473.99 1247.25 1457.17 1142.59 1711.35 1142.59 1738.79 1253.74 1473.99 1499.59 1490.01 1998.56 1193.2 1998.56 1174.96"/><polygon class="cls-25" points="1142.59 1711.35 480.89 1328.89 480.89 1356.78 1142.59 1738.79 1142.59 1711.35"/><polygon class="cls-14" points="1951.59 1175.06 1359.26 828.67 867.31 1110.29 619.37 1091.98 511.77 1319.26 523.19 1325.86 630.8 1097.88 884.91 1118.58 1362.09 839.16 1942.76 1181.82 1951.59 1175.06"/><path class="cls-6" d="m827.27,1556.75s-1.21,6.49-2.67,18.28"/><path class="cls-8" d="m821.18,1611.46c-10.17,152.95,10.18,580.69,536.61,686.41,619.94,124.5,990.52-325.53,890.6-620.82"/><path class="cls-6" d="m2241.98,1659.89c-2.33-5.69-4.85-11.31-7.55-16.87"/><polygon class="cls-28" points="1719.54 1262.79 2023.2 1790.89 2437.75 1490.01 1719.54 1262.79"/><polygon class="cls-45" points="1719.54 1262.79 2294.46 1594.01 2221.79 1836.14 2179.94 1677.13 1719.54 1262.79"/><polygon class="cls-32" points="2221.79 1836.14 2109.88 1727.98 2179.94 1677.13 2221.79 1836.14"/><g class="cls-7"><ellipse class="cls-34" cx="1227.75" cy="1032.56" rx="327.9" ry="144.03"/><ellipse class="cls-9" cx="1227.75" cy="1032.56" rx="319.96" ry="140.55"/><ellipse class="cls-40" cx="1227.75" cy="1032.56" rx="312.02" ry="137.06"/><ellipse class="cls-21" cx="1227.75" cy="1032.56" rx="304.09" ry="133.57"/><ellipse class="cls-5" cx="1227.75" cy="1032.56" rx="296.15" ry="130.09"/><ellipse class="cls-18" cx="1227.75" cy="1032.56" rx="288.22" ry="126.6"/><ellipse class="cls-10" cx="1227.75" cy="1032.56" rx="280.28" ry="123.12"/><ellipse class="cls-27" cx="1227.75" cy="1032.56" rx="272.35" ry="119.63"/><ellipse class="cls-39" cx="1227.75" cy="1032.56" rx="264.41" ry="116.14"/><ellipse class="cls-42" cx="1227.75" cy="1032.56" rx="256.47" ry="112.66"/><ellipse class="cls-1" cx="1227.75" cy="1032.56" rx="248.54" ry="109.17"/><ellipse class="cls-22" cx="1227.75" cy="1032.56" rx="240.6" ry="105.69"/><ellipse class="cls-23" cx="1227.75" cy="1032.56" rx="232.67" ry="102.2"/><ellipse class="cls-31" cx="1227.75" cy="1032.56" rx="224.73" ry="98.72"/><ellipse class="cls-26" cx="1227.75" cy="1032.56" rx="216.8" ry="95.23"/><ellipse class="cls-2" cx="1227.75" cy="1032.56" rx="208.86" ry="91.74"/><ellipse class="cls-43" cx="1227.75" cy="1032.56" rx="200.92" ry="88.26"/><ellipse class="cls-30" cx="1227.75" cy="1032.56" rx="192.99" ry="84.77"/><ellipse class="cls-35" cx="1227.75" cy="1032.56" rx="185.05" ry="81.29"/><ellipse class="cls-20" cx="1227.75" cy="1032.56" rx="177.12" ry="77.8"/><ellipse class="cls-17" cx="1227.75" cy="1032.56" rx="169.18" ry="74.31"/><ellipse class="cls-4" cx="1227.75" cy="1032.56" rx="161.25" ry="70.83"/><ellipse class="cls-38" cx="1227.75" cy="1032.56" rx="153.31" ry="67.34"/><ellipse class="cls-13" cx="1227.75" cy="1032.56" rx="145.37" ry="63.86"/><ellipse class="cls-41" cx="1227.75" cy="1032.56" rx="137.44" ry="60.37"/><ellipse class="cls-12" cx="1227.75" cy="1032.56" rx="129.5" ry="56.89"/><ellipse class="cls-36" cx="1227.75" cy="1032.56" rx="121.57" ry="53.4"/></g><path class="cls-19" d="m924.86,412.87c-.02,5.12.1,10.38.55,15.93,17.11,213.88,215.44,483.82,265.96,535.37,5.66,5.77,39.35-16.68,40-16.05v.15s.06-.06.07-.08c.02.02.08.08.08.08v-.15c5.87-6.25,263.22-281.49,262.21-519.33-.03-6.27-.4-12.19-.97-17.92-.03-2.84-.02-5.66-.14-8.52-6.55-155.58-139.12-281.7-296.1-281.7s-278.93,126.12-272.37,281.7c.15,3.52.44,7.02.71,10.51Zm142.27-10.51c-3.26-77.32,57.35-140,135.36-140s143.9,62.68,147.15,140c3.26,77.32-57.35,140-135.36,140s-143.9-62.68-147.16-140Z"/><path class="cls-16" d="m884.71,428.77c-.02,5.12.1,10.38.55,15.93,19.03,237.83,299.56,513.07,305.96,519.33v.15s.06-.06.07-.08c.02.02.08.08.08.08v-.15c5.87-6.25,263.22-281.49,262.21-519.33-.03-6.27-.4-12.19-.97-17.92-.03-2.84-.02-5.66-.14-8.52-6.55-155.58-139.12-281.7-296.1-281.7s-278.93,126.12-272.37,281.7c.15,3.52.44,7.02.71,10.51Zm142.27-10.51c-3.26-77.32,57.35-140,135.36-140s143.9,62.68,147.15,140c3.26,77.32-57.35,140-135.36,140s-143.9-62.68-147.16-140Z"/></svg>