<?xml version="1.0" encoding="UTF-8"?><svg id="Layer_4" xmlns="http://www.w3.org/2000/svg" xmlns:xlink="http://www.w3.org/1999/xlink" viewBox="0 0 1966.79 1471.38"><defs><style>.cls-1{fill:url(#linear-gradient-88);}.cls-1,.cls-2,.cls-3,.cls-4{opacity:.96;}.cls-5{fill:url(#linear-gradient-25);}.cls-5,.cls-6,.cls-7,.cls-8{opacity:.79;}.cls-9{fill:url(#linear-gradient-4);}.cls-9,.cls-10,.cls-11,.cls-12{opacity:.04;}.cls-13{fill:url(#linear-gradient-58);}.cls-13,.cls-14,.cls-15,.cls-16{opacity:.93;}.cls-17{fill:url(#linear-gradient-2);}.cls-18{fill:url(#linear-gradient-42);}.cls-18,.cls-19,.cls-20,.cls-21{opacity:.36;}.cls-22{fill:url(#linear-gradient-12);}.cls-22,.cls-23,.cls-24,.cls-25{opacity:.32;}.cls-14{fill:url(#linear-gradient-29);}.cls-15{fill:url(#linear-gradient-87);}.cls-26{fill:url(#linear-gradient-43);}.cls-26,.cls-27,.cls-28,.cls-29{opacity:.39;}.cls-30{fill:#fff;}.cls-31{fill:url(#linear-gradient-22);}.cls-31,.cls-32,.cls-33,.cls-34{opacity:.68;}.cls-35{fill:url(#linear-gradient-64);}.cls-35,.cls-36,.cls-37,.cls-38{opacity:.11;}.cls-39{fill:url(#linear-gradient-69);}.cls-39,.cls-40,.cls-41,.cls-42{opacity:.29;}.cls-43{fill:url(#linear-gradient-8);}.cls-43,.cls-44,.cls-45,.cls-46{opacity:.18;}.cls-47{fill:url(#linear-gradient-93);}.cls-48{fill:url(#linear-gradient-92);}.cls-49{fill:url(#linear-gradient-16);}.cls-49,.cls-50,.cls-51,.cls-52{opacity:.46;}.cls-36{fill:url(#linear-gradient-114);}.cls-53{fill:url(#linear-gradient-109);}.cls-54{fill:url(#linear-gradient-32);}.cls-54,.cls-55,.cls-56,.cls-57{opacity:0;}.cls-37{fill:url(#linear-gradient-35);}.cls-58{fill:url(#linear-gradient-115);}.cls-58,.cls-59,.cls-60,.cls-61{opacity:.14;}.cls-62{fill:url(#linear-gradient-47);}.cls-62,.cls-63,.cls-64,.cls-65{opacity:.54;}.cls-23{fill:url(#linear-gradient-120);}.cls-66{fill:#929496;}.cls-67{fill:url(#linear-gradient-134);}.cls-67,.cls-68,.cls-69,.cls-70{opacity:.82;}.cls-71{fill:url(#linear-gradient-117);}.cls-71,.cls-72,.cls-73,.cls-74{opacity:.21;}.cls-68{fill:url(#linear-gradient-55);}.cls-44{fill:url(#linear-gradient-116);}.cls-75{fill:url(#linear-gradient-132);}.cls-75,.cls-76,.cls-77,.cls-78{opacity:.75;}.cls-79{fill:#bababa;}.cls-50{fill:url(#linear-gradient-74);}.cls-80{opacity:.18;}.cls-80,.cls-81,.cls-82{fill:none;}.cls-83{fill:url(#linear-gradient-56);}.cls-83,.cls-84,.cls-85,.cls-86{opacity:.86;}.cls-6{fill:url(#linear-gradient-133);}.cls-87{fill:url(#linear-gradient-57);}.cls-87,.cls-88,.cls-89,.cls-90{opacity:.89;}.cls-91{fill:url(#linear-gradient-91);}.cls-92{fill:url(#linear-gradient-60);}.cls-10{fill:url(#linear-gradient-112);}.cls-93{fill:url(#linear-gradient-108);}.cls-94{fill:url(#linear-gradient-104);}.cls-95{fill:url(#linear-gradient-131);}.cls-95,.cls-96,.cls-97,.cls-98{opacity:.71;}.cls-99{fill:url(#linear-gradient-50);}.cls-99,.cls-100,.cls-101,.cls-102{opacity:.64;}.cls-19{fill:url(#linear-gradient-13);}.cls-103{fill:url(#linear-gradient-113);}.cls-103,.cls-104,.cls-105,.cls-106{opacity:.07;}.cls-63{fill:url(#linear-gradient-126);}.cls-107{fill:url(#linear-gradient-97);}.cls-108{fill:url(#linear-gradient-49);}.cls-108,.cls-109,.cls-110,.cls-111{opacity:.61;}.cls-112{fill:url(#linear-gradient-106);}.cls-72{fill:url(#linear-gradient-67);}.cls-113{fill:url(#linear-gradient-95);}.cls-88{fill:url(#linear-gradient-86);}.cls-11{fill:url(#linear-gradient-62);}.cls-96{fill:url(#linear-gradient-81);}.cls-114{fill:url(#linear-gradient-48);}.cls-114,.cls-115,.cls-116,.cls-117{opacity:.57;}.cls-118{fill:url(#linear-gradient-141);}.cls-100{fill:url(#linear-gradient-129);}.cls-119{fill:url(#linear-gradient-110);}.cls-24{fill:url(#linear-gradient-70);}.cls-40{fill:url(#linear-gradient-40);}.cls-45{fill:url(#linear-gradient-37);}.cls-120{fill:url(#linear-gradient-39);}.cls-120,.cls-121,.cls-122,.cls-123{opacity:.25;}.cls-55{fill:url(#linear-gradient-61);}.cls-124{fill:url(#linear-gradient-98);opacity:.47;}.cls-73{fill:url(#linear-gradient-38);}.cls-125{fill:url(#linear-gradient-143);}.cls-115{fill:url(#linear-gradient-127);}.cls-16{fill:url(#linear-gradient-137);}.cls-74{fill:url(#linear-gradient-9);}.cls-116{fill:url(#linear-gradient-19);}.cls-38{fill:url(#linear-gradient-6);}.cls-126{fill:url(#linear-gradient-123);}.cls-126,.cls-127,.cls-128,.cls-129{opacity:.43;}.cls-2{fill:url(#linear-gradient-59);}.cls-59{fill:url(#linear-gradient-36);}.cls-130{fill:url(#linear-gradient-46);}.cls-130,.cls-131,.cls-132,.cls-133{opacity:.5;}.cls-60{fill:url(#linear-gradient-7);}.cls-89{fill:url(#linear-gradient-28);}.cls-134{fill:url(#linear-gradient-31);}.cls-135{fill:#bbbdbf;}.cls-131{fill:url(#linear-gradient-75);}.cls-76{fill:url(#linear-gradient-24);}.cls-25{fill:url(#linear-gradient-41);}.cls-117{fill:url(#linear-gradient-77);}.cls-136{fill:url(#linear-gradient-103);}.cls-64{fill:url(#linear-gradient-18);}.cls-137{fill:url(#linear-gradient-107);}.cls-101{fill:url(#linear-gradient-21);}.cls-81{isolation:isolate;}.cls-127{fill:url(#linear-gradient-15);}.cls-20{fill:url(#linear-gradient-121);}.cls-82{opacity:.32;}.cls-121{fill:url(#linear-gradient-118);}.cls-32{fill:url(#linear-gradient-51);}.cls-84{fill:url(#linear-gradient-27);}.cls-138{fill:url(#linear-gradient-89);}.cls-90{fill:url(#linear-gradient-136);}.cls-122{fill:url(#linear-gradient-10);}.cls-69{fill:url(#linear-gradient-84);}.cls-139{fill:url(#linear-gradient-102);}.cls-109{fill:url(#linear-gradient-128);}.cls-140{fill:#094eb2;}.cls-51{fill:url(#linear-gradient-45);}.cls-65{fill:url(#linear-gradient-76);}.cls-7{fill:url(#linear-gradient-83);}.cls-128{fill:url(#linear-gradient-73);}.cls-132{fill:url(#linear-gradient-125);}.cls-33{fill:url(#linear-gradient-130);}.cls-56{fill:url(#linear-gradient-111);}.cls-141{fill:url(#linear-gradient-140);}.cls-85{fill:url(#linear-gradient-85);}.cls-3{fill:url(#linear-gradient-30);}.cls-142{fill:#dcdcdc;}.cls-52{fill:url(#linear-gradient-124);}.cls-12{fill:url(#linear-gradient-33);}.cls-4{fill:url(#linear-gradient-138);}.cls-143{fill:url(#linear-gradient-96);}.cls-97{fill:url(#linear-gradient-23);}.cls-8{fill:url(#linear-gradient-54);}.cls-34{fill:url(#linear-gradient-80);}.cls-144{fill:url(#linear-gradient-139);}.cls-104{fill:url(#linear-gradient-63);}.cls-145{fill:url(#linear-gradient-100);}.cls-146{fill:url(#linear-gradient-105);}.cls-105{fill:url(#linear-gradient-5);}.cls-86{fill:url(#linear-gradient-135);}.cls-61{fill:url(#linear-gradient-65);}.cls-147{fill:url(#linear-gradient-99);}.cls-41{fill:url(#linear-gradient-119);}.cls-102{fill:url(#linear-gradient-79);}.cls-77{fill:url(#linear-gradient-53);}.cls-123{fill:url(#linear-gradient-68);}.cls-148{fill:url(#linear-gradient);}.cls-27{fill:url(#linear-gradient-122);}.cls-78{fill:url(#linear-gradient-82);}.cls-21{fill:url(#linear-gradient-71);}.cls-106{fill:url(#linear-gradient-34);}.cls-129{fill:url(#linear-gradient-44);}.cls-28{fill:url(#linear-gradient-14);}.cls-149{fill:url(#linear-gradient-142);}.cls-98{fill:url(#linear-gradient-52);}.cls-150{fill:url(#linear-gradient-94);}.cls-29{fill:url(#linear-gradient-72);}.cls-110{fill:url(#linear-gradient-20);}.cls-46{fill:url(#linear-gradient-66);}.cls-57{fill:url(#linear-gradient-3);}.cls-151{fill:url(#linear-gradient-90);}.cls-42{fill:url(#linear-gradient-11);}.cls-111{fill:url(#linear-gradient-78);}.cls-133{fill:url(#linear-gradient-17);}.cls-70{fill:url(#linear-gradient-26);}.cls-152{fill:url(#linear-gradient-101);}</style><linearGradient id="linear-gradient" x1="1553.46" y1="1264.18" x2="427.99" y2="1264.18" gradientUnits="userSpaceOnUse"><stop offset="0" stop-color="#cfcecf"/><stop offset="1" stop-color="#fdfdfd"/></linearGradient><linearGradient id="linear-gradient-2" x1="0" y1="1226.03" x2="1837" y2="1226.03" xlink:href="#linear-gradient"/><linearGradient id="linear-gradient-3" x1="1888.44" y1="1372.38" x2="2103.01" y2="1372.38" gradientTransform="translate(5626.8 -5926.73) rotate(89.97) scale(3.58 3.72)" gradientUnits="userSpaceOnUse"><stop offset="0" stop-color="#161616"/><stop offset="1" stop-color="#313031"/></linearGradient><linearGradient id="linear-gradient-4" x1="1892.41" y1="1372.38" x2="2102.57" y2="1372.38" gradientTransform="translate(5633.1 -5932.74) rotate(89.97) scale(3.58 3.72)" xlink:href="#linear-gradient-3"/><linearGradient id="linear-gradient-5" x1="1896.38" y1="1372.38" x2="2102.12" y2="1372.38" gradientTransform="translate(5639.41 -5938.76) rotate(89.97) scale(3.58 3.72)" xlink:href="#linear-gradient-3"/><linearGradient id="linear-gradient-6" x1="1900.34" y1="1372.38" x2="2101.68" y2="1372.38" gradientTransform="translate(5645.71 -5944.77) rotate(89.97) scale(3.58 3.72)" xlink:href="#linear-gradient-3"/><linearGradient id="linear-gradient-7" x1="1904.31" y1="1372.38" x2="2101.24" y2="1372.38" gradientTransform="translate(5652.02 -5950.79) rotate(89.97) scale(3.58 3.72)" xlink:href="#linear-gradient-3"/><linearGradient id="linear-gradient-8" x1="1908.28" y1="1372.38" x2="2100.8" y2="1372.38" gradientTransform="translate(5658.33 -5956.8) rotate(89.97) scale(3.58 3.72)" xlink:href="#linear-gradient-3"/><linearGradient id="linear-gradient-9" x1="1912.24" y1="1372.38" x2="2100.36" y2="1372.38" gradientTransform="translate(5664.63 -5962.82) rotate(89.97) scale(3.58 3.72)" xlink:href="#linear-gradient-3"/><linearGradient id="linear-gradient-10" x1="1916.21" y1="1372.38" x2="2099.91" y2="1372.38" gradientTransform="translate(5670.94 -5968.83) rotate(89.97) scale(3.58 3.72)" xlink:href="#linear-gradient-3"/><linearGradient id="linear-gradient-11" x1="1920.18" y1="1372.39" x2="2099.47" y2="1372.39" gradientTransform="translate(5677.24 -5974.85) rotate(89.97) scale(3.58 3.72)" xlink:href="#linear-gradient-3"/><linearGradient id="linear-gradient-12" x1="1924.15" y1="1372.39" x2="2099.03" y2="1372.39" gradientTransform="translate(5683.55 -5980.86) rotate(89.97) scale(3.58 3.72)" xlink:href="#linear-gradient-3"/><linearGradient id="linear-gradient-13" x1="1928.11" y1="1372.39" x2="2098.59" y2="1372.39" gradientTransform="translate(5689.86 -5986.88) rotate(89.97) scale(3.58 3.72)" xlink:href="#linear-gradient-3"/><linearGradient id="linear-gradient-14" x1="1932.08" y1="1372.39" x2="2098.15" y2="1372.39" gradientTransform="translate(5696.16 -5992.89) rotate(89.97) scale(3.58 3.72)" xlink:href="#linear-gradient-3"/><linearGradient id="linear-gradient-15" x1="1936.05" y1="1372.39" x2="2097.7" y2="1372.39" gradientTransform="translate(5702.47 -5998.91) rotate(89.97) scale(3.58 3.72)" xlink:href="#linear-gradient-3"/><linearGradient id="linear-gradient-16" x1="1940.01" y1="1372.39" x2="2097.26" y2="1372.39" gradientTransform="translate(5708.78 -6004.92) rotate(89.97) scale(3.58 3.72)" xlink:href="#linear-gradient-3"/><linearGradient id="linear-gradient-17" x1="1943.98" y1="1372.39" x2="2096.82" y2="1372.39" gradientTransform="translate(5715.08 -6010.94) rotate(89.97) scale(3.58 3.72)" xlink:href="#linear-gradient-3"/><linearGradient id="linear-gradient-18" x1="1947.95" y1="1372.39" x2="2096.38" y2="1372.39" gradientTransform="translate(5721.39 -6016.95) rotate(89.97) scale(3.58 3.72)" xlink:href="#linear-gradient-3"/><linearGradient id="linear-gradient-19" x1="1951.91" y1="1372.39" x2="2095.93" y2="1372.39" gradientTransform="translate(5727.69 -6022.97) rotate(89.97) scale(3.58 3.72)" xlink:href="#linear-gradient-3"/><linearGradient id="linear-gradient-20" x1="1955.88" y1="1372.39" x2="2095.49" y2="1372.39" gradientTransform="translate(5734 -6028.98) rotate(89.97) scale(3.58 3.72)" xlink:href="#linear-gradient-3"/><linearGradient id="linear-gradient-21" x1="1959.85" y1="1372.39" x2="2095.05" y2="1372.39" gradientTransform="translate(5740.31 -6035) rotate(89.97) scale(3.58 3.72)" xlink:href="#linear-gradient-3"/><linearGradient id="linear-gradient-22" x1="1963.81" y1="1372.39" x2="2094.61" y2="1372.39" gradientTransform="translate(5746.61 -6041.01) rotate(89.97) scale(3.58 3.72)" xlink:href="#linear-gradient-3"/><linearGradient id="linear-gradient-23" x1="1967.78" y1="1372.39" x2="2094.17" y2="1372.39" gradientTransform="translate(5752.92 -6047.03) rotate(89.97) scale(3.58 3.72)" xlink:href="#linear-gradient-3"/><linearGradient id="linear-gradient-24" x1="1971.75" y1="1372.39" x2="2093.72" y2="1372.39" gradientTransform="translate(5759.23 -6053.04) rotate(89.97) scale(3.58 3.72)" xlink:href="#linear-gradient-3"/><linearGradient id="linear-gradient-25" x1="1975.71" y1="1372.39" x2="2093.28" y2="1372.39" gradientTransform="translate(5765.53 -6059.05) rotate(89.97) scale(3.58 3.72)" xlink:href="#linear-gradient-3"/><linearGradient id="linear-gradient-26" x1="1979.68" y1="1372.4" x2="2092.84" y2="1372.4" gradientTransform="translate(5771.84 -6065.07) rotate(89.97) scale(3.58 3.72)" xlink:href="#linear-gradient-3"/><linearGradient id="linear-gradient-27" x1="1983.65" y1="1372.4" x2="2092.4" y2="1372.4" gradientTransform="translate(5778.14 -6071.09) rotate(89.97) scale(3.58 3.72)" xlink:href="#linear-gradient-3"/><linearGradient id="linear-gradient-28" x1="1987.62" y1="1372.4" x2="2091.96" y2="1372.4" gradientTransform="translate(5784.45 -6077.1) rotate(89.97) scale(3.58 3.72)" xlink:href="#linear-gradient-3"/><linearGradient id="linear-gradient-29" x1="1991.58" y1="1372.4" x2="2091.51" y2="1372.4" gradientTransform="translate(5790.76 -6083.11) rotate(89.97) scale(3.58 3.72)" xlink:href="#linear-gradient-3"/><linearGradient id="linear-gradient-30" x1="1995.55" y1="1372.4" x2="2091.07" y2="1372.4" gradientTransform="translate(5797.06 -6089.13) rotate(89.97) scale(3.58 3.72)" xlink:href="#linear-gradient-3"/><linearGradient id="linear-gradient-31" x1="1999.52" y1="1372.4" x2="2090.63" y2="1372.4" gradientTransform="translate(5803.37 -6095.14) rotate(89.97) scale(3.58 3.72)" xlink:href="#linear-gradient-3"/><linearGradient id="linear-gradient-32" x1="2004.48" y1="1398.01" x2="2219.04" y2="1398.01" gradientTransform="translate(6132.58 -6227.79) rotate(89.97) scale(3.58 3.72)" xlink:href="#linear-gradient-3"/><linearGradient id="linear-gradient-33" x1="2008.44" y1="1398.02" x2="2218.6" y2="1398.02" gradientTransform="translate(6138.89 -6233.81) rotate(89.97) scale(3.58 3.72)" xlink:href="#linear-gradient-3"/><linearGradient id="linear-gradient-34" x1="2012.41" y1="1398.02" x2="2218.16" y2="1398.02" gradientTransform="translate(6145.2 -6239.82) rotate(89.97) scale(3.58 3.72)" xlink:href="#linear-gradient-3"/><linearGradient id="linear-gradient-35" x1="2016.38" y1="1398.02" x2="2217.71" y2="1398.02" gradientTransform="translate(6151.5 -6245.84) rotate(89.97) scale(3.58 3.72)" xlink:href="#linear-gradient-3"/><linearGradient id="linear-gradient-36" x1="2020.34" y1="1398.02" x2="2217.27" y2="1398.02" gradientTransform="translate(6157.81 -6251.85) rotate(89.97) scale(3.58 3.72)" xlink:href="#linear-gradient-3"/><linearGradient id="linear-gradient-37" x1="2024.31" y1="1398.02" x2="2216.83" y2="1398.02" gradientTransform="translate(6164.11 -6257.87) rotate(89.97) scale(3.58 3.72)" xlink:href="#linear-gradient-3"/><linearGradient id="linear-gradient-38" x1="2028.28" y1="1398.02" x2="2216.39" y2="1398.02" gradientTransform="translate(6170.42 -6263.88) rotate(89.97) scale(3.58 3.72)" xlink:href="#linear-gradient-3"/><linearGradient id="linear-gradient-39" x1="2032.24" y1="1398.02" x2="2215.95" y2="1398.02" gradientTransform="translate(6176.72 -6269.9) rotate(89.97) scale(3.58 3.72)" xlink:href="#linear-gradient-3"/><linearGradient id="linear-gradient-40" x1="2036.21" y1="1398.02" x2="2215.5" y2="1398.02" gradientTransform="translate(6183.03 -6275.91) rotate(89.97) scale(3.58 3.72)" xlink:href="#linear-gradient-3"/><linearGradient id="linear-gradient-41" x1="2040.18" y1="1398.02" x2="2215.06" y2="1398.02" gradientTransform="translate(6189.34 -6281.93) rotate(89.97) scale(3.58 3.72)" xlink:href="#linear-gradient-3"/><linearGradient id="linear-gradient-42" x1="2044.14" y1="1398.02" x2="2214.62" y2="1398.02" gradientTransform="translate(6195.64 -6287.94) rotate(89.97) scale(3.58 3.72)" xlink:href="#linear-gradient-3"/><linearGradient id="linear-gradient-43" x1="2048.11" y1="1398.02" x2="2214.18" y2="1398.02" gradientTransform="translate(6201.95 -6293.96) rotate(89.97) scale(3.58 3.72)" xlink:href="#linear-gradient-3"/><linearGradient id="linear-gradient-44" x1="2052.08" y1="1398.02" x2="2213.73" y2="1398.02" gradientTransform="translate(6208.26 -6299.97) rotate(89.97) scale(3.58 3.72)" xlink:href="#linear-gradient-3"/><linearGradient id="linear-gradient-45" x1="2056.04" y1="1398.02" x2="2213.29" y2="1398.02" gradientTransform="translate(6214.56 -6305.99) rotate(89.97) scale(3.58 3.72)" xlink:href="#linear-gradient-3"/><linearGradient id="linear-gradient-46" x1="2060.01" y1="1398.02" x2="2212.85" y2="1398.02" gradientTransform="translate(6220.87 -6312) rotate(89.97) scale(3.58 3.72)" xlink:href="#linear-gradient-3"/><linearGradient id="linear-gradient-47" x1="2063.98" y1="1398.02" x2="2212.41" y2="1398.02" gradientTransform="translate(6227.17 -6318.02) rotate(89.97) scale(3.58 3.72)" xlink:href="#linear-gradient-3"/><linearGradient id="linear-gradient-48" x1="2067.94" y1="1398.03" x2="2211.97" y2="1398.03" gradientTransform="translate(6233.48 -6324.03) rotate(89.97) scale(3.58 3.72)" xlink:href="#linear-gradient-3"/><linearGradient id="linear-gradient-49" x1="2071.91" y1="1398.03" x2="2211.52" y2="1398.03" gradientTransform="translate(6239.79 -6330.05) rotate(89.97) scale(3.58 3.72)" xlink:href="#linear-gradient-3"/><linearGradient id="linear-gradient-50" x1="2075.88" y1="1398.03" x2="2211.08" y2="1398.03" gradientTransform="translate(6246.09 -6336.06) rotate(89.97) scale(3.58 3.72)" xlink:href="#linear-gradient-3"/><linearGradient id="linear-gradient-51" x1="2079.85" y1="1398.03" x2="2210.64" y2="1398.03" gradientTransform="translate(6252.4 -6342.08) rotate(89.97) scale(3.58 3.72)" xlink:href="#linear-gradient-3"/><linearGradient id="linear-gradient-52" x1="2083.81" y1="1398.03" x2="2210.2" y2="1398.03" gradientTransform="translate(6258.71 -6348.09) rotate(89.97) scale(3.58 3.72)" xlink:href="#linear-gradient-3"/><linearGradient id="linear-gradient-53" x1="2087.78" y1="1398.03" x2="2209.76" y2="1398.03" gradientTransform="translate(6265.01 -6354.11) rotate(89.97) scale(3.58 3.72)" xlink:href="#linear-gradient-3"/><linearGradient id="linear-gradient-54" x1="2091.75" y1="1398.03" x2="2209.31" y2="1398.03" gradientTransform="translate(6271.32 -6360.12) rotate(89.97) scale(3.58 3.72)" xlink:href="#linear-gradient-3"/><linearGradient id="linear-gradient-55" x1="2095.71" y1="1398.03" x2="2208.87" y2="1398.03" gradientTransform="translate(6277.63 -6366.13) rotate(89.97) scale(3.58 3.72)" xlink:href="#linear-gradient-3"/><linearGradient id="linear-gradient-56" x1="2099.68" y1="1398.03" x2="2208.43" y2="1398.03" gradientTransform="translate(6283.93 -6372.15) rotate(89.97) scale(3.58 3.72)" xlink:href="#linear-gradient-3"/><linearGradient id="linear-gradient-57" x1="2103.65" y1="1398.03" x2="2207.99" y2="1398.03" gradientTransform="translate(6290.24 -6378.17) rotate(89.97) scale(3.58 3.72)" xlink:href="#linear-gradient-3"/><linearGradient id="linear-gradient-58" x1="2107.61" y1="1398.03" x2="2207.55" y2="1398.03" gradientTransform="translate(6296.54 -6384.18) rotate(89.97) scale(3.58 3.72)" xlink:href="#linear-gradient-3"/><linearGradient id="linear-gradient-59" x1="2111.58" y1="1398.03" x2="2207.1" y2="1398.03" gradientTransform="translate(6302.85 -6390.19) rotate(89.97) scale(3.58 3.72)" xlink:href="#linear-gradient-3"/><linearGradient id="linear-gradient-60" x1="2115.55" y1="1398.03" x2="2206.66" y2="1398.03" gradientTransform="translate(6309.15 -6396.21) rotate(89.97) scale(3.58 3.72)" xlink:href="#linear-gradient-3"/><linearGradient id="linear-gradient-61" x1="2065.76" y1="1356.63" x2="2280.33" y2="1356.63" gradientTransform="translate(6205.27 -6590.6) rotate(89.97) scale(3.58 3.72)" xlink:href="#linear-gradient-3"/><linearGradient id="linear-gradient-62" x1="2069.73" y1="1356.63" x2="2279.89" y2="1356.63" gradientTransform="translate(6211.58 -6596.62) rotate(89.97) scale(3.58 3.72)" xlink:href="#linear-gradient-3"/><linearGradient id="linear-gradient-63" x1="2073.7" y1="1356.63" x2="2279.44" y2="1356.63" gradientTransform="translate(6217.89 -6602.63) rotate(89.97) scale(3.58 3.72)" xlink:href="#linear-gradient-3"/><linearGradient id="linear-gradient-64" x1="2077.66" y1="1356.63" x2="2279" y2="1356.63" gradientTransform="translate(6224.19 -6608.65) rotate(89.97) scale(3.58 3.72)" xlink:href="#linear-gradient-3"/><linearGradient id="linear-gradient-65" x1="2081.63" y1="1356.63" x2="2278.56" y2="1356.63" gradientTransform="translate(6230.5 -6614.66) rotate(89.97) scale(3.58 3.72)" xlink:href="#linear-gradient-3"/><linearGradient id="linear-gradient-66" x1="2085.6" y1="1356.63" x2="2278.12" y2="1356.63" gradientTransform="translate(6236.81 -6620.68) rotate(89.97) scale(3.58 3.72)" xlink:href="#linear-gradient-3"/><linearGradient id="linear-gradient-67" x1="2089.56" y1="1356.63" x2="2277.68" y2="1356.63" gradientTransform="translate(6243.11 -6626.69) rotate(89.97) scale(3.58 3.72)" xlink:href="#linear-gradient-3"/><linearGradient id="linear-gradient-68" x1="2093.53" y1="1356.63" x2="2277.23" y2="1356.63" gradientTransform="translate(6249.42 -6632.71) rotate(89.97) scale(3.58 3.72)" xlink:href="#linear-gradient-3"/><linearGradient id="linear-gradient-69" x1="2097.5" y1="1356.63" x2="2276.79" y2="1356.63" gradientTransform="translate(6255.72 -6638.72) rotate(89.97) scale(3.58 3.72)" xlink:href="#linear-gradient-3"/><linearGradient id="linear-gradient-70" x1="2101.47" y1="1356.63" x2="2276.35" y2="1356.63" gradientTransform="translate(6262.03 -6644.74) rotate(89.97) scale(3.58 3.72)" xlink:href="#linear-gradient-3"/><linearGradient id="linear-gradient-71" x1="2105.43" y1="1356.63" x2="2275.91" y2="1356.63" gradientTransform="translate(6268.34 -6650.75) rotate(89.97) scale(3.58 3.72)" xlink:href="#linear-gradient-3"/><linearGradient id="linear-gradient-72" x1="2109.4" y1="1356.64" x2="2275.46" y2="1356.64" gradientTransform="translate(6274.64 -6656.76) rotate(89.97) scale(3.58 3.72)" xlink:href="#linear-gradient-3"/><linearGradient id="linear-gradient-73" x1="2113.37" y1="1356.64" x2="2275.02" y2="1356.64" gradientTransform="translate(6280.95 -6662.78) rotate(89.97) scale(3.58 3.72)" xlink:href="#linear-gradient-3"/><linearGradient id="linear-gradient-74" x1="2117.33" y1="1356.64" x2="2274.58" y2="1356.64" gradientTransform="translate(6287.26 -6668.79) rotate(89.97) scale(3.58 3.72)" xlink:href="#linear-gradient-3"/><linearGradient id="linear-gradient-75" x1="2121.3" y1="1356.64" x2="2274.14" y2="1356.64" gradientTransform="translate(6293.56 -6674.81) rotate(89.97) scale(3.58 3.72)" xlink:href="#linear-gradient-3"/><linearGradient id="linear-gradient-76" x1="2125.27" y1="1356.64" x2="2273.7" y2="1356.64" gradientTransform="translate(6299.87 -6680.82) rotate(89.97) scale(3.58 3.72)" xlink:href="#linear-gradient-3"/><linearGradient id="linear-gradient-77" x1="2129.23" y1="1356.64" x2="2273.25" y2="1356.64" gradientTransform="translate(6306.17 -6686.84) rotate(89.97) scale(3.58 3.72)" xlink:href="#linear-gradient-3"/><linearGradient id="linear-gradient-78" x1="2133.2" y1="1356.64" x2="2272.81" y2="1356.64" gradientTransform="translate(6312.48 -6692.85) rotate(89.97) scale(3.58 3.72)" xlink:href="#linear-gradient-3"/><linearGradient id="linear-gradient-79" x1="2137.17" y1="1356.64" x2="2272.37" y2="1356.64" gradientTransform="translate(6318.79 -6698.87) rotate(89.97) scale(3.58 3.72)" xlink:href="#linear-gradient-3"/><linearGradient id="linear-gradient-80" x1="2141.13" y1="1356.64" x2="2271.93" y2="1356.64" gradientTransform="translate(6325.09 -6704.88) rotate(89.97) scale(3.58 3.72)" xlink:href="#linear-gradient-3"/><linearGradient id="linear-gradient-81" x1="2145.1" y1="1356.64" x2="2271.49" y2="1356.64" gradientTransform="translate(6331.4 -6710.9) rotate(89.97) scale(3.58 3.72)" xlink:href="#linear-gradient-3"/><linearGradient id="linear-gradient-82" x1="2149.07" y1="1356.64" x2="2271.04" y2="1356.64" gradientTransform="translate(6337.7 -6716.91) rotate(89.97) scale(3.58 3.72)" xlink:href="#linear-gradient-3"/><linearGradient id="linear-gradient-83" x1="2153.03" y1="1356.64" x2="2270.6" y2="1356.64" gradientTransform="translate(6344.01 -6722.93) rotate(89.97) scale(3.58 3.72)" xlink:href="#linear-gradient-3"/><linearGradient id="linear-gradient-84" x1="2157" y1="1356.64" x2="2270.16" y2="1356.64" gradientTransform="translate(6350.32 -6728.94) rotate(89.97) scale(3.58 3.72)" xlink:href="#linear-gradient-3"/><linearGradient id="linear-gradient-85" x1="2160.97" y1="1356.64" x2="2269.72" y2="1356.64" gradientTransform="translate(6356.62 -6734.96) rotate(89.97) scale(3.58 3.72)" xlink:href="#linear-gradient-3"/><linearGradient id="linear-gradient-86" x1="2164.93" y1="1356.64" x2="2269.28" y2="1356.64" gradientTransform="translate(6362.93 -6740.97) rotate(89.97) scale(3.58 3.72)" xlink:href="#linear-gradient-3"/><linearGradient id="linear-gradient-87" x1="2168.9" y1="1356.65" x2="2268.83" y2="1356.65" gradientTransform="translate(6369.23 -6746.99) rotate(89.97) scale(3.58 3.72)" xlink:href="#linear-gradient-3"/><linearGradient id="linear-gradient-88" x1="2172.87" y1="1356.65" x2="2268.39" y2="1356.65" gradientTransform="translate(6375.54 -6753) rotate(89.97) scale(3.58 3.72)" xlink:href="#linear-gradient-3"/><linearGradient id="linear-gradient-89" x1="2176.84" y1="1356.65" x2="2267.95" y2="1356.65" gradientTransform="translate(6381.85 -6759.02) rotate(89.97) scale(3.58 3.72)" xlink:href="#linear-gradient-3"/><linearGradient id="linear-gradient-90" x1="1343.72" y1="1291.7" x2="1213.26" y2="1030.77" gradientUnits="userSpaceOnUse"><stop offset="0" stop-color="#094eb2"/><stop offset="1" stop-color="#40b7f0"/></linearGradient><linearGradient id="linear-gradient-91" x1="750.48" y1="157.23" x2="1026.75" y2="157.23" gradientUnits="userSpaceOnUse"><stop offset="0" stop-color="#094eb2"/><stop offset="1" stop-color="#0a3b63"/></linearGradient><linearGradient id="linear-gradient-92" x1="763.65" y1="425.77" x2="967.21" y2="275.61" gradientTransform="translate(415.81 -480.39) rotate(39.39)" xlink:href="#linear-gradient-90"/><linearGradient id="linear-gradient-93" x1="1056.22" y1="332.21" x2="728.15" y2="510.78" gradientTransform="translate(466.76 -491.73) rotate(39.39)" xlink:href="#linear-gradient-90"/><linearGradient id="linear-gradient-94" x1="1311.48" y1="1042.08" x2="1167.51" y2="445.33" gradientTransform="translate(-35.73 -143.64) rotate(2.11) skewX(2.08)" xlink:href="#linear-gradient-90"/><linearGradient id="linear-gradient-95" x1="1033.99" y1="410.8" x2="1092.42" y2="1153.61" gradientTransform="translate(318.75 -462.53) rotate(22.26) skewX(2.08)" xlink:href="#linear-gradient-90"/><linearGradient id="linear-gradient-96" x1="1003.84" y1="1021.38" x2="894.08" y2="765.27" gradientTransform="translate(-35.73 -143.64) rotate(2.11) skewX(2.08)" xlink:href="#linear-gradient-90"/><linearGradient id="linear-gradient-97" x1="917.13" y1="995.63" x2="1131.4" y2="506.38" xlink:href="#linear-gradient"/><linearGradient id="linear-gradient-98" x1="1068.92" y1="299.3" x2="1122.21" y2="976.84" gradientUnits="userSpaceOnUse"><stop offset="0" stop-color="#fff"/><stop offset="1" stop-color="#40b7f0"/></linearGradient><linearGradient id="linear-gradient-99" x1="1532.05" y1="550.28" x2="1475.6" y2="418.57" gradientTransform="translate(375.3 -733.56) rotate(31.19) scale(1 .99) skewX(7.9)" xlink:href="#linear-gradient-90"/><linearGradient id="linear-gradient-100" x1="6430.48" y1="278.44" x2="6554.58" y2="278.44" gradientTransform="translate(7641.55) rotate(-180) scale(1 -1)" gradientUnits="userSpaceOnUse"><stop offset="0" stop-color="#b5b4b5"/><stop offset="1" stop-color="#fdfdfd"/></linearGradient><linearGradient id="linear-gradient-101" x1="6544.74" y1="259.69" x2="6438.66" y2="259.69" xlink:href="#linear-gradient-100"/><linearGradient id="linear-gradient-102" x1="6464.47" y1="193.55" x2="6520.6" y2="193.55" xlink:href="#linear-gradient-100"/><linearGradient id="linear-gradient-103" x1="6240.26" y1="-645.36" x2="6201.4" y2="-704.3" gradientTransform="translate(7295.03 -1098.96) rotate(162.87) scale(1 -1)" xlink:href="#linear-gradient-100"/><linearGradient id="linear-gradient-104" x1="6132.27" y1="-636.06" x2="6106.35" y2="-582.82" gradientTransform="translate(7295.03 -1098.96) rotate(162.87) scale(1 -1)" xlink:href="#linear-gradient-100"/><linearGradient id="linear-gradient-105" x1="1571.97" y1="534.24" x2="1164.09" y2="70.86" xlink:href="#linear-gradient-90"/><linearGradient id="linear-gradient-106" x1="775.02" y1="254.45" x2="1537.31" y2="254.45" xlink:href="#linear-gradient-90"/><linearGradient id="linear-gradient-107" x1="1000.94" y1="842.52" x2="531.86" y2="-323.6" gradientTransform="translate(-457.89 794.98) rotate(-9.85) scale(1.13 .99) skewX(-8.63)" gradientUnits="userSpaceOnUse"><stop offset="0" stop-color="#d8d8da"/><stop offset="1" stop-color="#d3d3d5"/></linearGradient><linearGradient id="linear-gradient-108" x1="775.79" y1="597.12" x2="1115.4" y2="-113.74" gradientTransform="translate(-457.89 794.98) rotate(-9.85) scale(1.13 .99) skewX(-8.63)" gradientUnits="userSpaceOnUse"><stop offset="0" stop-color="#efefef"/><stop offset="1" stop-color="#fdfdfd"/></linearGradient><linearGradient id="linear-gradient-109" x1="478.05" y1="207.12" x2="1114.09" y2="207.12" xlink:href="#linear-gradient-107"/><linearGradient id="linear-gradient-110" x1="955.15" y1="-2.29" x2="819.2" y2="424.11" gradientTransform="translate(-457.89 794.98) rotate(-9.85) scale(1.13 .99) skewX(-8.63)" gradientUnits="userSpaceOnUse"><stop offset="0" stop-color="#ff7b7b"/><stop offset="1" stop-color="#e02d2d"/></linearGradient><linearGradient id="linear-gradient-111" x1="2174.56" y1="1270.35" x2="2348.27" y2="1270.35" gradientTransform="translate(-6567.41 -3450.65) rotate(-.03) scale(3.58 3.72) skewX(-.01)" xlink:href="#linear-gradient-3"/><linearGradient id="linear-gradient-112" x1="2177.78" y1="1270.35" x2="2347.91" y2="1270.35" gradientTransform="translate(-6567.43 -3451.13) rotate(-.03) scale(3.58 3.72) skewX(-.01)" xlink:href="#linear-gradient-3"/><linearGradient id="linear-gradient-113" x1="2180.99" y1="1270.35" x2="2347.55" y2="1270.35" gradientTransform="translate(-6567.46 -3451.61) rotate(-.03) scale(3.58 3.72) skewX(-.01)" xlink:href="#linear-gradient-3"/><linearGradient id="linear-gradient-114" x1="2184.2" y1="1270.35" x2="2347.19" y2="1270.35" gradientTransform="translate(-6567.48 -3452.09) rotate(-.03) scale(3.58 3.72) skewX(-.01)" xlink:href="#linear-gradient-3"/><linearGradient id="linear-gradient-115" x1="2187.41" y1="1270.35" x2="2346.84" y2="1270.35" gradientTransform="translate(-6567.5 -3452.57) rotate(-.03) scale(3.58 3.72) skewX(-.01)" xlink:href="#linear-gradient-3"/><linearGradient id="linear-gradient-116" x1="2190.62" y1="1270.35" x2="2346.48" y2="1270.35" gradientTransform="translate(-6567.52 -3453.05) rotate(-.03) scale(3.58 3.72) skewX(-.01)" xlink:href="#linear-gradient-3"/><linearGradient id="linear-gradient-117" x1="2193.83" y1="1270.35" x2="2346.12" y2="1270.35" gradientTransform="translate(-6567.55 -3453.53) rotate(-.03) scale(3.58 3.72) skewX(-.01)" xlink:href="#linear-gradient-3"/><linearGradient id="linear-gradient-118" x1="2197.04" y1="1270.35" x2="2345.76" y2="1270.35" gradientTransform="translate(-6567.57 -3454.01) rotate(-.03) scale(3.58 3.72) skewX(-.01)" xlink:href="#linear-gradient-3"/><linearGradient id="linear-gradient-119" x1="2200.26" y1="1270.36" x2="2345.4" y2="1270.36" gradientTransform="translate(-6567.59 -3454.49) rotate(-.03) scale(3.58 3.72) skewX(-.01)" xlink:href="#linear-gradient-3"/><linearGradient id="linear-gradient-120" x1="2203.47" y1="1270.36" x2="2345.05" y2="1270.36" gradientTransform="translate(-6567.62 -3454.97) rotate(-.03) scale(3.58 3.72) skewX(-.01)" xlink:href="#linear-gradient-3"/><linearGradient id="linear-gradient-121" x1="2206.68" y1="1270.36" x2="2344.69" y2="1270.36" gradientTransform="translate(-6567.64 -3455.45) rotate(-.03) scale(3.58 3.72) skewX(-.01)" xlink:href="#linear-gradient-3"/><linearGradient id="linear-gradient-122" x1="2209.89" y1="1270.36" x2="2344.33" y2="1270.36" gradientTransform="translate(-6567.66 -3455.93) rotate(-.03) scale(3.58 3.72) skewX(-.01)" xlink:href="#linear-gradient-3"/><linearGradient id="linear-gradient-123" x1="2213.1" y1="1270.36" x2="2343.97" y2="1270.36" gradientTransform="translate(-6567.68 -3456.41) rotate(-.03) scale(3.58 3.72) skewX(-.01)" xlink:href="#linear-gradient-3"/><linearGradient id="linear-gradient-124" x1="2216.31" y1="1270.36" x2="2343.61" y2="1270.36" gradientTransform="translate(-6567.71 -3456.89) rotate(-.03) scale(3.58 3.72) skewX(-.01)" xlink:href="#linear-gradient-3"/><linearGradient id="linear-gradient-125" x1="2219.52" y1="1270.36" x2="2343.26" y2="1270.36" gradientTransform="translate(-6567.73 -3457.37) rotate(-.03) scale(3.58 3.72) skewX(-.01)" xlink:href="#linear-gradient-3"/><linearGradient id="linear-gradient-126" x1="2222.74" y1="1270.36" x2="2342.9" y2="1270.36" gradientTransform="translate(-6567.75 -3457.85) rotate(-.03) scale(3.58 3.72) skewX(-.01)" xlink:href="#linear-gradient-3"/><linearGradient id="linear-gradient-127" x1="2225.95" y1="1270.36" x2="2342.54" y2="1270.36" gradientTransform="translate(-6567.77 -3458.33) rotate(-.03) scale(3.58 3.72) skewX(-.01)" xlink:href="#linear-gradient-3"/><linearGradient id="linear-gradient-128" x1="2229.16" y1="1270.36" x2="2342.18" y2="1270.36" gradientTransform="translate(-6567.8 -3458.81) rotate(-.03) scale(3.58 3.72) skewX(-.01)" xlink:href="#linear-gradient-3"/><linearGradient id="linear-gradient-129" x1="2232.37" y1="1270.36" x2="2341.82" y2="1270.36" gradientTransform="translate(-6567.82 -3459.29) rotate(-.03) scale(3.58 3.72) skewX(-.01)" xlink:href="#linear-gradient-3"/><linearGradient id="linear-gradient-130" x1="2235.58" y1="1270.36" x2="2341.47" y2="1270.36" gradientTransform="translate(-6567.84 -3459.77) rotate(-.03) scale(3.58 3.72) skewX(-.01)" xlink:href="#linear-gradient-3"/><linearGradient id="linear-gradient-131" x1="2238.79" y1="1270.36" x2="2341.11" y2="1270.36" gradientTransform="translate(-6567.86 -3460.25) rotate(-.03) scale(3.58 3.72) skewX(-.01)" xlink:href="#linear-gradient-3"/><linearGradient id="linear-gradient-132" x1="2242" y1="1270.36" x2="2340.75" y2="1270.36" gradientTransform="translate(-6567.89 -3460.73) rotate(-.03) scale(3.58 3.72) skewX(-.01)" xlink:href="#linear-gradient-3"/><linearGradient id="linear-gradient-133" x1="2245.22" y1="1270.36" x2="2340.39" y2="1270.36" gradientTransform="translate(-6567.91 -3461.21) rotate(-.03) scale(3.58 3.72) skewX(-.01)" xlink:href="#linear-gradient-3"/><linearGradient id="linear-gradient-134" x1="2248.43" y1="1270.36" x2="2340.03" y2="1270.36" gradientTransform="translate(-6567.93 -3461.69) rotate(-.03) scale(3.58 3.72) skewX(-.01)" xlink:href="#linear-gradient-3"/><linearGradient id="linear-gradient-135" x1="2251.64" y1="1270.36" x2="2339.68" y2="1270.36" gradientTransform="translate(-6567.96 -3462.17) rotate(-.03) scale(3.58 3.72) skewX(-.01)" xlink:href="#linear-gradient-3"/><linearGradient id="linear-gradient-136" x1="2254.85" y1="1270.36" x2="2339.32" y2="1270.36" gradientTransform="translate(-6567.98 -3462.65) rotate(-.03) scale(3.58 3.72) skewX(-.01)" xlink:href="#linear-gradient-3"/><linearGradient id="linear-gradient-137" x1="2258.06" y1="1270.37" x2="2338.96" y2="1270.37" gradientTransform="translate(-6568 -3463.13) rotate(-.03) scale(3.58 3.72) skewX(-.01)" xlink:href="#linear-gradient-3"/><linearGradient id="linear-gradient-138" x1="2261.27" y1="1270.37" x2="2338.6" y2="1270.37" gradientTransform="translate(-6568.02 -3463.61) rotate(-.03) scale(3.58 3.72) skewX(-.01)" xlink:href="#linear-gradient-3"/><linearGradient id="linear-gradient-139" x1="2264.48" y1="1270.37" x2="2338.25" y2="1270.37" gradientTransform="translate(-6568.05 -3464.09) rotate(-.03) scale(3.58 3.72) skewX(-.01)" xlink:href="#linear-gradient-3"/><linearGradient id="linear-gradient-140" x1="1604.35" y1="1195.74" x2="1742.95" y2="1195.74" gradientTransform="matrix(1,0,0,1,0,0)" xlink:href="#linear-gradient-110"/><linearGradient id="linear-gradient-141" x1="1432.92" y1="781.94" x2="1949.31" y2="781.94" gradientTransform="matrix(1,0,0,1,0,0)" xlink:href="#linear-gradient-110"/><linearGradient id="linear-gradient-142" x1="1691.64" y1="1184.07" x2="1726.25" y2="408.8" gradientUnits="userSpaceOnUse"><stop offset="0" stop-color="#ff7b7b"/><stop offset="1" stop-color="#f7a9a9"/></linearGradient><linearGradient id="linear-gradient-143" x1="1687.13" y1="1183.87" x2="1721.74" y2="408.6" xlink:href="#linear-gradient-142"/></defs><ellipse class="cls-135" cx="918.5" cy="1267.71" rx="918.5" ry="203.67"/><ellipse class="cls-148" cx="918.5" cy="1264.18" rx="918.5" ry="203.67"/><ellipse class="cls-17" cx="918.5" cy="1226.03" rx="918.5" ry="203.67"/><path class="cls-30" d="m918.5,1426.43C413.7,1426.43,4.17,1336.12.19,1224.39c-.02.55-.19,1.09-.19,1.63C0,1338.51,411.23,1429.7,918.5,1429.7s918.5-91.19,918.5-203.67c0-.55-.17-1.09-.19-1.63-3.98,111.73-413.51,202.04-918.31,202.04Z"/><g class="cls-82"><ellipse class="cls-57" cx="531.22" cy="1224.39" rx="69.02" ry="384.33" transform="translate(-716.97 1697.01) rotate(-87.28)"/><ellipse class="cls-9" cx="537.52" cy="1224.69" rx="67.6" ry="376.44" transform="translate(-711.26 1703.59) rotate(-87.28)"/><ellipse class="cls-105" cx="543.83" cy="1224.99" rx="66.18" ry="368.54" transform="translate(-705.55 1710.17) rotate(-87.28)"/><ellipse class="cls-38" cx="550.14" cy="1225.29" rx="64.76" ry="360.64" transform="translate(-699.84 1716.76) rotate(-87.28)"/><ellipse class="cls-60" cx="556.44" cy="1225.59" rx="63.35" ry="352.74" transform="translate(-694.13 1723.34) rotate(-87.28)"/><ellipse class="cls-43" cx="562.75" cy="1225.89" rx="61.93" ry="344.85" transform="translate(-688.42 1729.93) rotate(-87.28)"/><ellipse class="cls-74" cx="569.06" cy="1226.19" rx="60.51" ry="336.95" transform="translate(-682.72 1736.51) rotate(-87.28)"/><ellipse class="cls-122" cx="575.36" cy="1226.49" rx="59.09" ry="329.05" transform="translate(-677.01 1743.09) rotate(-87.28)"/><ellipse class="cls-42" cx="581.67" cy="1226.78" rx="57.67" ry="321.15" transform="translate(-671.3 1749.68) rotate(-87.28)"/><ellipse class="cls-22" cx="587.97" cy="1227.08" rx="56.26" ry="313.26" transform="translate(-665.59 1756.26) rotate(-87.28)"/><ellipse class="cls-19" cx="594.28" cy="1227.38" rx="54.84" ry="305.36" transform="translate(-659.88 1762.85) rotate(-87.28)"/><ellipse class="cls-28" cx="600.59" cy="1227.68" rx="53.42" ry="297.46" transform="translate(-654.17 1769.43) rotate(-87.28)"/><ellipse class="cls-127" cx="606.89" cy="1227.98" rx="52" ry="289.56" transform="translate(-648.46 1776.01) rotate(-87.28)"/><ellipse class="cls-49" cx="613.2" cy="1228.28" rx="50.58" ry="281.67" transform="translate(-642.75 1782.6) rotate(-87.28)"/><ellipse class="cls-133" cx="619.51" cy="1228.58" rx="49.16" ry="273.77" transform="translate(-637.04 1789.18) rotate(-87.28)"/><ellipse class="cls-64" cx="625.81" cy="1228.88" rx="47.75" ry="265.87" transform="translate(-631.33 1795.77) rotate(-87.28)"/><ellipse class="cls-116" cx="632.12" cy="1229.17" rx="46.33" ry="257.97" transform="translate(-625.62 1802.35) rotate(-87.28)"/><ellipse class="cls-110" cx="638.43" cy="1229.47" rx="44.91" ry="250.08" transform="translate(-619.91 1808.93) rotate(-87.28)"/><ellipse class="cls-101" cx="644.73" cy="1229.77" rx="43.49" ry="242.18" transform="translate(-614.2 1815.52) rotate(-87.28)"/><ellipse class="cls-31" cx="651.04" cy="1230.07" rx="42.07" ry="234.28" transform="translate(-608.49 1822.1) rotate(-87.28)"/><ellipse class="cls-97" cx="657.35" cy="1230.37" rx="40.65" ry="226.38" transform="translate(-602.78 1828.69) rotate(-87.28)"/><ellipse class="cls-76" cx="663.65" cy="1230.67" rx="39.24" ry="218.49" transform="translate(-597.07 1835.27) rotate(-87.28)"/><ellipse class="cls-5" cx="669.96" cy="1230.97" rx="37.82" ry="210.59" transform="translate(-591.37 1841.85) rotate(-87.28)"/><ellipse class="cls-70" cx="676.27" cy="1231.27" rx="36.4" ry="202.69" transform="translate(-585.66 1848.44) rotate(-87.28)"/><ellipse class="cls-84" cx="682.57" cy="1231.56" rx="34.98" ry="194.79" transform="translate(-579.95 1855.02) rotate(-87.28)"/><ellipse class="cls-89" cx="688.88" cy="1231.86" rx="33.56" ry="186.9" transform="translate(-574.24 1861.61) rotate(-87.28)"/><ellipse class="cls-14" cx="695.19" cy="1232.16" rx="32.15" ry="179" transform="translate(-568.53 1868.19) rotate(-87.28)"/><ellipse class="cls-3" cx="701.49" cy="1232.46" rx="30.73" ry="171.1" transform="translate(-562.82 1874.77) rotate(-87.28)"/><ellipse class="cls-134" cx="707.8" cy="1232.76" rx="29.31" ry="163.21" transform="translate(-557.11 1881.36) rotate(-87.28)"/></g><g class="cls-80"><ellipse class="cls-54" cx="941.95" cy="1339.03" rx="69.02" ry="384.33" transform="translate(-440.21 2216.49) rotate(-87.28)"/><ellipse class="cls-12" cx="948.26" cy="1339.33" rx="67.6" ry="376.44" transform="translate(-434.5 2223.07) rotate(-87.28)"/><ellipse class="cls-106" cx="954.56" cy="1339.63" rx="66.18" ry="368.54" transform="translate(-428.79 2229.66) rotate(-87.28)"/><ellipse class="cls-37" cx="960.87" cy="1339.93" rx="64.76" ry="360.64" transform="translate(-423.08 2236.24) rotate(-87.28)"/><ellipse class="cls-59" cx="967.18" cy="1340.23" rx="63.35" ry="352.74" transform="translate(-417.37 2242.82) rotate(-87.28)"/><ellipse class="cls-45" cx="973.48" cy="1340.53" rx="61.93" ry="344.85" transform="translate(-411.66 2249.41) rotate(-87.28)"/><ellipse class="cls-73" cx="979.79" cy="1340.83" rx="60.51" ry="336.95" transform="translate(-405.95 2255.99) rotate(-87.28)"/><ellipse class="cls-120" cx="986.1" cy="1341.13" rx="59.09" ry="329.05" transform="translate(-400.24 2262.58) rotate(-87.28)"/><ellipse class="cls-40" cx="992.4" cy="1341.42" rx="57.67" ry="321.15" transform="translate(-394.53 2269.16) rotate(-87.28)"/><ellipse class="cls-25" cx="998.71" cy="1341.72" rx="56.26" ry="313.26" transform="translate(-388.82 2275.74) rotate(-87.28)"/><ellipse class="cls-18" cx="1005.02" cy="1342.02" rx="54.84" ry="305.36" transform="translate(-383.11 2282.33) rotate(-87.28)"/><ellipse class="cls-26" cx="1011.32" cy="1342.32" rx="53.42" ry="297.46" transform="translate(-377.4 2288.91) rotate(-87.28)"/><ellipse class="cls-129" cx="1017.63" cy="1342.62" rx="52" ry="289.56" transform="translate(-371.69 2295.5) rotate(-87.28)"/><ellipse class="cls-51" cx="1023.94" cy="1342.92" rx="50.58" ry="281.67" transform="translate(-365.98 2302.08) rotate(-87.28)"/><ellipse class="cls-130" cx="1030.24" cy="1343.22" rx="49.16" ry="273.77" transform="translate(-360.28 2308.66) rotate(-87.28)"/><ellipse class="cls-62" cx="1036.55" cy="1343.51" rx="47.75" ry="265.87" transform="translate(-354.57 2315.25) rotate(-87.28)"/><ellipse class="cls-114" cx="1042.86" cy="1343.81" rx="46.33" ry="257.97" transform="translate(-348.86 2321.83) rotate(-87.28)"/><ellipse class="cls-108" cx="1049.16" cy="1344.11" rx="44.91" ry="250.08" transform="translate(-343.15 2328.42) rotate(-87.28)"/><ellipse class="cls-99" cx="1055.47" cy="1344.41" rx="43.49" ry="242.18" transform="translate(-337.44 2335) rotate(-87.28)"/><ellipse class="cls-32" cx="1061.78" cy="1344.71" rx="42.07" ry="234.28" transform="translate(-331.73 2341.58) rotate(-87.28)"/><ellipse class="cls-98" cx="1068.08" cy="1345.01" rx="40.65" ry="226.38" transform="translate(-326.02 2348.17) rotate(-87.28)"/><ellipse class="cls-77" cx="1074.39" cy="1345.31" rx="39.24" ry="218.49" transform="translate(-320.31 2354.75) rotate(-87.28)"/><ellipse class="cls-8" cx="1080.7" cy="1345.61" rx="37.82" ry="210.59" transform="translate(-314.6 2361.34) rotate(-87.28)"/><ellipse class="cls-68" cx="1087" cy="1345.9" rx="36.4" ry="202.69" transform="translate(-308.89 2367.92) rotate(-87.28)"/><ellipse class="cls-83" cx="1093.31" cy="1346.2" rx="34.98" ry="194.79" transform="translate(-303.18 2374.5) rotate(-87.28)"/><ellipse class="cls-87" cx="1099.61" cy="1346.5" rx="33.56" ry="186.9" transform="translate(-297.47 2381.09) rotate(-87.28)"/><ellipse class="cls-13" cx="1105.92" cy="1346.8" rx="32.15" ry="179" transform="translate(-291.76 2387.67) rotate(-87.28)"/><ellipse class="cls-2" cx="1112.23" cy="1347.1" rx="30.73" ry="171.1" transform="translate(-286.05 2394.26) rotate(-87.28)"/><ellipse class="cls-92" cx="1118.53" cy="1347.4" rx="29.31" ry="163.21" transform="translate(-280.34 2400.84) rotate(-87.28)"/></g><g class="cls-80"><ellipse class="cls-55" cx="1168.51" cy="1195.74" rx="69.02" ry="384.33" transform="translate(-81.25 2306.29) rotate(-87.28)"/><ellipse class="cls-11" cx="1174.82" cy="1196.04" rx="67.6" ry="376.44" transform="translate(-75.54 2312.87) rotate(-87.28)"/><ellipse class="cls-104" cx="1181.12" cy="1196.34" rx="66.18" ry="368.54" transform="translate(-69.83 2319.46) rotate(-87.28)"/><ellipse class="cls-35" cx="1187.43" cy="1196.64" rx="64.76" ry="360.64" transform="translate(-64.12 2326.04) rotate(-87.28)"/><ellipse class="cls-61" cx="1193.74" cy="1196.94" rx="63.35" ry="352.74" transform="translate(-58.41 2332.62) rotate(-87.28)"/><ellipse class="cls-46" cx="1200.04" cy="1197.24" rx="61.93" ry="344.85" transform="translate(-52.7 2339.21) rotate(-87.28)"/><ellipse class="cls-72" cx="1206.35" cy="1197.53" rx="60.51" ry="336.95" transform="translate(-46.99 2345.79) rotate(-87.28)"/><ellipse class="cls-123" cx="1212.66" cy="1197.83" rx="59.09" ry="329.05" transform="translate(-41.29 2352.38) rotate(-87.28)"/><ellipse class="cls-39" cx="1218.96" cy="1198.13" rx="57.67" ry="321.15" transform="translate(-35.58 2358.96) rotate(-87.28)"/><ellipse class="cls-24" cx="1225.27" cy="1198.43" rx="56.26" ry="313.26" transform="translate(-29.87 2365.54) rotate(-87.28)"/><ellipse class="cls-21" cx="1231.57" cy="1198.73" rx="54.84" ry="305.36" transform="translate(-24.16 2372.13) rotate(-87.28)"/><ellipse class="cls-29" cx="1237.88" cy="1199.03" rx="53.42" ry="297.46" transform="translate(-18.45 2378.71) rotate(-87.28)"/><ellipse class="cls-128" cx="1244.19" cy="1199.33" rx="52" ry="289.56" transform="translate(-12.74 2385.3) rotate(-87.28)"/><ellipse class="cls-50" cx="1250.49" cy="1199.63" rx="50.58" ry="281.67" transform="translate(-7.03 2391.88) rotate(-87.28)"/><ellipse class="cls-131" cx="1256.8" cy="1199.92" rx="49.16" ry="273.77" transform="translate(-1.32 2398.46) rotate(-87.28)"/><ellipse class="cls-65" cx="1263.11" cy="1200.22" rx="47.75" ry="265.87" transform="translate(4.39 2405.05) rotate(-87.28)"/><ellipse class="cls-117" cx="1269.41" cy="1200.52" rx="46.33" ry="257.97" transform="translate(10.1 2411.63) rotate(-87.28)"/><ellipse class="cls-111" cx="1275.72" cy="1200.82" rx="44.91" ry="250.08" transform="translate(15.81 2418.22) rotate(-87.28)"/><ellipse class="cls-102" cx="1282.03" cy="1201.12" rx="43.49" ry="242.18" transform="translate(21.52 2424.8) rotate(-87.28)"/><ellipse class="cls-34" cx="1288.33" cy="1201.42" rx="42.07" ry="234.28" transform="translate(27.23 2431.38) rotate(-87.28)"/><ellipse class="cls-96" cx="1294.64" cy="1201.72" rx="40.65" ry="226.38" transform="translate(32.94 2437.97) rotate(-87.28)"/><ellipse class="cls-78" cx="1300.95" cy="1202.02" rx="39.24" ry="218.49" transform="translate(38.65 2444.55) rotate(-87.28)"/><ellipse class="cls-7" cx="1307.25" cy="1202.31" rx="37.82" ry="210.59" transform="translate(44.36 2451.14) rotate(-87.28)"/><ellipse class="cls-69" cx="1313.56" cy="1202.61" rx="36.4" ry="202.69" transform="translate(50.06 2457.72) rotate(-87.28)"/><ellipse class="cls-85" cx="1319.87" cy="1202.91" rx="34.98" ry="194.79" transform="translate(55.77 2464.3) rotate(-87.28)"/><ellipse class="cls-88" cx="1326.17" cy="1203.21" rx="33.56" ry="186.9" transform="translate(61.48 2470.89) rotate(-87.28)"/><ellipse class="cls-15" cx="1332.48" cy="1203.51" rx="32.15" ry="179" transform="translate(67.19 2477.47) rotate(-87.28)"/><ellipse class="cls-1" cx="1338.79" cy="1203.81" rx="30.73" ry="171.1" transform="translate(72.9 2484.06) rotate(-87.28)"/><ellipse class="cls-138" cx="1345.09" cy="1204.11" rx="29.31" ry="163.21" transform="translate(78.61 2490.64) rotate(-87.28)"/></g><polygon class="cls-151" points="1104.69 1086.87 1176.25 1372.87 1224.93 1352.83 1169.77 1137.17 1372.25 1060.2 1432.92 1246.87 1469.83 1230.47 1397.14 982.42 1104.69 1086.87"/><path class="cls-91" d="m1026.75,41.41c-115.68,67.41-166.95,193.54-166.95,193.54l-109.31,38.11c2.17-5.15,53.84-127.89,167.36-193.67,0,0,.13-.13.27-.27,31.46-18.04,67.54-31.87,108.63-37.7Z"/><ellipse class="cls-48" cx="878.99" cy="340.69" rx="188.23" ry="158.36" transform="translate(-16.55 635.14) rotate(-39.39)"/><ellipse class="cls-47" cx="920.31" cy="406.19" rx="188.23" ry="158.36" transform="translate(-48.73 676.23) rotate(-39.39)"/><path class="cls-150" d="m1570.06,657.54c-11.32-218.44-179.51-401.36-375.65-408.57-31.52-1.16-61.82,2.35-90.47,9.86v-.04s-200.63,57.24-200.63,57.24l20.12,73.34c-44.28,65.6-68.46,149.56-63.67,242.06,8.4,162.09,103.21,304.54,231.68,370.24l23.38,85.2,208.7-56.06s0,0,.01,0l2.81-.76v-.04c149.39-39.42,253.21-189.32,243.72-372.47Z"/><ellipse class="cls-113" cx="1038.64" cy="694.19" rx="349.1" ry="401.6" transform="translate(-175.59 400.39) rotate(-20.16)"/><path class="cls-143" d="m1199.24,1010.79c-41.89,23.28-90.34,35.6-142.5,33.68-173.57-6.38-322.5-168.37-332.62-361.87-7.66-147.03,67.35-269.99,180.14-317.52-97.74,54.72-160.43,169.46-153.31,304.67,9.99,193.36,158.92,355.35,332.62,361.73,41.34,1.52,80.35-5.86,115.67-20.7Z"/><path class="cls-107" d="m1199.78,1010.4c-.14.13-.27.26-.54.39-35.32,14.84-74.33,22.22-115.67,20.7-173.7-6.39-322.63-168.37-332.62-361.73-7.12-135.21,55.57-249.95,153.31-304.67.14-.13.27-.13.54-.39,35.32-14.84,74.33-22.22,115.67-20.7,173.7,6.39,322.63,168.37,332.62,361.73,6.98,135.2-55.71,249.94-153.31,304.67Z"/><path class="cls-124" d="m1393.79,707.25c-11.32-218.44-179.51-401.36-375.65-408.58-92.6-3.4-174.84,32.99-234.72,95.32,59.34-58.76,139.27-92.84,228.94-89.54,196.14,7.21,364.33,190.14,375.65,408.58,5.98,115.32-32.99,217.44-99.93,287.14,70.45-69.76,111.86-174.34,105.71-292.92Z"/><ellipse class="cls-147" cx="1471.98" cy="466.95" rx="158.36" ry="188.23" transform="translate(-29.08 829.71) rotate(-31.19)"/><polygon class="cls-140" points="1078.38 1089.82 1143.63 1351.6 1176.25 1372.87 1104.69 1086.87 1078.38 1089.82"/><polygon class="cls-140" points="1372.25 1060.2 1432.92 1246.87 1402.59 1229.87 1349 1069.04 1372.25 1060.2"/><polygon class="cls-140" points="839.77 1000.95 684 1189.31 714.97 1213.42 881.09 1031.68 839.77 1000.95"/><path class="cls-66" d="m1046.14,444.8l-1.29-.17c-3.66-.49-6.66-4.18-6.66-8.19v-56.1c0-4.01,3-6.9,6.66-6.41l1.29.17c3.66.49,6.66,4.18,6.66,8.19v56.1c0,4.01-3,6.9-6.66,6.41Z"/><path class="cls-66" d="m1046.14,1007.27l-1.29-.17c-3.66-.49-6.66-4.18-6.66-8.19v-56.1c0-4.01,3-6.9,6.66-6.41l1.29.17c3.66.49,6.66,4.18,6.66,8.19v56.1c0,4.01-3,6.9-6.66,6.41Z"/><path class="cls-66" d="m821.11,659.81v1.41c0,4.01-3,6.9-6.66,6.41l-51.19-6.86c-3.66-.49-6.66-4.18-6.66-8.19v-1.41c0-4.01,3-6.9,6.66-6.41l51.19,6.86c3.66.49,6.66,4.18,6.66,8.19Z"/><path class="cls-66" d="m1334.39,728.63v1.41c0,4.01-3,6.9-6.66,6.41l-51.19-6.86c-3.66-.49-6.66-4.18-6.66-8.19v-1.41c0-4.01,3-6.9,6.66-6.41l51.19,6.86c3.66.49,6.66,4.18,6.66,8.19Z"/><path class="cls-66" d="m937.36,891.56l1.13.83c3.22,2.36,4.41,6.97,2.65,10.26l-24.54,45.94c-1.76,3.29-5.82,4.05-9.04,1.69l-1.13-.83c-3.22-2.36-4.41-6.97-2.65-10.26l24.54-45.94c1.76-3.29,5.82-4.05,9.04-1.69Z"/><path class="cls-66" d="m1183.41,430.92l1.13.83c3.22,2.36,4.41,6.97,2.65,10.26l-24.54,45.94c-1.76,3.29-5.82,4.05-9.04,1.69l-1.13-.83c-3.22-2.36-4.41-6.97-2.65-10.26l24.54-45.94c1.76-3.29,5.82-4.05,9.04-1.69Z"/><path class="cls-66" d="m857.46,799.58l.71,1.28c2.01,3.63,1.14,8.06-1.92,9.85l-42.81,25.01c-3.06,1.79-7.21.29-9.22-3.34l-.71-1.28c-2.01-3.63-1.14-8.06,1.92-9.85l42.81-25.01c3.06-1.79,7.21-.29,9.22,3.34Z"/><path class="cls-66" d="m1286.73,548.81l.71,1.28c2.01,3.63,1.14,8.06-1.92,9.85l-42.81,25.01c-3.06,1.79-7.21.29-9.22-3.34l-.71-1.28c-2.01-3.63-1.14-8.06,1.92-9.85l42.81-25.01c3.06-1.79,7.21-.29,9.22,3.34Z"/><path class="cls-66" d="m1153.59,920.55l-1.13.53c-3.22,1.49-4.41,5.79-2.65,9.55l24.54,52.52c1.76,3.76,5.82,5.61,9.04,4.12l1.13-.53c3.22-1.49,4.41-5.79,2.65-9.55l-24.54-52.52c-1.76-3.76-5.82-5.61-9.04-4.12Z"/><path class="cls-66" d="m907.54,393.93l-1.13.53c-3.22,1.49-4.41,5.79-2.65,9.55l24.54,52.52c1.76,3.76,5.82,5.61,9.04,4.12l1.13-.53c3.22-1.49,4.41-5.79,2.65-9.55l-24.54-52.52c-1.76-3.76-5.82-5.61-9.04-4.12Z"/><path class="cls-66" d="m1233.48,850l-.71,1.09c-2.01,3.09-1.14,7.75,1.92,10.36l42.81,36.49c3.06,2.61,7.21,2.22,9.22-.87l.71-1.09c2.01-3.09,1.14-7.75-1.92-10.36l-42.81-36.49c-3.06-2.61-7.21-2.22-9.22.87Z"/><path class="cls-66" d="m804.22,484.12l-.71,1.09c-2.01,3.09-1.14,7.75,1.92,10.36l42.81,36.49c3.06,2.61,7.21,2.22,9.22-.87l.71-1.09c2.01-3.09,1.14-7.75-1.92-10.36l-42.81-36.49c-3.06-2.61-7.21-2.22-9.22.87Z"/><ellipse class="cls-66" cx="1045.5" cy="690.6" rx="31.74" ry="37.15" transform="translate(-195.13 514.99) rotate(-25.39)"/><path class="cls-66" d="m1046.18,695.43h0c-11.78-1.58-21.43-13.44-21.43-26.35v-192.88c0-12.91,9.64-22.19,21.43-20.61h0c11.78,1.58,21.43,13.44,21.43,26.35v192.88c0,12.91-9.64,22.19-21.43,20.61Z"/><path class="cls-66" d="m1147.42,812.57h0c-7.08,6.98-18.05,6.46-24.36-1.16l-94.3-113.81c-6.31-7.62-5.68-19.57,1.4-26.55h0c7.08-6.98,18.05-6.46,24.36,1.16l94.3,113.81c6.31,7.62,5.68,19.57-1.4,26.55Z"/><path class="cls-79" d="m1038.83,446.36l-1.29-.17c-3.66-.49-6.66-4.18-6.66-8.19v-56.1c0-4.01,3-6.9,6.66-6.41l1.29.17c3.66.49,6.66,4.18,6.66,8.19v56.1c0,4.01-3,6.9-6.66,6.41Z"/><path class="cls-79" d="m1038.83,1008.83l-1.29-.17c-3.66-.49-6.66-4.18-6.66-8.19v-56.1c0-4.01,3-6.9,6.66-6.41l1.29.17c3.66.49,6.66,4.18,6.66,8.19v56.1c0,4.01-3,6.9-6.66,6.41Z"/><path class="cls-79" d="m813.81,661.37v1.41c0,4.01-3,6.9-6.66,6.41l-51.19-6.86c-3.66-.49-6.66-4.18-6.66-8.19v-1.41c0-4.01,3-6.9,6.66-6.41l51.19,6.86c3.66.49,6.66,4.18,6.66,8.19Z"/><path class="cls-79" d="m1327.08,730.19v1.41c0,4.01-3,6.9-6.66,6.41l-51.19-6.86c-3.66-.49-6.66-4.18-6.66-8.19v-1.41c0-4.01,3-6.9,6.66-6.41l51.19,6.86c3.66.49,6.66,4.18,6.66,8.19Z"/><path class="cls-79" d="m930.05,893.12l1.13.83c3.22,2.36,4.41,6.97,2.65,10.26l-24.54,45.94c-1.76,3.29-5.82,4.05-9.04,1.69l-1.13-.83c-3.22-2.36-4.41-6.97-2.65-10.26l24.54-45.94c1.76-3.29,5.82-4.05,9.04-1.69Z"/><path class="cls-79" d="m1176.1,432.48l1.13.83c3.22,2.36,4.41,6.97,2.65,10.26l-24.54,45.94c-1.76,3.29-5.82,4.05-9.04,1.69l-1.13-.83c-3.22-2.36-4.41-6.97-2.65-10.26l24.54-45.94c1.76-3.29,5.82-4.05,9.04-1.69Z"/><path class="cls-79" d="m850.16,801.14l.71,1.28c2.01,3.63,1.14,8.06-1.92,9.85l-42.81,25.01c-3.06,1.79-7.21.29-9.22-3.34l-.71-1.28c-2.01-3.63-1.14-8.06,1.92-9.85l42.81-25.01c3.06-1.79,7.21-.29,9.22,3.34Z"/><path class="cls-79" d="m1279.43,550.37l.71,1.28c2.01,3.63,1.14,8.06-1.92,9.85l-42.81,25.01c-3.06,1.79-7.21.29-9.22-3.34l-.71-1.28c-2.01-3.63-1.14-8.06,1.92-9.85l42.81-25.01c3.06-1.79,7.21-.29,9.22,3.34Z"/><path class="cls-79" d="m1146.28,922.11l-1.13.53c-3.22,1.49-4.41,5.79-2.65,9.55l24.54,52.52c1.76,3.76,5.82,5.61,9.04,4.12l1.13-.53c3.22-1.49,4.41-5.79,2.65-9.55l-24.54-52.52c-1.76-3.76-5.82-5.61-9.04-4.12Z"/><path class="cls-79" d="m900.23,395.49l-1.13.53c-3.22,1.49-4.41,5.79-2.65,9.55l24.54,52.52c1.76,3.76,5.82,5.61,9.04,4.12l1.13-.53c3.22-1.49,4.41-5.79,2.65-9.55l-24.54-52.52c-1.76-3.76-5.82-5.61-9.04-4.12Z"/><path class="cls-79" d="m1226.18,851.56l-.71,1.09c-2.01,3.09-1.14,7.75,1.92,10.36l42.81,36.49c3.06,2.61,7.21,2.22,9.22-.87l.71-1.09c2.01-3.09,1.14-7.75-1.92-10.36l-42.81-36.49c-3.06-2.61-7.21-2.22-9.22.87Z"/><path class="cls-79" d="m796.91,485.67l-.71,1.09c-2.01,3.09-1.14,7.75,1.92,10.36l42.81,36.49c3.06,2.61,7.21,2.22,9.22-.87l.71-1.09c2.01-3.09,1.14-7.75-1.92-10.36l-42.81-36.49c-3.06-2.61-7.21-2.22-9.22.87Z"/><ellipse class="cls-79" cx="1038.19" cy="692.16" rx="31.74" ry="37.15" transform="translate(-196.5 512.01) rotate(-25.39)"/><path class="cls-79" d="m1038.88,696.99h0c-11.78-1.58-21.43-13.44-21.43-26.35v-192.88c0-12.91,9.64-22.19,21.43-20.61h0c11.78,1.58,21.43,13.44,21.43,26.35v192.88c0,12.91-9.64,22.19-21.43,20.61Z"/><path class="cls-79" d="m1140.11,814.13h0c-7.08,6.98-18.05,6.46-24.36-1.16l-94.3-113.81c-6.31-7.62-5.68-19.57,1.4-26.55h0c7.08-6.98,18.05-6.46,24.36,1.16l94.3,113.81c6.31,7.62,5.68,19.57-1.4,26.55Z"/><g class="cls-81"><path class="cls-145" d="m1086.97,259.8v9.82c0,.18,0,.38.02.56,0,.18.02.36.02.54.02.31.04.63.07.94.04.27.07.54.11.81.04.31.09.63.13.94.02.11.04.22.07.34.02.16.07.31.11.49.07.29.13.6.22.9.07.27.16.56.25.83.09.29.18.6.29.89.04.13.07.25.13.38.04.13.11.27.16.43.13.31.27.63.4.94.11.25.25.51.38.78.13.31.31.63.47.92.09.16.16.31.22.45.07.11.13.2.2.31.2.36.45.74.67,1.1.16.22.29.45.43.67.29.4.58.78.87,1.19.11.16.22.31.34.45.02.02.04.07.07.09.51.63,1.05,1.25,1.61,1.88.16.16.31.31.45.47.45.47.92.94,1.41,1.39.11.11.2.22.31.31.11.11.25.22.36.31.29.27.6.54.89.78.29.25.58.49.87.72.31.27.63.51.96.76.31.25.6.47.92.69.36.25.69.49,1.05.74.34.22.65.45,1.01.67.36.25.74.47,1.12.72.22.13.45.29.67.43.25.16.52.31.76.45,1.34.78,2.75,1.5,4.18,2.19.38.2.76.36,1.14.54,1.3.6,2.62,1.19,3.98,1.7.18.07.34.16.52.22,1.23.47,2.48.92,3.76,1.32.22.09.47.13.69.2,1.05.34,2.13.63,3.18.92.83.22,1.63.45,2.46.65,1.12.27,2.26.49,3.42.74.67.13,1.32.29,1.99.43.18.02.34.04.51.09.34.04.69.09,1.05.16,1.41.22,2.84.43,4.3.6.42.04.83.11,1.25.16.27.02.54.07.81.09.56.07,1.12.07,1.68.11,1.41.11,2.8.22,4.21.29.34,0,.65.04.98.07h1.7c1.14.02,2.26.02,3.4.02.42-.02.83,0,1.25,0,.54-.02,1.05-.07,1.59-.09,1.05-.04,2.1-.09,3.13-.16.47-.04.94-.04,1.39-.09.49-.02.98-.11,1.48-.16,1.05-.11,2.08-.22,3.11-.36.47-.04.96-.09,1.45-.16.45-.07.87-.16,1.32-.22,1.1-.18,2.19-.36,3.29-.58.51-.09,1.03-.16,1.54-.27.34-.07.67-.16,1.03-.25,1.3-.29,2.57-.6,3.85-.94.51-.13,1.07-.25,1.59-.4.29-.07.58-.18.87-.27.45-.13.87-.27,1.32-.4,1.28-.4,2.53-.83,3.76-1.3.36-.11.74-.25,1.1-.38.16-.07.34-.11.49-.18.96-.38,1.88-.81,2.8-1.23.54-.22,1.07-.45,1.61-.69,1.57-.74,3.09-1.52,4.54-2.37,12.24-7.07,18.35-16.33,18.33-25.6,0,0-.49-20.12-1.52-17.52,4.5,11.61-1.14,24.3-16.8,33.34-24.32,14.05-63.59,14.05-87.73.02-12.02-7-18.03-16.15-18.03-25.31Z"/><path class="cls-152" d="m1086.97,259.8c0,9.15,6.02,18.3,18.03,25.31,24.14,14.03,63.41,14.03,87.73-.02,15.66-9.04,21.3-21.73,16.8-33.34-2.44-6.42-7.94-12.49-16.51-17.48-24.14-14.03-63.43-14.03-87.73,0-8.75,5.03-14.36,11.21-16.83,17.7-1.01,2.57-1.5,5.19-1.5,7.83Z"/></g><g class="cls-81"><path class="cls-139" d="m1120.97,114.76c0,.14.02.28.03.42.01.12.03.25.05.37.02.14.04.28.07.42.02.12.05.25.08.37.03.14.06.27.1.41.03.12.07.25.11.37.04.14.09.27.13.41.04.12.09.24.14.36.06.14.12.28.18.43.05.12.11.24.17.35.07.14.14.28.22.42.06.11.12.23.19.34.1.17.2.33.31.5.06.1.13.2.2.3.12.18.26.36.4.54.06.08.12.16.18.24.23.29.47.57.73.85.07.07.14.14.21.21.2.21.42.42.64.63.1.1.2.19.31.28.13.12.27.24.41.35.13.11.25.22.39.32.14.12.29.23.44.34.14.1.27.21.42.31.15.11.31.22.47.33.15.1.3.2.45.3.17.11.34.22.51.32.21.13.43.27.65.4.61.35,1.24.68,1.89.99.17.08.34.16.51.24.59.27,1.18.53,1.8.77.08.03.16.07.24.1.66.25,1.33.48,2.02.69.47.15.96.28,1.44.41.37.1.73.21,1.11.3.51.12,1.03.23,1.55.33.38.08.75.16,1.14.23.16.03.32.05.47.08.64.11,1.29.2,1.95.28.19.02.38.05.56.07.37.04.75.06,1.13.09.63.05,1.26.1,1.9.13.41.02.81.03,1.22.03.51,0,1.02.01,1.54,0,.43,0,.86-.02,1.29-.04.47-.02.95-.04,1.42-.08.43-.03.87-.07,1.3-.11.47-.05.94-.1,1.4-.16.42-.05.84-.11,1.25-.18.5-.08.99-.16,1.49-.26.39-.07.78-.15,1.17-.24.59-.13,1.17-.27,1.74-.43.37-.1.75-.19,1.12-.3.2-.06.39-.12.59-.18.58-.18,1.15-.38,1.71-.58.16-.06.33-.12.49-.18.51-.2,1-.42,1.49-.63.24-.11.49-.2.72-.32.71-.34,1.4-.69,2.06-1.08,5.53-3.19,8.3-7.39,8.29-11.58v142.58c.01,4.19-2.75,8.38-8.29,11.58-.66.38-1.35.74-2.06,1.08-.24.11-.48.21-.72.32-.42.19-.83.38-1.27.55-.07.03-.15.05-.22.08-.16.06-.33.12-.49.18-.56.21-1.13.4-1.71.58-.2.06-.39.12-.59.18-.13.04-.26.09-.4.12-.24.07-.48.11-.72.18-.57.15-1.15.3-1.74.43-.16.03-.31.08-.47.11-.23.05-.47.08-.7.12-.49.09-.99.18-1.49.26-.2.03-.4.08-.6.1-.22.03-.44.05-.66.07-.47.06-.93.11-1.4.16-.22.02-.45.06-.67.07-.21.02-.42.02-.63.03-.47.03-.95.06-1.42.08-.24,0-.48.03-.72.04-.19,0-.38,0-.57,0-.51,0-1.02,0-1.54,0-.26,0-.51,0-.77,0-.15,0-.3-.02-.45-.03-.63-.03-1.26-.07-1.9-.13-.25-.02-.51-.03-.77-.05-.12-.01-.24-.03-.36-.04-.19-.02-.38-.04-.56-.07-.65-.08-1.3-.17-1.95-.28-.16-.03-.32-.05-.47-.08-.08-.01-.15-.02-.23-.04-.31-.06-.6-.13-.91-.19-.52-.1-1.04-.21-1.55-.33-.37-.09-.74-.2-1.11-.3-.48-.13-.97-.26-1.44-.41-.1-.03-.21-.06-.31-.09-.58-.19-1.15-.39-1.7-.6-.08-.03-.16-.07-.24-.1-.61-.24-1.21-.5-1.8-.77-.17-.08-.34-.16-.51-.24-.65-.31-1.28-.64-1.89-.99-.12-.07-.23-.13-.34-.2-.11-.06-.2-.13-.31-.2-.17-.11-.34-.21-.51-.32-.15-.1-.3-.2-.45-.3-.16-.11-.32-.22-.47-.33-.14-.1-.28-.21-.42-.31-.15-.11-.3-.23-.44-.34-.13-.11-.26-.22-.39-.32-.14-.12-.27-.23-.4-.35-.05-.05-.11-.1-.17-.15-.05-.05-.09-.09-.14-.14-.22-.21-.43-.42-.64-.63-.07-.07-.14-.14-.21-.21-.26-.28-.5-.56-.73-.85,0-.01-.02-.02-.03-.04-.05-.07-.1-.14-.15-.2-.14-.18-.27-.36-.39-.54-.07-.1-.13-.2-.2-.3-.11-.17-.21-.33-.31-.5-.03-.05-.06-.09-.08-.14-.04-.07-.07-.14-.1-.2-.08-.14-.15-.28-.22-.42-.06-.12-.11-.24-.17-.35-.06-.14-.12-.28-.18-.43-.03-.06-.06-.13-.08-.19-.02-.06-.04-.11-.06-.17-.05-.14-.09-.27-.13-.41-.04-.12-.08-.25-.11-.37-.04-.14-.07-.27-.1-.41-.02-.07-.04-.15-.05-.22,0-.05-.01-.1-.02-.15-.03-.14-.05-.28-.07-.42-.02-.12-.03-.24-.05-.37-.01-.14-.02-.28-.03-.42,0-.08-.02-.16-.02-.25,0-.08,0-.16,0-.25V114.26c0,.16.01.33.02.49Z"/><path class="cls-142" d="m1129.24,102.69c-11,6.35-11.06,16.64-.13,22.99,10.92,6.35,28.69,6.35,39.69,0,10.99-6.35,11.06-16.64.14-22.99-10.93-6.35-28.7-6.35-39.69,0Z"/></g><path class="cls-136" d="m1035.78,90.04c-.12-.43-.23-.87-.34-1.31-.05-.2-.09-.4-.13-.6-.02-.09-.04-.17-.06-.26-.03-.16-.07-.31-.1-.46-.09-.45-.18-.9-.26-1.35-.08-.46-.15-.93-.22-1.4,0-.01,0-.03,0-.04,0-.02,0-.03,0-.05-.06-.44-.12-.89-.17-1.33-.06-.49-.1-.98-.15-1.48-.01-.17-.02-.35-.04-.52,0-.1-.01-.21-.02-.31-.02-.22-.03-.44-.05-.66-.03-.51-.05-1.02-.06-1.53-.01-.37-.01-.74-.02-1.11,0-.07,0-.14,0-.22,0-.07,0-.14,0-.2,0-.5,0-1.01.02-1.51.01-.5.03-1,.05-1.5,0-.09.01-.18.02-.28,0-.07,0-.15.01-.22.02-.32.03-.64.06-.95.04-.48.08-.97.12-1.45.03-.35.07-.69.11-1.04,0-.06.01-.13.02-.19,0-.07.01-.14.02-.21.06-.49.12-.98.19-1.47.08-.54.16-1.07.25-1.61.01-.08.03-.16.04-.24.02-.1.04-.21.06-.31.07-.43.15-.86.23-1.29.1-.54.23-1.07.34-1.6.06-.27.11-.55.18-.82.03-.11.04-.22.07-.32.11-.47.25-.93.37-1.39.18-.68.35-1.36.54-2.04.03-.11.05-.22.09-.32.29-.97.6-1.94.94-2.89,0-.01,0-.02.01-.04.22-.64.46-1.28.7-1.91.2-.51.4-1.02.61-1.52,0-.01.01-.03.02-.04,0,0,0-.01,0-.02.21-.51.43-1.02.66-1.52.22-.49.45-.98.68-1.47.04-.08.08-.16.12-.23.04-.09.09-.17.13-.25.16-.33.32-.66.49-.99.25-.49.51-.98.78-1.45.08-.15.17-.29.25-.44.06-.11.13-.22.19-.33.13-.23.26-.46.39-.68.28-.47.57-.94.87-1.4.13-.2.26-.39.39-.59.07-.1.14-.2.2-.31.1-.14.19-.29.29-.43.29-.42.59-.84.89-1.25.22-.3.45-.58.67-.87.04-.05.08-.11.12-.16.04-.05.07-.1.11-.15.3-.37.6-.74.9-1.1.3-.35.61-.7.91-1.04.07-.08.14-.16.22-.23.23-.25.47-.49.7-.73.3-.31.61-.61.91-.9.2-.19.4-.37.6-.55.05-.04.09-.09.14-.13.06-.05.12-.11.18-.16.31-.27.62-.53.92-.78.32-.26.63-.5.95-.73.05-.04.11-.08.16-.12.05-.04.1-.07.14-.1.22-.16.43-.31.65-.46.33-.23.67-.44,1.01-.64.16-.1.33-.19.49-.28.07-.04.14-.08.21-.12.11-.06.21-.12.32-.18.37-.2.74-.38,1.1-.55.23-.1.45-.19.68-.29.08-.03.16-.07.24-.1.08-.03.15-.07.23-.1.41-.16.83-.3,1.24-.43.18-.06.36-.09.55-.14.14-.04.28-.07.42-.11.15-.03.29-.08.44-.11.54-.11,1.07-.2,1.6-.25.01,0,.02,0,.03,0,.12-.01.24,0,.37-.01.54-.04,1.09-.07,1.62-.05.04,0,.09.02.13.02.79.04,1.57.14,2.33.31l206.39,50.01c-.76-.18-1.54-.27-2.33-.31-.58-.03-1.17-.01-1.76.03-.12,0-.23,0-.35.01-.68.07-1.37.2-2.07.36-.14.03-.28.07-.42.11-.67.18-1.34.39-2.01.66-.08.03-.16.07-.24.1-.7.29-1.4.63-2.1,1.02-.07.04-.14.08-.21.12-.71.41-1.43.87-2.14,1.38-.05.03-.1.07-.14.1-.74.54-1.48,1.14-2.21,1.79-.05.04-.1.09-.15.13-.74.67-1.48,1.39-2.21,2.18-.74.8-1.45,1.64-2.14,2.52-.04.05-.08.1-.12.16-.64.82-1.26,1.68-1.86,2.56-.07.1-.13.2-.2.3-.57.87-1.13,1.76-1.66,2.68-.06.11-.12.21-.19.32-.53.94-1.05,1.91-1.53,2.89-.04.08-.08.16-.12.24-.52,1.06-1.01,2.14-1.47,3.24,0,.01,0,.02-.01.03-.47,1.13-.91,2.28-1.32,3.45,0,0,0,0,0,0-.37,1.06-.71,2.15-1.03,3.24-.2.67-.37,1.35-.54,2.03-.15.57-.31,1.15-.44,1.72-.06.27-.12.54-.18.81-.21.96-.41,1.92-.58,2.89-.02.11-.04.22-.06.33-.2,1.17-.37,2.35-.5,3.53,0,.06-.01.12-.02.18-.13,1.15-.23,2.31-.29,3.46,0,.07,0,.15-.01.22-.06,1.17-.09,2.34-.09,3.5,0,.07,0,.14,0,.21.01,1.11.05,2.22.13,3.31,0,.1.01.21.02.31.08,1.13.2,2.24.35,3.33,0,.01,0,.03,0,.04.16,1.1.35,2.18.59,3.24.02.09.04.18.06.27.24,1.06.51,2.1.82,3.11.31,1.01.66,1.97,1.04,2.88.03.08.07.16.11.25.35.83.73,1.62,1.13,2.37.05.1.11.2.16.3.4.72.81,1.4,1.25,2.04.08.12.17.23.25.35.42.59.86,1.15,1.32,1.67.05.06.1.13.16.18.53.58,1.08,1.11,1.65,1.59.81.68,1.66,1.23,2.54,1.71.21.12.43.22.65.33.9.43,1.82.8,2.77,1.02l-206.39-50.01c-.95-.22-1.87-.59-2.77-1.02-.22-.1-.43-.21-.64-.33-.88-.48-1.74-1.03-2.55-1.71-.01,0-.02-.01-.04-.02-.54-.46-1.06-.96-1.57-1.51-.02-.02-.03-.04-.05-.06-.05-.06-.1-.13-.16-.19-.3-.34-.61-.69-.9-1.07-.15-.19-.28-.4-.43-.6-.08-.12-.17-.23-.25-.35-.07-.11-.15-.2-.22-.31-.27-.4-.52-.82-.77-1.25-.09-.15-.17-.32-.26-.47-.05-.1-.11-.2-.16-.3-.08-.15-.16-.29-.24-.45-.2-.39-.39-.8-.58-1.21-.1-.23-.2-.47-.3-.71-.03-.08-.07-.16-.1-.25-.04-.1-.08-.19-.12-.29-.16-.4-.32-.81-.46-1.23-.15-.42-.29-.84-.43-1.28,0-.03-.02-.05-.02-.08-.12-.4-.24-.8-.35-1.21Z"/><path class="cls-94" d="m1254.89,87.12c-12.09,13.02-17.62,37.25-12.36,54.13,5.26,16.88,19.31,20.01,31.39,6.99,12.07-13.01,17.6-37.23,12.35-54.11-5.26-16.88-19.31-20.01-31.38-7Z"/><path class="cls-146" d="m1546.91,465.86c-14.93,11.85-34.2,1.4-38.89-16.92-24.01-93.73-112.02-349.72-365.72-402.78-42.18-8.82-80.7-9.63-115.55-4.75-41.09,5.83-77.17,19.67-108.63,37.7,10.98-7.32,102.94-66.32,222.29-76.63,33.63-4.34,70.8-3.25,111.21,5.29,260.27,54.43,346.15,322.53,367.46,409.85,3.79,15.51-4.93,31.34-22.93,31.01"/><path class="cls-112" d="m1526.32,477.25c-22.48-31.06-37.57-70.4-38.2-72.06-90.54-235.93-230.85-357.04-417.04-359.94-95.77-1.48-167.76,45.79-211.34,85.71-47.56,43.57-72.61,88.16-72.86,88.61l-11.86-6.58c1.05-1.88,26.17-46.67,75.23-91.72,28.87-26.51,60.03-47.51,92.63-62.43,40.86-18.71,84.07-27.83,128.42-27.15,95.67,1.49,180.95,34.11,253.45,96.96,71.37,61.86,130.6,153.28,176.05,271.7.16.41,15.11,39.38,36.52,68.95l-10.99,7.95Z"/><polygon class="cls-137" points="52.72 1009.82 867.51 1315.28 909.1 1300.26 480.91 279.46 439.32 294.48 52.72 1009.82"/><polygon class="cls-93" points="11.13 1024.84 867.51 1315.28 439.32 294.48 11.13 1024.84"/><polygon class="cls-53" points="780.09 1239.18 73.32 999.24 426.54 396.4 439.08 426.56 109.59 988.66 768.91 1212.14 780.09 1239.18"/><polygon class="cls-119" points="768.91 1212.14 109.59 988.66 439.08 426.56 768.91 1212.14"/><path class="cls-30" d="m438.63,1004.85c-20.73-6.62-35.33-26.11-35.33-45.31s15.22-29.14,35.9-22.53c21.97,7.01,35.99,25.74,35.99,45.49s-14.02,29.53-35.99,22.53l-.58-.18Zm-20.1-118.88l-8.52-266.03,58.49,18.68-8.52,260.59-41.45-13.23Z"/><g class="cls-82"><ellipse class="cls-56" cx="1535.44" cy="1265.45" rx="311.14" ry="55.88" transform="translate(-112.1 149.85) rotate(-5.39)"/><ellipse class="cls-10" cx="1540.53" cy="1264.97" rx="304.75" ry="54.73" transform="translate(-112.03 150.33) rotate(-5.39)"/><ellipse class="cls-103" cx="1545.61" cy="1264.49" rx="298.36" ry="53.58" transform="translate(-111.96 150.8) rotate(-5.39)"/><ellipse class="cls-36" cx="1550.7" cy="1264" rx="291.96" ry="52.43" transform="translate(-111.89 151.28) rotate(-5.39)"/><ellipse class="cls-58" cx="1555.79" cy="1263.52" rx="285.57" ry="51.28" transform="translate(-111.83 151.76) rotate(-5.39)"/><ellipse class="cls-44" cx="1560.88" cy="1263.04" rx="279.18" ry="50.13" transform="translate(-111.76 152.23) rotate(-5.39)"/><ellipse class="cls-71" cx="1565.97" cy="1262.56" rx="272.78" ry="48.99" transform="translate(-111.69 152.71) rotate(-5.39)"/><ellipse class="cls-121" cx="1571.06" cy="1262.08" rx="266.39" ry="47.84" transform="translate(-111.62 153.18) rotate(-5.39)"/><ellipse class="cls-41" cx="1576.15" cy="1261.6" rx="260" ry="46.69" transform="translate(-111.56 153.66) rotate(-5.39)"/><ellipse class="cls-23" cx="1581.23" cy="1261.12" rx="253.6" ry="45.54" transform="translate(-111.49 154.14) rotate(-5.39)"/><ellipse class="cls-20" cx="1586.32" cy="1260.64" rx="247.21" ry="44.39" transform="translate(-111.42 154.61) rotate(-5.39)"/><ellipse class="cls-27" cx="1591.41" cy="1260.16" rx="240.82" ry="43.25" transform="translate(-111.35 155.09) rotate(-5.39)"/><ellipse class="cls-126" cx="1596.5" cy="1259.68" rx="234.42" ry="42.1" transform="translate(-111.29 155.56) rotate(-5.39)"/><ellipse class="cls-52" cx="1601.59" cy="1259.2" rx="228.03" ry="40.95" transform="translate(-111.22 156.04) rotate(-5.39)"/><ellipse class="cls-132" cx="1606.68" cy="1258.72" rx="221.63" ry="39.8" transform="translate(-111.15 156.52) rotate(-5.39)"/><ellipse class="cls-63" cx="1611.77" cy="1258.24" rx="215.24" ry="38.65" transform="translate(-111.08 156.99) rotate(-5.39)"/><ellipse class="cls-115" cx="1616.86" cy="1257.76" rx="208.85" ry="37.5" transform="translate(-111.02 157.47) rotate(-5.39)"/><ellipse class="cls-109" cx="1621.94" cy="1257.28" rx="202.45" ry="36.36" transform="translate(-110.95 157.94) rotate(-5.39)"/><ellipse class="cls-100" cx="1627.03" cy="1256.8" rx="196.06" ry="35.21" transform="translate(-110.88 158.42) rotate(-5.39)"/><ellipse class="cls-33" cx="1632.12" cy="1256.32" rx="189.67" ry="34.06" transform="translate(-110.81 158.9) rotate(-5.39)"/><ellipse class="cls-95" cx="1637.21" cy="1255.84" rx="183.27" ry="32.91" transform="translate(-110.75 159.37) rotate(-5.39)"/><ellipse class="cls-75" cx="1642.3" cy="1255.35" rx="176.88" ry="31.76" transform="translate(-110.68 159.85) rotate(-5.39)"/><ellipse class="cls-6" cx="1647.39" cy="1254.87" rx="170.49" ry="30.62" transform="translate(-110.61 160.32) rotate(-5.39)"/><ellipse class="cls-67" cx="1652.48" cy="1254.39" rx="164.09" ry="29.47" transform="translate(-110.54 160.8) rotate(-5.39)"/><ellipse class="cls-86" cx="1657.56" cy="1253.91" rx="157.7" ry="28.32" transform="translate(-110.47 161.28) rotate(-5.39)"/><ellipse class="cls-90" cx="1662.65" cy="1253.43" rx="151.31" ry="27.17" transform="translate(-110.41 161.75) rotate(-5.39)"/><ellipse class="cls-16" cx="1667.74" cy="1252.95" rx="144.91" ry="26.02" transform="translate(-110.34 162.23) rotate(-5.39)"/><ellipse class="cls-4" cx="1672.83" cy="1252.47" rx="138.52" ry="24.88" transform="translate(-110.27 162.7) rotate(-5.39)"/><ellipse class="cls-144" cx="1677.92" cy="1251.99" rx="132.13" ry="23.73" transform="translate(-110.2 163.18) rotate(-5.39)"/></g><rect class="cls-141" x="1604.35" y="1127.79" width="138.6" height="135.9" rx="35.03" ry="35.03"/><path class="cls-118" d="m1878.06,546.14c-46.78-41.65-108.66-62.77-183.93-62.77-138.43,0-225.86,67.37-259.86,200.23-2.88,11.27-1.09,22.95,5.08,32.89,6.1,9.86,16.07,16.9,27.36,19.32l26.26,5.64c2.93.63,5.93.95,8.92.95,19.2,0,36.13-13.1,41.19-31.86,22.17-82.08,70.17-121.99,146.73-121.99,37.13,0,68.4,10.41,95.6,31.84,26.09,20.56,38.78,48.29,38.78,84.75,0,19.1-4.09,36.87-12.14,52.83-8.19,16.21-17.79,28.93-28.53,37.8-11.66,9.64-33.68,23.54-65.41,41.33-32.04,17.94-51.23,30.37-60.39,39.13-9.37,8.95-17.79,21.33-25.03,36.79-7.16,15.35-11.52,30.98-12.92,46.43-1.1,11.98-1.83,38.08-2.27,79.77-.12,10.97,4.08,21.33,11.8,29.13,7.73,7.82,18.06,12.12,29.05,12.12h25.17c11,0,21.3-4.31,29.04-12.11,7.73-7.81,11.92-18.15,11.82-29.12l-.29-32.91c0-21.79,3.64-38.19,10.52-47.41,4.27-5.73,18.89-19.27,68.75-45.53,96.85-50.32,145.95-119.29,145.95-205.02,0-65.56-23.98-120.15-71.26-162.25Z"/><rect class="cls-149" x="1621.82" y="1127.79" width="138.6" height="135.9" rx="35.03" ry="35.03"/><path class="cls-125" d="m1895.53,546.14c-46.78-41.65-108.66-62.77-183.93-62.77-138.43,0-225.86,67.37-259.86,200.23-2.88,11.27-1.09,22.95,5.08,32.89,6.1,9.86,16.07,16.9,27.36,19.32l26.26,5.64c2.93.63,5.93.95,8.92.95,19.2,0,36.13-13.1,41.19-31.86,22.17-82.08,70.17-121.99,146.73-121.99,37.13,0,68.4,10.41,95.6,31.84,26.09,20.56,38.78,48.29,38.78,84.75,0,19.1-4.09,36.87-12.14,52.83-8.19,16.21-17.79,28.93-28.53,37.8-11.66,9.64-33.68,23.54-65.41,41.33-32.04,17.94-51.23,30.37-60.39,39.13-9.37,8.95-17.79,21.33-25.03,36.79-7.16,15.35-11.52,30.98-12.92,46.43-1.1,11.98-1.83,38.08-2.27,79.77-.12,10.97,4.08,21.33,11.8,29.13,7.73,7.82,18.06,12.12,29.05,12.12h25.17c11,0,21.3-4.31,29.04-12.11,7.73-7.81,11.92-18.15,11.82-29.12l-.29-32.91c0-21.79,3.64-38.19,10.52-47.41,4.27-5.73,18.89-19.27,68.75-45.53,96.85-50.32,145.95-119.29,145.95-205.02,0-65.56-23.98-120.15-71.26-162.25Z"/></svg>